<svg xmlns="http://www.w3.org/2000/svg" xmlns:xlink="http://www.w3.org/1999/xlink" viewBox="0 0 400 400"><defs><style>.a{clip-path:url(#ay);}.b{fill:url(#a);}.c{fill:#230b00;}.d{fill:url(#b);}.e{fill:#ee5600;}.f{fill:url(#c);}.au,.g{fill:#3b3139;}.h{fill:#441a17;}.i{fill:#3f2b41;}.j{fill:url(#d);}.k{fill:url(#e);}.l{fill:#5f4155;}.m{fill:url(#f);}.n{fill:url(#g);}.o{fill:#f7eeb7;}.am,.an,.ao,.bd,.p,.t,.u,.w{opacity:0.87;}.p{fill:url(#h);}.q{fill:#2181be;}.r{fill:#452b42;}.s{fill:url(#i);}.t{fill:url(#j);}.u{fill:url(#l);}.v{fill:#ff4547;}.w{fill:#003d6a;}.x{fill:url(#m);}.y{fill:#a20000;}.z{fill:url(#n);}.aa{fill:#ffa390;opacity:0.44;}.ab{fill:#292057;}.ac{fill:url(#s);}.ad{fill:#3c7d64;}.ae{fill:#3c51da;}.af{fill:#fff;}.ag{fill:url(#u);}.ah{fill:#b75e00;}.ai{fill:#ffefd4;}.aj{fill:url(#v);}.ak{fill:url(#w);}.al{fill:#b80f04;}.am{fill:url(#ah);}.an{fill:url(#ai);}.ao{fill:url(#aj);}.ap{fill:url(#ak);}.aq,.ba{opacity:0.25;}.aq{fill:url(#al);}.ar{fill:url(#am);}.as{fill:#d4848b;}.at{fill:#c5788c;}.au{opacity:0.31;}.av{fill:url(#ap);}.aw{fill:url(#aq);}.ax{fill:#ff9872;}.ay{fill:url(#ar);}.az{fill:url(#at);}.ba{fill:url(#au);}.bb{fill:url(#av);}.bc{fill:#292036;}.bd{fill:url(#aw);}.be{fill:#3b2f38;}.bf{fill:#ed1b54;}.bg{fill:#ff4e48;}</style><linearGradient id="a" x1="-0.178" y1="0.322" x2="1.165" y2="0.652" gradientUnits="objectBoundingBox"><stop offset="0" stop-color="#ee8158"/><stop offset="0.006" stop-color="#d57657"/><stop offset="0.219" stop-color="#5f4155"/><stop offset="0.746" stop-color="#5f4155"/></linearGradient><linearGradient id="b" x1="17.143" y1="-50.672" x2="17.968" y2="-50.672" gradientUnits="objectBoundingBox"><stop offset="0" stop-color="#ffe663"/><stop offset="0.147" stop-color="#ffb663"/><stop offset="1" stop-color="#ff7b1c"/></linearGradient><linearGradient id="c" y1="0.5" x2="1" y2="0.5" gradientUnits="objectBoundingBox"><stop offset="0.207" stop-color="#f78a2f"/><stop offset="1" stop-color="#ea6350"/></linearGradient><linearGradient id="d" x1="-1.944" y1="-0.033" x2="1.373" y2="0.691" gradientUnits="objectBoundingBox"><stop offset="0" stop-color="#e6b663"/><stop offset="0.363" stop-color="#615661"/><stop offset="0.746" stop-color="#3b3139"/></linearGradient><linearGradient id="e" x1="0" y1="0.5" x2="1" y2="0.5" xlink:href="#b"/><linearGradient id="f" y1="0.5" x2="1" y2="0.5" gradientUnits="objectBoundingBox"><stop offset="0.022" stop-color="#ffc8a2"/><stop offset="0.916" stop-color="#ffebaa"/></linearGradient><linearGradient id="g" x1="-0.217" y1="0.452" x2="0.775" y2="0.581" xlink:href="#d"/><linearGradient id="h" y1="0.5" x2="1" y2="0.5" gradientUnits="objectBoundingBox"><stop offset="0.096" stop-color="#ff5214" stop-opacity="0.565"/><stop offset="0.217" stop-color="#ff782b" stop-opacity="0.478"/><stop offset="0.428" stop-color="#ffb350" stop-opacity="0.349"/><stop offset="0.544" stop-color="#ffca5e" stop-opacity="0.302"/><stop offset="0.62" stop-color="#fbaf4a" stop-opacity="0.259"/><stop offset="0.734" stop-color="#f89336" stop-opacity="0.216"/><stop offset="0.83" stop-color="#f78a2f" stop-opacity="0.2"/></linearGradient><linearGradient id="i" y1="0.5" x2="1" y2="0.5" gradientUnits="objectBoundingBox"><stop offset="0" stop-color="#fff3d9"/><stop offset="1" stop-color="#ffc8a2"/></linearGradient><linearGradient id="j" x1="0.881" y1="0.555" x2="-0.101" y2="0.446" gradientUnits="objectBoundingBox"><stop offset="0.096" stop-color="#ff5214" stop-opacity="0.565"/><stop offset="0.217" stop-color="#ff782b" stop-opacity="0.478"/><stop offset="0.428" stop-color="#ffb350" stop-opacity="0.349"/><stop offset="0.544" stop-color="#ffca5e" stop-opacity="0.302"/><stop offset="0.587" stop-color="#fbaf4a" stop-opacity="0.259"/><stop offset="0.65" stop-color="#f89336" stop-opacity="0.216"/><stop offset="0.704" stop-color="#f78a2f" stop-opacity="0.2"/></linearGradient><linearGradient id="l" x1="1.109" y1="0.751" x2="-0.199" y2="0.179" xlink:href="#h"/><linearGradient id="m" x1="0.958" y1="0.781" x2="0.057" y2="0.267" gradientUnits="objectBoundingBox"><stop offset="0" stop-color="#ffcd56"/><stop offset="0.361" stop-color="#ff865b"/><stop offset="1" stop-color="#ff1c1c"/></linearGradient><linearGradient id="n" x1="0" y1="0.5" x2="1" y2="0.5" xlink:href="#m"/><linearGradient id="s" y1="0.5" x2="1" y2="0.5" gradientUnits="objectBoundingBox"><stop offset="0" stop-color="#75e079"/><stop offset="0.858" stop-color="#119286"/><stop offset="1" stop-color="#007da0"/></linearGradient><linearGradient id="u" y1="0.5" x2="1" y2="0.5" gradientUnits="objectBoundingBox"><stop offset="0" stop-color="#ffc67e"/><stop offset="0.996" stop-color="#e9923e"/></linearGradient><linearGradient id="v" y1="0.5" x2="1" y2="0.5" gradientUnits="objectBoundingBox"><stop offset="0" stop-color="#ffa989"/><stop offset="0.996" stop-color="#ff5369"/></linearGradient><linearGradient id="w" y1="0.5" x2="1" y2="0.5" gradientUnits="objectBoundingBox"><stop offset="0" stop-color="#ffff97"/><stop offset="0.996" stop-color="#ffb73e"/></linearGradient><linearGradient id="ah" x1="-0.232" y1="0.316" x2="1.58" y2="0.816" xlink:href="#j"/><linearGradient id="ai" x1="1.047" y1="0.998" x2="0.089" y2="0.157" gradientUnits="objectBoundingBox"><stop offset="0.096" stop-color="#ff5214" stop-opacity="0.565"/><stop offset="0.159" stop-color="#f54c16" stop-opacity="0.525"/><stop offset="0.47" stop-color="#c93123" stop-opacity="0.349"/><stop offset="0.703" stop-color="#ae202b" stop-opacity="0.243"/><stop offset="0.83" stop-color="#a41a2f" stop-opacity="0.2"/></linearGradient><linearGradient id="aj" x1="1.087" y1="0.897" x2="0.047" y2="0.252" xlink:href="#ai"/><linearGradient id="ak" x1="157.483" y1="21.172" x2="158.57" y2="21.172" xlink:href="#i"/><linearGradient id="al" x1="199.593" y1="30.177" x2="198.649" y2="29.225" gradientUnits="objectBoundingBox"><stop offset="0" stop-color="#f6dbc8" stop-opacity="0"/><stop offset="1" stop-color="#841c78"/></linearGradient><linearGradient id="am" x1="260.407" y1="37.269" x2="259.45" y2="36.394" gradientUnits="objectBoundingBox"><stop offset="0" stop-color="#ff9463"/><stop offset="1" stop-color="#ff5b6c"/></linearGradient><linearGradient id="ap" y1="0.5" x2="1" y2="0.5" gradientUnits="objectBoundingBox"><stop offset="0" stop-color="#fcd8d8"/><stop offset="1" stop-color="#ffa3a9"/></linearGradient><linearGradient id="aq" y1="0.5" x2="1" y2="0.5" gradientUnits="objectBoundingBox"><stop offset="0" stop-color="#ff786a"/><stop offset="0.996" stop-color="#e2796f"/></linearGradient><linearGradient id="ar" y1="0.5" x2="1" y2="0.5" gradientUnits="objectBoundingBox"><stop offset="0" stop-color="#fff"/><stop offset="1" stop-color="#fc1347"/></linearGradient><linearGradient id="at" x1="-4.309" y1="-0.423" x2="-3.247" y2="-0.423" xlink:href="#i"/><linearGradient id="au" x1="-4.586" y1="-0.438" x2="-5.514" y2="-1.212" xlink:href="#al"/><linearGradient id="av" x1="-6.297" y1="-0.704" x2="-7.246" y2="-1.4" xlink:href="#am"/><linearGradient id="aw" x1="0" y1="0.5" x2="1" y2="0.5" xlink:href="#h"/><clipPath id="ay"><rect width="400" height="400"/></clipPath></defs><g id="ax" class="a"><rect class="af" width="400" height="400"/><g transform="translate(-919 -4321)"><path class="b" d="M975.242,4493.814s40.155,54.177,99.038,97.687,138.467,61.281,138.467,61.281l27.084-63.252s-177.087-86.5-208.546-143.381l-37.5-.763-18.542,36.7Z"/><path class="c" d="M1212.747,4652.991a.236.236,0,0,1-.045-.005,431.007,431.007,0,0,1-47.179-14.332,439.726,439.726,0,0,1-44.859-19.035,308.857,308.857,0,0,1-46.508-27.95c-30.43-22.486-55.749-47.86-71.63-65.187-17.207-18.774-27.351-32.408-27.451-32.544a.205.205,0,0,1-.041-.124v-11.732a.207.207,0,0,1,.022-.094l18.542-36.7a.208.208,0,0,1,.19-.115l37.5.764a.207.207,0,0,1,.178.107c7.162,12.949,22.571,28.538,45.8,46.334,18.6,14.247,42.211,29.927,70.192,46.607,47.645,28.4,92.02,50.138,92.463,50.354a.21.21,0,0,1,.1.269l-27.084,63.252A.21.21,0,0,1,1212.747,4652.991Zm-237.3-159.246c.721.965,10.749,14.307,27.388,32.46,15.867,17.312,41.164,42.664,71.566,65.129s66.4,37.916,91.255,46.926a434.6,434.6,0,0,0,46.965,14.281l26.938-62.911c-3.124-1.535-46.186-22.785-92.313-50.282-27.995-16.688-51.625-32.378-70.234-46.634-23.213-17.784-38.64-33.381-45.854-46.359l-37.25-.759-18.461,36.536Z"/><path class="d" d="M1141.861,4619.417s2.156,6.313,7.2,7.746,10.1.9,10.625-1.4-1.523-3.915-1.867-6.221.606-.717-1.773-4.376-3.453-7.53-5.608-6.884-9.137,3.816-9.6,4.4S1141.861,4619.417,1141.861,4619.417Z"/><path class="e" d="M1154.446,4628.167a20.315,20.315,0,0,1-5.446-.8c-5.086-1.447-7.247-7.618-7.336-7.88l0-.018c-.355-1.466-1.473-6.3-.987-6.915.508-.644,7.571-3.831,9.7-4.47,1.7-.509,2.742,1.431,4.065,3.887.515.955,1.1,2.037,1.777,3.082l.446.684c1.263,1.94,1.287,1.977,1.274,2.574a6.247,6.247,0,0,0,.084,1.2,8.212,8.212,0,0,0,.977,2.536,5.362,5.362,0,0,1,.888,3.763,2.357,2.357,0,0,1-1.2,1.48A8.651,8.651,0,0,1,1154.446,4628.167Zm-12.385-8.809c.093.262,2.261,6.243,7.053,7.6,3.7,1.052,7.551,1.038,9.364-.034a1.952,1.952,0,0,0,1-1.215,4.97,4.97,0,0,0-.851-3.477,8.542,8.542,0,0,1-1.019-2.667,6.7,6.7,0,0,1-.088-1.271c.01-.469.01-.469-1.208-2.337l-.445-.685c-.689-1.059-1.276-2.149-1.794-3.111-1.282-2.38-2.208-4.1-3.58-3.686-2.36.708-9.121,3.855-9.495,4.329C1140.763,4613.177,1141.353,4616.426,1142.061,4619.358Z"/><path class="f" d="M1153.148,4607.92a2.884,2.884,0,0,1-.164.556c-1.505,3.794-10.159,4.2-10.159,4.2l-.262-.262-5.09-5.063s5.758-12.749,12.567-13.6S1153.35,4606.882,1153.148,4607.92Z"/><path class="g" d="M1152.984,4608.476c-1.505,3.794-10.159,4.2-10.159,4.2l-.262-.262A92.083,92.083,0,0,0,1152.984,4608.476Z"/><path class="h" d="M1142.743,4612.893l-.328-.328-5.191-5.164.059-.131c.237-.525,5.885-12.866,12.731-13.721a3.3,3.3,0,0,1,3.018.976c1.728,1.9,1.862,6.434.388,13.124-.032.144-.056.25-.067.311a3.138,3.138,0,0,1-.177.6c-1.535,3.872-9.982,4.316-10.341,4.333Zm-5.02-5.582,5.183,5.156c.923-.059,8.527-.646,9.884-4.068a2.786,2.786,0,0,0,.154-.519h0c.012-.063.036-.172.069-.321,1.423-6.458,1.32-10.987-.289-12.753a2.869,2.869,0,0,0-2.658-.843C1143.815,4594.743,1138.355,4605.966,1137.723,4607.311Z"/><path class="i" d="M1002.03,4478.83l3.75,10.83,22.084,29.816,5.394-2.049-24.006-35.093Z"/><rect class="j" width="7.075" height="14.893" rx="3.245" transform="matrix(0.737, -0.676, 0.676, 0.737, 954.518, 4420.587)"/><path class="c" d="M964.8,4430.313c-.055,0-.111,0-.166,0a3.721,3.721,0,0,1-2.6-1.21l-5.285-5.762a3.746,3.746,0,0,1,5.524-5.062l5.284,5.762a3.745,3.745,0,0,1-2.758,6.276Zm-5.291-12.836a3.329,3.329,0,0,0-2.451,5.578l5.284,5.762a3.33,3.33,0,0,0,4.7.2h0a3.327,3.327,0,0,0,.205-4.7l-5.284-5.762a3.309,3.309,0,0,0-2.31-1.077Z"/><path class="k" d="M1126.339,4622.975s.36,9.615,6.728,13.682,13.577,5.423,15.259,2.465-.48-6.039,0-9.367,1.134-.74-.634-6.78-1.649-11.832-4.893-11.832-12.179,6.286-13.058,6.9S1126.339,4622.975,1126.339,4622.975Z"/><path class="e" d="M1144.526,4640.926c-3.159,0-7.538-1.517-11.571-4.093-6.386-4.079-6.821-13.753-6.824-13.85l0-.06.031-.053c.1-.177,2.556-4.36,3.462-5l.027-.019c2.315-1.624,10.108-6.921,13.151-6.921,2.482,0,3.114,3.08,3.915,6.981.315,1.534.672,3.272,1.178,5l.332,1.13c.951,3.235.951,3.235.695,4.028a9.06,9.06,0,0,0-.387,1.709,11.941,11.941,0,0,0,.3,3.939c.361,1.9.7,3.7-.324,5.5a3.3,3.3,0,0,1-2.206,1.5A7.408,7.408,0,0,1,1144.526,4640.926Zm-17.976-17.9c.046.814.687,9.659,6.629,13.455,4.7,3,10.052,4.58,13.022,3.844a2.9,2.9,0,0,0,1.944-1.307c.95-1.669.623-3.393.277-5.219a12.231,12.231,0,0,1-.3-4.075,9.616,9.616,0,0,1,.4-1.778c.217-.67.217-.67-.7-3.782l-.332-1.131c-.511-1.745-.87-3.493-1.186-5.034-.793-3.86-1.365-6.649-3.507-6.649-2.321,0-8.192,3.537-12.912,6.846l-.026.019C1129.18,4618.693,1127.271,4621.8,1126.55,4623.027Z"/><path class="c" d="M1027.864,4519.684a.209.209,0,0,1-.167-.084l-22.084-29.817a.2.2,0,0,1-.03-.055l-3.75-10.83a.209.209,0,0,1,.288-.256l7.223,3.5a.221.221,0,0,1,.081.07l24.005,35.093a.207.207,0,0,1,.027.179.21.21,0,0,1-.125.133l-5.394,2.049A.2.2,0,0,1,1027.864,4519.684Zm-21.9-30.123,21.971,29.664,5-1.9-23.825-34.829-6.72-3.262Z"/><path class="l" d="M1025.075,4462.308s-20.336,6.523-23.045,16.522c0,0,15.209,30.336,33.751,42.623,0,0,13.955-20.25,21.874-18.351Z"/><path class="m" d="M1216.709,4532.854c-2.831,4.3-8.042,7.435-15.9,9.92-17.3,5.466-25.9,1-31.37-16.288-2.758-8.718-2.99-15.228-.323-20.239,2.623-4.927,8.044-8.409,16.617-11.118,17.294-5.469,25.9-1,31.37,16.287C1220.084,4520.846,1220.109,4527.694,1216.709,4532.854Z"/><path class="n" d="M961.492,4427.952l5.069-4.6s45.513,7.528,61.265,19.939l3.459,2.856s-20.626.738-36.182,15.316a72.716,72.716,0,0,0-19.861,32.349S955.241,4467.382,961.492,4427.952Z"/><path class="c" d="M1035.781,4521.662a.21.21,0,0,1-.115-.035c-9.607-6.366-18.292-17.64-23.887-25.977a172.984,172.984,0,0,1-9.935-16.727.21.21,0,0,1-.015-.148c1.139-4.2,5.392-8.288,12.642-12.139a72.9,72.9,0,0,1,10.54-4.526.209.209,0,0,1,.227.069l32.579,40.793a.208.208,0,0,1-.211.332c-7.694-1.848-21.515,18.066-21.653,18.268A.211.211,0,0,1,1035.781,4521.662Zm-33.529-42.855c.838,1.644,15.7,30.461,33.475,42.36,1.422-2.037,13.709-19.26,21.421-18.366L1025,4462.552C1023.229,4463.145,1004.865,4469.5,1002.252,4478.807Z"/><path class="o" d="M1216.709,4532.854c3.4-5.16,3.375-12.008.392-21.438-5.471-17.287-14.076-21.756-31.37-16.287-8.573,2.709-13.994,6.191-16.617,11.118,1.875-6.587,7.584-10.914,17.7-14.111,17.3-5.469,25.953-.833,31.562,16.894C1221.815,4519.911,1221.482,4527.417,1216.709,4532.854Z"/><path class="p" d="M1216.709,4532.854c3.4-5.16,3.375-12.008.392-21.438-5.471-17.287-14.076-21.756-31.37-16.287-8.573,2.709-13.994,6.191-16.617,11.118,1.875-6.587,7.584-10.914,17.7-14.111,17.3-5.469,25.953-.833,31.562,16.894C1221.815,4519.911,1221.482,4527.417,1216.709,4532.854Z"/><path class="q" d="M1199.376,4538.255c-7.572,2.394-12.816,2.617-16.5.7s-6.521-6.332-8.916-13.9-2.618-12.811-.7-16.5,6.335-6.518,13.906-8.912,12.817-2.617,16.505-.7,6.521,6.332,8.916,13.9,2.617,12.811.7,16.5S1206.948,4535.862,1199.376,4538.255Z"/><path class="c" d="M975.242,4494.022a.21.21,0,0,1-.166-.082,76.738,76.738,0,0,1-9.249-18.2,95.825,95.825,0,0,1-4.541-47.822.209.209,0,0,1,.066-.122l5.069-4.6a.214.214,0,0,1,.174-.051c.114.019,11.54,1.923,24.744,5.32,12.2,3.137,28.45,8.228,36.616,14.661l3.463,2.859a.209.209,0,0,1-.126.369,61.34,61.34,0,0,0-36.046,15.26,73.137,73.137,0,0,0-19.8,32.246.207.207,0,0,1-.16.155A.2.2,0,0,1,975.242,4494.022Zm-13.556-65.965a95.394,95.394,0,0,0,4.527,47.525,78.961,78.961,0,0,0,8.941,17.754,74.091,74.091,0,0,1,19.807-32.023,58.691,58.691,0,0,1,24.01-13.173,61.075,61.075,0,0,1,11.773-2.168l-3.051-2.519c-15.173-11.955-58.675-19.472-61.067-19.877Z"/><path class="r" d="M1183.125,4524.61l2.192,6.926a3.231,3.231,0,0,1,.061,1.263,1.294,1.294,0,0,1-1,1.111,1.41,1.41,0,0,1-1.512-.244,2.664,2.664,0,0,1-.771-1.11l-5.141-16.248a7.59,7.59,0,0,1-.355-1.766,3.329,3.329,0,0,1,.184-1.43,2.485,2.485,0,0,1,.824-1.073,4.046,4.046,0,0,1,1.276-.674l5.416-1.712a11.686,11.686,0,0,1,1.8-.352,5.391,5.391,0,0,1,2.156.1,4.954,4.954,0,0,1,2.053,1.355,7.428,7.428,0,0,1,1.719,2.778,13.26,13.26,0,0,1,.762,3.009,6.8,6.8,0,0,1-.306,3.311,4.232,4.232,0,0,1-1.53,1.927,9.431,9.431,0,0,1-2.456,1.138Zm-1.194-3.775,5.981-1.891a1.8,1.8,0,0,0,1.125-.809,2.4,2.4,0,0,0,.241-1.293,6.057,6.057,0,0,0-.266-1.441,4.36,4.36,0,0,0-.872-1.558,2,2,0,0,0-1.093-.671,2.529,2.529,0,0,0-1.012.011l-4.8,1.517a1.416,1.416,0,0,0-.642.366.907.907,0,0,0-.236.454,2.158,2.158,0,0,0,.151.818Z"/><path class="r" d="M1198.914,4504.85a13.1,13.1,0,0,1,2.089-.371,12,12,0,0,1,2.38-.012,11.279,11.279,0,0,1,2.05.363,8.377,8.377,0,0,1,1.4.515,2.563,2.563,0,0,1,.811.593,2.331,2.331,0,0,1,.435.819,3.04,3.04,0,0,1,.046,1.43,1.251,1.251,0,0,1-.935.981,1.383,1.383,0,0,1-.85.052l-1.725-.574a8.113,8.113,0,0,0-1.349-.241,11.173,11.173,0,0,0-1.692-.043,8.66,8.66,0,0,0-1.9.33,11.828,11.828,0,0,0-1.882.812,2.684,2.684,0,0,0-1.329,1.232,2.132,2.132,0,0,0-.136,1.325,2.377,2.377,0,0,0,.49,1.037,2.165,2.165,0,0,0,1,.73,3.063,3.063,0,0,0,1.3.184q.673-.051,1.99-.214t2.591-.242a23.558,23.558,0,0,1,2.609-.012,5.519,5.519,0,0,1,2.509.741,6,6,0,0,1,1.859,1.6,8.935,8.935,0,0,1,1.2,2.473,6.884,6.884,0,0,1,.2,3.383,6,6,0,0,1-1.087,2.6,6.139,6.139,0,0,1-1.726,1.647,9.968,9.968,0,0,1-2.313.948,12.9,12.9,0,0,1-2.1.5,10.014,10.014,0,0,1-2.119.02,11.842,11.842,0,0,1-2.4-.45,12.813,12.813,0,0,1-1.965-.733,3.748,3.748,0,0,1-1.162-.806,3.151,3.151,0,0,1-.611-1.161,2.376,2.376,0,0,1,.005-1.482,1.247,1.247,0,0,1,.973-.9,1.48,1.48,0,0,1,.634.034,6.637,6.637,0,0,1,1.27.591,9.66,9.66,0,0,0,1.715.758,8.156,8.156,0,0,0,2.164.291,8.069,8.069,0,0,0,2.67-.375,4.964,4.964,0,0,0,1.909-.983,2.636,2.636,0,0,0,.9-2.974,2.823,2.823,0,0,0-.758-1.115,2.136,2.136,0,0,0-1.6-.449q-1.068.048-2.754.238t-2.919.273a14.812,14.812,0,0,1-2.347-.016,5.991,5.991,0,0,1-2.141-.6,4.4,4.4,0,0,1-1.759-1.664,8.352,8.352,0,0,1-1.036-2.291,6.863,6.863,0,0,1-.143-3.746,5.98,5.98,0,0,1,1.311-2.49,8.44,8.44,0,0,1,2.086-1.581A12.338,12.338,0,0,1,1198.914,4504.85Z"/><path class="s" d="M1056.285,4501.553l-5.642,28.244a11.571,11.571,0,0,1-10.632,6.344c-3.606-.113-8.248-1.754-14.092-6.344-15.99-12.554-16.21-37.359-15.462-45.641a19.321,19.321,0,0,1,.325-2.41c.833-3.609,12.637-10.413,15.277-9.717a3.614,3.614,0,0,1,1.3.658,5.489,5.489,0,0,1,1.189,1.316,9.163,9.163,0,0,1,1.123,2.468Z"/><path class="t" d="M1056.285,4501.553l-5.642,28.244a11.571,11.571,0,0,1-10.632,6.344c-12.881-1.952-9.619-6.038-8.471-17.844s-2.616-7.914-9.137-23.56-.328-11.573-2.9-18.468l7.857-3.582a5.489,5.489,0,0,1,1.189,1.316,9.163,9.163,0,0,1,1.123,2.468Z"/><path class="s" d="M1144.843,4612.229v0c-.548.838-1.107,1.689-1.663,2.589-2.381,3.838-8.344,6.806-12.552,8.512h0c-2.6,1.053-4.529,1.626-4.529,1.626s-1.221.448-5.088-.285a67.273,67.273,0,0,1-10.121-2.943,25.038,25.038,0,0,1-9.155-5.906,73.633,73.633,0,0,1-14.025-4.286,86.14,86.14,0,0,1-40.255-33.467,60.944,60.944,0,0,1-7.279-16.15c-7.852-27.538,5.744-52.927,5.744-52.927l16.64-11.943,1.143-.821,53.706,17.583s9.894,33.911,15.519,40.558,11.917,28.428,17.336,38.709C1154.866,4601.817,1148.055,4607.294,1144.843,4612.229Z"/><path class="u" d="M1144.843,4612.229v0c-.548.838-1.107,1.689-1.663,2.589-2.381,3.838-8.344,6.806-12.552,8.512h0c-6.238-.165-1.917-3.749-1.265-12.754s-4.51-24.081-15.106-28.538-14.165-14.465-15.413-23.36-4.1-6.085-12.934-14.126-7.033-14.542-7.033-14.542-11.526-5.884-12.167-3.276-6.442,3.276-6.442,3.276-1.613-8.274-1.721-8.558c0,0,1.923-13.114,4.013-24.4l1.143-.821,53.706,17.583s9.894,33.911,15.519,40.558,11.917,28.428,17.336,38.709C1154.866,4601.817,1148.055,4607.294,1144.843,4612.229Z"/><path class="g" d="M1144.842,4612.231c-.546.837-1.1,1.688-1.663,2.588-3.854,6.212-17.083,10.138-17.083,10.138s-1.221.448-5.088-.285a82.763,82.763,0,0,0,11.165-4.644C1136.019,4617.978,1141.983,4614.111,1144.842,4612.231Z"/><path class="h" d="M1150.446,4592.982a172.42,172.42,0,0,1-6.954-16.492c-3.467-8.992-7.054-18.291-10.406-22.254-5.534-6.537-15.38-40.141-15.48-40.481l-.029-.106-53.81-17.617-.1-.033-7.362,5.286-.344.246-10.163,7.3-.039.027-.023.043a77.2,77.2,0,0,0-5.836,16.184,82.186,82.186,0,0,0-1.9,10.638c-.014.137-.031.277-.046.416a68.4,68.4,0,0,0,2.017,25.843,61.368,61.368,0,0,0,7.3,16.207,86.383,86.383,0,0,0,40.353,33.548,73.805,73.805,0,0,0,14,4.286,25.151,25.151,0,0,0,9.183,5.908,68.345,68.345,0,0,0,10.155,2.951,20.635,20.635,0,0,0,3.785.425,4.626,4.626,0,0,0,1.4-.144c.019-.006,1.95-.583,4.511-1.618l.039-.015c4.461-1.807,10.276-4.767,12.651-8.6.541-.872,1.087-1.707,1.616-2.515l.077-.119v0c.588-.9,1.286-1.8,2.025-2.762C1150.442,4605.163,1154.257,4600.213,1150.446,4592.982Zm-3.7,16.294c-.758.985-1.477,1.914-2.077,2.841l-.046.069c-.529.81-1.077,1.647-1.621,2.524-2.308,3.723-8.016,6.629-12.414,8.413l-.04.015c-2.561,1.037-4.492,1.614-4.521,1.624-.012,0-1.25.413-4.979-.293a68.383,68.383,0,0,1-10.09-2.935,24.776,24.776,0,0,1-9.077-5.858l-.046-.046-.065-.01a72.979,72.979,0,0,1-13.983-4.276,85.941,85.941,0,0,1-40.158-33.385,60.956,60.956,0,0,1-7.254-16.094,67.932,67.932,0,0,1-2.006-25.664c.014-.14.029-.279.046-.416a81.339,81.339,0,0,1,1.885-10.592,77.389,77.389,0,0,1,5.779-16.059l9.9-7.1.493-.356,7.265-5.213,53.5,17.517c.719,2.451,10.042,34.042,15.53,40.529,3.308,3.909,6.881,13.172,10.337,22.133a172.46,172.46,0,0,0,6.974,16.538C1153.763,4600.171,1150.036,4605.009,1146.746,4609.276Z"/><path class="v" d="M1013.307,4468.926s-5.1,5-8.22,3.487a6.758,6.758,0,0,1-3.781-8.295c1.068-3.676,4.11-9.332,9.453-9.427s9.7,1.226,12.33,6.128,1.89,10.652,1.89,11.029-8.877,6.975-8.877,6.975-3.7,3.9-6.823,1.76-5.507-7.227-3.946-10.149"/><path class="h" d="M1011.315,4481.426a3.741,3.741,0,0,1-2.154-.671,10.85,10.85,0,0,1-4.525-8.338,6.962,6.962,0,0,1-3.53-8.357c1.267-4.362,4.555-9.487,9.649-9.577,6.289-.114,10.143,1.813,12.517,6.237a19.888,19.888,0,0,1,1.93,10.918c-.009.107-.015.178-.015.21,0,.131,0,.481-8.948,7.133C1016.043,4479.18,1013.782,4481.426,1011.315,4481.426Zm-6.265-8.8a10.647,10.647,0,0,0,4.347,7.785c2.939,2.011,6.518-1.694,6.554-1.731a.2.2,0,0,1,.026-.024c3.219-2.392,8.393-6.326,8.8-6.859,0-.045.007-.109.013-.191a19.479,19.479,0,0,0-1.881-10.689c-2.291-4.269-6.031-6.13-12.143-6.018-4.867.087-8.028,5.051-9.256,9.277a6.521,6.521,0,0,0,3.671,8.05c2.958,1.429,7.934-3.4,7.984-3.449a.208.208,0,1,1,.292.3C1013.242,4469.281,1008.269,4474.1,1005.05,4472.626Z"/><path class="g" d="M1028.545,4474c-3.012,2.253-13.9,7.978-18.09,10.153a20.105,20.105,0,0,1,.325-2.41c.834-3.609,12.64-10.413,15.278-9.717A4.474,4.474,0,0,1,1028.545,4474Z"/><path class="h" d="M1056.3,4501.285l-26.449-24.924a9.319,9.319,0,0,0-1.133-2.472,5.741,5.741,0,0,0-1.236-1.367,3.836,3.836,0,0,0-1.373-.695c-1.473-.388-5.233,1.31-8.308,3.165-3.188,1.925-6.761,4.7-7.225,6.706a19.9,19.9,0,0,0-.33,2.439c-.289,3.213-2.32,31.8,15.542,45.825,4.4,3.455,8.48,5.523,12.165,6.172.14.025.277.046.413.067.014-.14.029-.279.046-.416-.138-.019-.273-.042-.413-.067-3.608-.639-7.619-2.68-11.954-6.085-17.688-13.887-15.671-42.268-15.384-45.459a19.489,19.489,0,0,1,.321-2.382c.358-1.552,3.119-4.08,7.035-6.444,3.159-1.905,6.209-3.161,7.6-3.161a1.5,1.5,0,0,1,.383.044,3.405,3.405,0,0,1,1.223.62,5.3,5.3,0,0,1,1.144,1.267,9.135,9.135,0,0,1,1.1,2.4l.014.058,26.476,24.95.1.1-.081.4.493-.356.04-.194Z"/><path class="w" d="M1188.781,4545.491a17.726,17.726,0,0,1-8.334-1.867c-5.007-2.6-8.664-8-11.506-16.981-2.858-9.032-2.958-15.577-.313-20.591,1.911-6.63,7.474-11.077,18.027-14.412,8.992-2.844,15.527-2.912,20.566-.214s8.736,8.238,11.649,17.447h0c3.582,11.323,3.043,18.819-1.746,24.3-2.847,4.305-7.983,7.514-16.16,10.1A41.1,41.1,0,0,1,1188.781,4545.491Zm9.891-55a39.5,39.5,0,0,0-11.7,2.137c-10.212,3.228-15.564,7.471-17.354,13.758l-.015.053-.026.049c-2.532,4.757-2.417,11.06.36,19.837,5.38,17,13.706,21.325,30.715,15.948,7.956-2.514,12.921-5.6,15.625-9.709l.043-.057c4.544-5.176,5.025-12.37,1.56-23.324-2.826-8.933-6.368-14.285-11.148-16.844A16.727,16.727,0,0,0,1198.672,4490.5Z"/><path class="x" d="M1284.348,4591.429c-.29.364-.577.764-.863,1.187h0c-3.631,5.362-7.114,14.615-15.613,9.017-9.166-6.039-14.792,14.162-17.292,20.409-.389.975-.839,2.031-1.337,3.112-2.688,5.839-6.767,12.429-10.4,11.258-2.742-.885-4.075-4.754-5.58-5.619-.858-.491-1.771-.006-3.031,2.564-3.473,7.081-9.167,31.516-13.194,29.3s-5.7-8.887-8.473-10.553-60.376-46.5-70.9-77.736c-9.273-27.506-29.584-44.567-29.584-44.567l6.915-19.586,33.988-1.977s85.975,46.977,106.809,52.173,32.5,3.911,34.792,6.429S1288.327,4586.431,1284.348,4591.429Z"/><path class="y" d="M1217.566,4663a1.292,1.292,0,0,1-.63-.168c-2.274-1.254-3.815-3.9-5.174-6.226-1.084-1.857-2.107-3.611-3.306-4.33-1.266-.76-16.264-12.242-32.582-27.807-14.487-13.818-32.91-33.716-38.412-50.041a107.476,107.476,0,0,0-18.234-32.534,95.77,95.77,0,0,0-11.287-11.94l-.11-.093,7.009-19.853.138-.008,34.048-1.98.052.028c.86.47,86.19,47.023,106.759,52.154a179.176,179.176,0,0,0,25.383,4.331c5.23.574,8.386.921,9.513,2.16,1.3,1.433.486,6.91-.716,11.558-1.486,5.748-3.648,10.97-5.506,13.305-.27.339-.549.723-.853,1.173l-.064.092c-.526.785-1.045,1.64-1.593,2.543-2.069,3.413-4.414,7.281-7.9,8.067-1.942.437-4.016-.1-6.341-1.627a5.3,5.3,0,0,0-4.737-.829c-5.209,1.731-8.915,12-11.129,18.132-.428,1.184-.8,2.206-1.118,3.01-.418,1.046-.87,2.1-1.342,3.121-2.048,4.449-5.9,11.517-9.717,11.517a3.035,3.035,0,0,1-.936-.147c-1.728-.558-2.877-2.2-3.89-3.642a7.157,7.157,0,0,0-1.729-2,.873.873,0,0,0-.724-.106c-.595.182-1.255,1.026-2.017,2.581a106.9,106.9,0,0,0-4,11.041c-2.808,8.545-5.711,17.38-8.329,18.41A1.407,1.407,0,0,1,1217.566,4663Zm-109.247-133.271a98.324,98.324,0,0,1,11.233,11.9,107.9,107.9,0,0,1,18.305,32.663c5.475,16.245,23.852,36.087,38.3,49.872,16.3,15.543,31.249,27,32.509,27.752,1.291.774,2.341,2.573,3.452,4.478,1.332,2.284,2.842,4.872,5.015,6.07a.889.889,0,0,0,.8.042c2.436-.958,5.438-10.092,8.086-18.152a107.121,107.121,0,0,1,4.025-11.095c.827-1.686,1.548-2.574,2.269-2.795a1.291,1.291,0,0,1,1.053.143,7.314,7.314,0,0,1,1.863,2.117c.976,1.392,2.082,2.969,3.677,3.484,3.942,1.27,8.409-7.372,10.147-11.147.469-1.018.917-2.062,1.333-3.1.319-.8.687-1.816,1.113-3,2.24-6.206,5.989-16.592,11.389-18.386a5.7,5.7,0,0,1,5.1.876c2.226,1.467,4.2,1.98,6.021,1.568,3.317-.747,5.613-4.534,7.639-7.876.572-.943,1.112-1.834,1.666-2.652l.064-.091c.286-.42.552-.784.81-1.109h0c4.084-5.129,8.4-21.951,6.24-24.323-1.021-1.122-4.119-1.462-9.251-2.026a179.684,179.684,0,0,1-25.438-4.341c-20.411-5.091-104.264-50.777-106.8-52.164l-33.79,1.966Z"/><path class="l" d="M1076.067,4518.951s1.033,13.707,1.729,16.942c.673,3.126,7.986,11.662,23.888,1.353,19.157-12.42,21.7-21.705,21.7-21.705Z"/><path class="z" d="M1044.652,4507s-3.668,6.306-2.2,7.269,10.107.743,11.875.624,4.9,5,12.084,7.289,54.168,15.411,60,5.623c4.614-7.741,12.4-4.894-.521-8.226s-44.48-8.018-54.689-9.58S1044.652,4507,1044.652,4507Z"/><path class="y" d="M1114.586,4531.609a106.664,106.664,0,0,1-17.707-1.88,278.784,278.784,0,0,1-30.536-7.348,26.3,26.3,0,0,1-9.257-5.516c-1.239-1.048-2.129-1.811-2.749-1.764-1.186.079-10.411.388-12-.658-1.549-1.019,1.51-6.466,2.139-7.548l.066-.114.132.011c.164.015,16.462,1.456,26.56,3,.786.121,1.7.259,2.718.415,11.987,1.822,40.058,6.091,51.991,9.169,1.179.3,2.185.557,3.037.771,3.347.84,4.143,1.04,4.21,1.51.05.347-.334.572-1.1,1.02a14.4,14.4,0,0,0-5.5,5.234C1125.119,4530.375,1121.1,4531.609,1114.586,4531.609Zm-60.2-16.926c.764,0,1.65.749,2.969,1.864a25.921,25.921,0,0,0,9.115,5.437c10.532,3.357,54.27,14.924,59.759,5.715a14.771,14.771,0,0,1,5.649-5.38,4,4,0,0,0,.89-.6,17.369,17.369,0,0,0-3.893-1.163c-.853-.214-1.86-.467-3.04-.771-11.912-3.073-39.969-7.34-51.95-9.162l-2.718-.414c-9.6-1.469-24.824-2.845-26.4-2.986-1.371,2.384-3.135,6.264-2.2,6.875,1.33.875,9.374.751,11.747.591Z"/><path class="s" d="M1141.722,4567.646a21.351,21.351,0,0,1-9.636,2.586c-7.744.444-17.9-2.2-23.831-14.213-3.446-6.975-5.561-11.575-6.861-14.6a20.784,20.784,0,0,0,7.827-5.79c.277-.352.542-.718.792-1.1,3.381-5.192,2.508-8.737,1.712-10.363,8.8.079,30.832,1.724,36.334,15.848C1154.981,4557.772,1146.239,4564.63,1141.722,4567.646Z"/><path class="g" d="M1110.012,4534.526a19.857,19.857,0,0,1-8.617,6.89c-2.205-5.145-2.054-5.752-2.054-5.752l8.728-11.44s1.388-.083,3.656-.062C1112.521,4525.788,1113.4,4529.333,1110.012,4534.526Z"/><path class="aa" d="M1078.208,4513.135a21.718,21.718,0,0,0,3.606,5.162c-2.508-.275-5.141-.622-7.906-1.026a87.632,87.632,0,0,1-17.132-4.145C1065.741,4514.384,1072.735,4514.232,1078.208,4513.135Z"/><path class="h" d="M1101.287,4541.693l-.084-.195c-1.646-3.841-2.146-5.558-2.064-5.884l.01-.042.026-.034,8.786-11.517.1,0c.014,0,1.419-.083,3.67-.062h.129l.056.116c.827,1.688,1.7,5.307-1.725,10.568h0a19.738,19.738,0,0,1-8.706,6.967Zm-1.738-5.958c.017.212.2,1.286,1.954,5.4a19.209,19.209,0,0,0,8.335-6.726h0c3.238-4.97,2.524-8.387,1.755-10.043-1.832-.014-3.075.04-3.417.057Z"/><path class="l" d="M1087.707,4611.537a86.143,86.143,0,0,1-40.255-33.467,61.069,61.069,0,0,1-7.279-16.15,14.046,14.046,0,0,0,10.117,1.489c9.242-2.387,19.283-1.133,16.971,9.069s.758,21.032,8.806,23.531C1082.624,4598.046,1088.209,4605.652,1087.707,4611.537Z"/><path class="z" d="M1053.3,4519.258a4.4,4.4,0,0,1,2.953,3.973c.219,3.178,4.446,7.217,4.446,7.217s4.952-11.522,0-13.309a57.327,57.327,0,0,0-6.009-1.987Z"/><path class="y" d="M1060.771,4530.806l-.216-.207c-.175-.168-4.287-4.132-4.51-7.354a4.219,4.219,0,0,0-2.8-3.788l-.209-.06,1.517-4.483.178.034a56.467,56.467,0,0,1,6.041,1.995,3.178,3.178,0,0,1,1.881,1.811c1.64,3.779-1.62,11.451-1.76,11.776Zm-7.209-11.674a4.646,4.646,0,0,1,2.9,4.084c.183,2.652,3.3,5.991,4.164,6.865.578-1.439,3.04-7.942,1.643-11.162a2.783,2.783,0,0,0-1.64-1.585c-3.838-1.385-5.337-1.815-5.8-1.935Z"/><path class="z" d="M1051.85,4513.828s-3.368-2.384-6.6-1.192-6.348,4.594-6.348,4.594,2.32,2.491,5.357,2.226a36.91,36.91,0,0,0,7.594-1.986Z"/><path class="y" d="M1043.8,4519.684a7.642,7.642,0,0,1-5.05-2.312l-.131-.141.13-.142c.129-.14,3.184-3.453,6.43-4.649,3.3-1.215,6.654,1.118,6.8,1.218l.087.062v3.894l-.134.051a36.632,36.632,0,0,1-7.65,2C1044.113,4519.678,1043.953,4519.684,1043.8,4519.684Zm-4.606-2.459a7.027,7.027,0,0,0,5.048,2.024,35.835,35.835,0,0,0,7.4-1.924v-3.386c-.544-.353-3.513-2.143-6.323-1.108A19.365,19.365,0,0,0,1039.19,4517.225Z"/><path class="z" d="M1051.345,4512.327c-2.141,2.46-3.435,6.043-1.5,7.107s5.049,1.611,4.8.177c-.7-4.033,4.728-3.492,2.444-4.526S1051.718,4511.9,1051.345,4512.327Z"/><path class="y" d="M1053.454,4520.685a8.64,8.64,0,0,1-3.707-1.068,1.985,1.985,0,0,1-1.011-1.467c-.273-1.537.735-3.987,2.452-5.96h0c.312-.358,1.077.028,3.184,1.219.9.51,1.925,1.088,2.8,1.486.412.187.687.364.687.622,0,.29-.32.435-.8.655-1.035.468-2.6,1.175-2.208,3.4a.806.806,0,0,1-.321.854A1.878,1.878,0,0,1,1053.454,4520.685Zm-1.965-8.206c-1.632,1.881-2.595,4.181-2.342,5.6a1.582,1.582,0,0,0,.8,1.175c1.574.864,3.724,1.28,4.341.839a.4.4,0,0,0,.152-.444c-.444-2.546,1.436-3.4,2.447-3.855a3.364,3.364,0,0,0,.538-.277,1.641,1.641,0,0,0-.421-.24c-.9-.406-1.927-.989-2.837-1.5A10.513,10.513,0,0,0,1051.489,4512.479Zm.013-.015Z"/><path class="ab" d="M1079.195,4513.489c-3.264,7.105-6.964,14.3-7.826,22.178-.61,5.576-1.133,12.661,2.527,17.364.822,1.057,2.287-.427,1.473-1.473-1.674-2.151-2.081-5.158-2.224-7.794a48.024,48.024,0,0,1,.35-8.466c.91-7.347,4.449-14.12,7.5-20.758.556-1.21-1.239-2.269-1.8-1.051Z"/><path class="ac" d="M1106.833,4575.915l-23.773,17.754a30.484,30.484,0,0,1-8.311-6.439,109.631,109.631,0,0,1-11.75-19.081l28.19-15.854C1095.368,4561.235,1102.089,4574.126,1106.833,4575.915Z"/><path class="ad" d="M1083.081,4593.913l-.115-.058a30.944,30.944,0,0,1-8.375-6.49,110.405,110.405,0,0,1-11.78-19.126l-.084-.176.17-.1L1091.283,4552l.1.2c6.462,13.824,11.977,22.175,15.529,23.514l.356.135Zm-19.81-25.678a109.775,109.775,0,0,0,11.637,18.86,30.34,30.34,0,0,0,8.132,6.329l23.379-17.459c-4.62-2.187-10.837-13.8-15.323-23.379Z"/><path class="q" d="M1087.349,4543.629l-28.063,14.391a50.4,50.4,0,0,0,3.713,10.129l28.19-15.854C1088.883,4547.361,1087.349,4543.629,1087.349,4543.629Zm-9.535,9.261-5.646,2.826a1.218,1.218,0,1,1-1.09-2.178l5.646-2.826a1.218,1.218,0,0,1,1.634.543,1.232,1.232,0,0,1,.129.546A1.217,1.217,0,0,1,1077.814,4552.89Z"/><path class="ae" d="M1063,4568.358a.235.235,0,0,1-.063-.01.211.211,0,0,1-.125-.109,50.263,50.263,0,0,1-3.728-10.174.209.209,0,0,1,.108-.231l28.064-14.39a.208.208,0,0,1,.287.106c.016.037,1.558,3.784,3.836,8.656a.209.209,0,0,1-.087.27l-28.19,15.855A.2.2,0,0,1,1063,4568.358Zm-3.474-10.227a49.85,49.85,0,0,0,3.567,9.727l27.827-15.65c-1.934-4.146-3.324-7.447-3.675-8.29Zm12.1-2.079a1.425,1.425,0,0,1-.642-2.7l5.646-2.826a1.426,1.426,0,1,1,1.276,2.55h0l-5.646,2.826A1.42,1.42,0,0,1,1071.627,4556.052Zm5.641-5.26a1.014,1.014,0,0,0-.451.106l-5.646,2.826a1.007,1.007,0,0,0-.557.9,1.023,1.023,0,0,0,.107.453,1.012,1.012,0,0,0,1.354.45l5.645-2.826a1.009,1.009,0,0,0-.452-1.912Zm.546,2.1h0Z"/><path class="ab" d="M1040.63,4495.751c-2.127,5.013-2.169,10.313-1.453,15.633a67.8,67.8,0,0,0,4.374,16.352,40.445,40.445,0,0,0,6.8,11.46,43.625,43.625,0,0,0,10.24,8.658,45.928,45.928,0,0,0,13.818,5.661c1.3.3,1.863-1.709.554-2.008a43.6,43.6,0,0,1-21.67-12.166c-6.57-6.846-9.943-16.156-11.613-25.355-1.028-5.668-1.56-11.745.748-17.184.517-1.219-1.277-2.282-1.8-1.051Z"/><path class="af" d="M1083,4590.975a27.289,27.289,0,0,1-6.562-5.314,106.977,106.977,0,0,1-10.6-16.878l24.527-13.794c6.277,13.106,10.4,18.488,12.95,20.814Z"/><path class="m" d="M1269.085,4485.834c-5.465,17.385-13.686,22.608-29.551,18.348,14.645,3.409,22.343-1.771,27.368-17.769,5.506-17.521.96-26.226-16.567-31.728-8.236-2.586-14.524-2.953-19.447-.8,5.305-3.757,12.309-3.859,21.959-.831C1270.375,4458.559,1274.829,4467.551,1269.085,4485.834Z"/><path class="ag" d="M1252.847,4453.054c-9.65-3.028-16.654-2.926-21.959.831-4.331,3.064-7.529,8.564-10.112,16.782-5.744,18.283-1.29,27.275,16.238,32.777q1.29.406,2.52.738c15.865,4.26,24.086-.963,29.551-18.348C1274.829,4467.551,1270.375,4458.559,1252.847,4453.054Z"/><path class="ah" d="M1248.883,4506.216a37.006,37.006,0,0,1-9.511-1.431c-.818-.22-1.674-.47-2.546-.745-9.142-2.869-14.613-6.656-17.218-11.914s-2.419-12.128.571-21.646c2.7-8.585,5.987-14.02,10.349-17.1,5.326-3.772,12.478-4.063,22.506-.917h0c9.142,2.871,14.613,6.658,17.218,11.917s2.419,12.128-.572,21.646c-2.849,9.066-6.389,14.669-11.14,17.634A17.727,17.727,0,0,1,1248.883,4506.216Zm-7.867-54.663a16.351,16.351,0,0,0-9.766,2.842c-4.127,2.919-7.266,8.149-9.878,16.459-2.888,9.192-3.092,15.775-.644,20.717s7.678,8.516,16.473,11.277c.855.269,1.695.515,2.5.73,7.921,2.127,13.7,1.815,18.182-.983s7.855-8.183,10.61-16.948c5.633-17.932,1.343-26.6-15.829-32A39.537,39.537,0,0,0,1241.016,4451.553Z"/><path class="ai" d="M1266.9,4486.413c-5.025,16-12.723,21.178-27.368,17.769q-1.23-.332-2.52-.738c-17.528-5.5-21.982-14.494-16.238-32.777,2.583-8.218,5.781-13.718,10.112-16.782,4.923-2.153,11.211-1.786,19.447.8C1267.862,4460.187,1272.408,4468.892,1266.9,4486.413Z"/><path class="aj" d="M1236.6,4498.4c-7.674-2.41-12.155-5.269-14.1-9s-1.733-9.04.678-16.712,5.271-12.151,9-14.1,9.044-1.732,16.718.678,12.156,5.269,14.1,9,1.732,9.041-.678,16.712-5.271,12.151-9,14.1S1244.275,4500.805,1236.6,4498.4Z"/><path class="l" d="M1230.414,4481.355l-2.433,2.945a5.56,5.56,0,0,1-1.078,1.033,1.9,1.9,0,0,1-1.68-.064,2.131,2.131,0,0,1-1.433-1.223,2.224,2.224,0,0,1-.088-1.379,3.113,3.113,0,0,1,.559-1.042l10.631-13.661q.843-1.085,1.668-1.987a5.625,5.625,0,0,1,1.9-1.374,4.373,4.373,0,0,1,2.8-.049,4.225,4.225,0,0,1,2.256,1.307,4.476,4.476,0,0,1,.949,2.269q.192,1.355.283,3.16l.514,16.812a5.37,5.37,0,0,1-.185,1.39,1.746,1.746,0,0,1-.962,1.031,2.562,2.562,0,0,1-1.781.195,2.071,2.071,0,0,1-1.384-.821,2.421,2.421,0,0,1-.38-1.375l-.093-4.009Zm9.951-1.782.038-9.84c-.022-.341-.045-.593-.071-.756s-.086-.259-.18-.288a.537.537,0,0,0-.416.217l-.342.472-6.1,7.975Z"/><path class="l" d="M1258.571,4472.308l-5.934,18.883a2.362,2.362,0,0,1-1.131,1.325,2.812,2.812,0,0,1-3.636-1.219,2.444,2.444,0,0,1-.157-1.652l5.933-18.883a1.953,1.953,0,0,1,1.18-1.233,2.771,2.771,0,0,1,1.922-.092,2.593,2.593,0,0,1,1.542,1.18A2.007,2.007,0,0,1,1258.571,4472.308Z"/><path class="ak" d="M1226.086,4414.519c-9.226,1.506-15.054,12.828-13.018,25.289-2.036-12.461-11.166-21.341-20.392-19.835,9.226-1.506,15.056-12.83,13.02-25.291C1207.732,4407.143,1216.86,4416.025,1226.086,4414.519Z"/><path class="al" d="M1213.068,4440.12a.311.311,0,0,1-.308-.262c-2.005-12.27-10.994-21.053-20.034-19.576a.312.312,0,0,1-.358-.258.286.286,0,0,1-.005-.051.313.313,0,0,1,.263-.308c4.362-.712,8.092-3.685,10.505-8.372a26.94,26.94,0,0,0,2.256-16.561.293.293,0,0,1,0-.05.313.313,0,0,1,.621-.051,26.953,26.953,0,0,0,7.409,14.984c3.778,3.676,8.26,5.308,12.623,4.6a.313.313,0,0,1,.359.258.289.289,0,0,1,0,.05.314.314,0,0,1-.262.309c-9.041,1.475-14.765,12.659-12.76,24.93a.411.411,0,0,1,0,.05.311.311,0,0,1-.313.312Zm-17.589-20.6c7.253.422,14.015,6.837,16.879,15.942-.183-9.542,4.186-17.774,10.926-20.481a16.194,16.194,0,0,1-10.307-4.917,26.3,26.3,0,0,1-6.567-11.008,26.292,26.292,0,0,1-2.723,12.525A16.188,16.188,0,0,1,1195.479,4419.518Z"/><path class="ak" d="M986.226,4534.947c-9.226,1.506-15.054,12.827-13.018,25.288-2.036-12.461-11.166-21.34-20.392-19.834,9.226-1.506,15.055-12.83,13.02-25.292C967.871,4527.571,977,4536.453,986.226,4534.947Z"/><path class="al" d="M973.208,4560.548a.312.312,0,0,1-.308-.262c-2.005-12.271-10.994-21.054-20.034-19.577a.313.313,0,0,1-.359-.258.44.44,0,0,1,0-.05.314.314,0,0,1,.262-.309c4.362-.712,8.093-3.685,10.506-8.372a26.938,26.938,0,0,0,2.256-16.56.3.3,0,0,1,0-.051.313.313,0,0,1,.621-.05,26.958,26.958,0,0,0,7.408,14.983c3.779,3.676,8.261,5.309,12.624,4.6a.312.312,0,0,1,.359.258.289.289,0,0,1,0,.051.313.313,0,0,1-.262.308c-9.041,1.476-14.765,12.659-12.761,24.93a.294.294,0,0,1,0,.051.311.311,0,0,1-.262.308A.3.3,0,0,1,973.208,4560.548Zm-17.589-20.6c7.253.423,14.015,6.837,16.879,15.942-.183-9.541,4.186-17.773,10.926-20.481a16.19,16.19,0,0,1-10.307-4.916,26.311,26.311,0,0,1-6.567-11.008,26.3,26.3,0,0,1-2.723,12.524A16.187,16.187,0,0,1,955.619,4539.945Z"/><path class="ak" d="M1163.026,4376.911c-6.387.287-11.25,7.513-10.862,16.141-.388-8.628-5.882-15.388-12.269-15.1,6.387-.287,11.251-7.515,10.863-16.142C1151.146,4370.436,1156.639,4377.2,1163.026,4376.911Z"/><path class="al" d="M1152.164,4393.364a.313.313,0,0,1-.312-.3,18.33,18.33,0,0,0-3.815-10.71c-2.254-2.774-5.141-4.226-8.128-4.093a.309.309,0,0,1-.326-.3v-.014a.313.313,0,0,1,.3-.312c6.205-.279,10.945-7.374,10.565-15.816v-.014a.313.313,0,0,1,.625-.014,18.336,18.336,0,0,0,3.815,10.711c2.253,2.773,5.138,4.227,8.127,4.093a.307.307,0,0,1,.326.3v.014a.313.313,0,0,1-.3.312c-6.2.279-10.943,7.374-10.563,15.815v.014a.313.313,0,0,1-.3.312Zm-9.916-15.521a11.327,11.327,0,0,1,6.274,4.119,17.888,17.888,0,0,1,3.48,7.443c.784-6.073,4.184-10.952,8.671-12.386a11.319,11.319,0,0,1-6.273-4.119,17.9,17.9,0,0,1-3.48-7.444C1150.136,4371.529,1146.736,4376.409,1142.248,4377.843Z"/><path class="ag" d="M1213.385,4464.354a18.53,18.53,0,0,1-18.535,18.528h-4.005a18.114,18.114,0,0,0,2-.108,18.528,18.528,0,0,0-2-36.949h4.005A18.532,18.532,0,0,1,1213.385,4464.354Z"/><path class="al" d="M1194.85,4483.195h-4.005a.313.313,0,0,1,0-.625,18.216,18.216,0,0,0,1.969-36.326,17.828,17.828,0,0,0-1.969-.106.313.313,0,0,1,0-.625h4.005a18.841,18.841,0,1,1,0,37.682Zm.921-37.034a18.848,18.848,0,0,1,0,36.386,18.216,18.216,0,0,0,0-36.386Z"/><path class="al" d="M1200.975,4464.132l-9.853-9.847a.313.313,0,0,0-.441,0l-9.851,9.847a.31.31,0,0,0,0,.441l9.851,9.849a.312.312,0,0,0,.441,0l9.853-9.849a.313.313,0,0,0,0-.441Zm-10.074,9.627-9.408-9.407,9.408-9.4,9.411,9.4Z"/><path class="al" d="M1192.881,4445.622a18.507,18.507,0,0,0-2.036-.111,18.841,18.841,0,1,0,0,37.682,18.041,18.041,0,0,0,2.036-.11,18.84,18.84,0,0,0,0-37.461Zm-.067,36.84a17.8,17.8,0,0,1-1.969.107,18.216,18.216,0,1,1,0-36.433,17.793,17.793,0,0,1,1.969.109,18.214,18.214,0,0,1,0,36.217Z"/><path class="ak" d="M1192.814,4446.245a17.793,17.793,0,0,0-1.969-.109,18.216,18.216,0,1,0,0,36.433,17.8,17.8,0,0,0,1.969-.107,18.214,18.214,0,0,0,0-36.217Zm8.161,18.328-9.853,9.849a.312.312,0,0,1-.441,0l-9.851-9.849a.31.31,0,0,1,0-.441l9.851-9.847a.313.313,0,0,1,.441,0l9.853,9.847a.313.313,0,0,1,0,.441Z"/><path class="ag" d="M1192.883,4456.485l-7.871,7.868h-3.96l9.85-9.846Z"/><path class="al" d="M1185.012,4464.666h-3.961a.313.313,0,0,1-.221-.534l9.851-9.846a.313.313,0,0,1,.442,0l1.981,1.978a.314.314,0,0,1,0,.442l-7.871,7.868A.314.314,0,0,1,1185.012,4464.666Zm-3.206-.625h3.076l7.559-7.555-1.539-1.537Z"/><path class="ag" d="M1192.883,4472.221l-1.981,1.98-9.85-9.849h3.96Z"/><path class="al" d="M1190.9,4474.514h0a.313.313,0,0,1-.221-.091l-9.851-9.849a.313.313,0,0,1,.221-.533h3.961a.317.317,0,0,1,.221.091L1193.1,4472a.313.313,0,0,1,0,.442l-1.981,1.981A.317.317,0,0,1,1190.9,4474.514Zm-9.1-9.848,9.1,9.094,1.539-1.539-7.559-7.555Z"/><path class="ag" d="M1035.743,4555.89a18.532,18.532,0,0,1-18.536,18.529h-4a18.218,18.218,0,0,0,2-.109,18.528,18.528,0,0,0,0-36.84,18.1,18.1,0,0,0-2-.109h4A18.534,18.534,0,0,1,1035.743,4555.89Z"/><path class="al" d="M1017.207,4574.731h-4a.313.313,0,0,1,0-.625,18.216,18.216,0,1,0,0-36.432.313.313,0,0,1,0-.625h4a18.841,18.841,0,1,1,0,37.682Zm.921-37.034a18.848,18.848,0,0,1,0,36.386,18.216,18.216,0,0,0,0-36.386Z"/><path class="al" d="M1023.332,4555.668l-9.853-9.847a.316.316,0,0,0-.441,0l-9.851,9.847a.31.31,0,0,0,0,.441l9.851,9.849a.313.313,0,0,0,.441,0l9.853-9.849a.31.31,0,0,0,.091-.22A.316.316,0,0,0,1023.332,4555.668Zm-10.074,9.628-9.408-9.407,9.408-9.4,9.411,9.4Z"/><path class="al" d="M1015.238,4537.158a18.509,18.509,0,0,0-2.036-.11,18.841,18.841,0,1,0,0,37.682,18.154,18.154,0,0,0,2.036-.111,18.84,18.84,0,0,0,0-37.461Zm-.067,36.841a18.217,18.217,0,1,1-1.969-36.327,17.9,17.9,0,0,1,1.969.109,18.215,18.215,0,0,1,0,36.218Z"/><path class="ak" d="M1015.171,4537.781a17.9,17.9,0,0,0-1.969-.109,18.246,18.246,0,1,0,1.969.109Zm8.161,18.328-9.853,9.849a.313.313,0,0,1-.441,0l-9.851-9.849a.31.31,0,0,1,0-.441l9.851-9.847a.316.316,0,0,1,.441,0l9.853,9.847a.316.316,0,0,1,.091.221A.31.31,0,0,1,1023.332,4556.109Z"/><path class="ag" d="M1015.24,4548.021l-7.871,7.868h-3.96l9.85-9.846Z"/><path class="al" d="M1007.369,4556.2h-3.961a.313.313,0,0,1-.22-.534l9.85-9.846a.313.313,0,0,1,.442,0l1.981,1.978a.314.314,0,0,1,.092.221.311.311,0,0,1-.092.221l-7.871,7.868A.312.312,0,0,1,1007.369,4556.2Zm-3.206-.625h3.077l7.558-7.555-1.539-1.537Z"/><path class="ag" d="M1015.24,4563.757l-1.981,1.98-9.85-9.849h3.96Z"/><path class="al" d="M1013.259,4566.05h0a.313.313,0,0,1-.221-.091l-9.85-9.849a.312.312,0,0,1,.22-.533h3.961a.315.315,0,0,1,.221.091l7.871,7.868a.312.312,0,0,1,0,.442l-1.981,1.981A.314.314,0,0,1,1013.259,4566.05Zm-9.1-9.848,9.1,9.094,1.539-1.539-7.558-7.555Z"/><path class="am" d="M1141.722,4567.646a21.351,21.351,0,0,1-9.636,2.586,8.023,8.023,0,0,0,.9-4.109c-.783-7.659-.685-3.1-9.6-7.986s-7.883-11.571-11.633-18.906a11.869,11.869,0,0,0-2.532-3.6c.277-.352.542-.718.792-1.1,3.381-5.192,2.508-8.737,1.712-10.363,8.8.079,30.832,1.724,36.334,15.848C1154.981,4557.772,1146.239,4564.63,1141.722,4567.646Z"/><path class="an" d="M1283.483,4592.616c-3.631,5.362-7.114,14.615-15.613,9.017-.245-1.283-77.2-42.355-85.193-53.6C1182.677,4548.032,1270.81,4594.821,1283.483,4592.616Z"/><path class="ao" d="M1249.241,4625.154c-2.688,5.839-6.767,12.429-10.4,11.258-2.742-.885-4.075-4.754-5.58-5.619.015-.429.034-.668.034-.668s-78.094-54.5-79.071-67.361c0,0,74.837,59.649,95.015,62.39Z"/><path class="h" d="M1130.492,4570.486c-6.366,0-16.4-2.17-22.424-14.375-2.995-6.062-5.305-10.979-6.866-14.613l-.08-.188.186-.084a20.328,20.328,0,0,0,7.75-5.729c.278-.353.541-.719.78-1.086,3.314-5.088,2.488-8.548,1.7-10.158l-.148-.3.337,0c9.143.082,31,1.8,36.527,15.98,3.016,7.741,3.391,14.3,1.117,19.507a19.527,19.527,0,0,1-7.533,8.378h0c-1.683,1.123-5.347,2.369-9.74,2.621C1131.6,4570.469,1131.058,4570.486,1130.492,4570.486Zm-28.826-28.965c1.556,3.608,3.835,8.453,6.775,14.406,6.458,13.074,17.579,14.443,23.633,14.1,4.315-.247,7.9-1.46,9.532-2.552,5.768-3.85,12.691-10.879,6.259-27.386-5.365-13.774-26.571-15.593-35.813-15.712.772,1.8,1.369,5.3-1.865,10.264-.246.378-.516.754-.8,1.117A20.608,20.608,0,0,1,1101.666,4541.521Z"/><path class="ap" d="M1023.211,4427.406c-.11,6.868,9.5,12.591,21.474,12.783s20.926-12.921,21.036-19.789-8.668-4.89-20.637-5.082S1023.321,4420.538,1023.211,4427.406Z"/><path class="h" d="M1044.948,4440.4l-.267,0a31.527,31.527,0,0,1-15.37-3.918c-4.122-2.454-6.363-5.678-6.308-9.077s2.4-6.55,6.6-8.87a31.58,31.58,0,0,1,15.488-3.423c2.46.039,4.835-.014,6.93-.061,6.156-.139,10.6-.239,12.691,1.834a4.592,4.592,0,0,1,1.221,3.52c-.058,3.629-2.519,8.724-6.125,12.679C1057.3,4435.83,1052.062,4440.4,1044.948,4440.4Zm-.486-24.879a30.8,30.8,0,0,0-14.661,3.376c-4.063,2.246-6.33,5.269-6.382,8.513h0c-.052,3.244,2.116,6.338,6.105,8.712a31.1,31.1,0,0,0,15.164,3.859l.26,0c6.955,0,12.09-4.484,14.548-7.181,3.542-3.886,5.96-8.871,6.017-12.4a4.2,4.2,0,0,0-1.1-3.218c-1.962-1.949-6.563-1.845-12.387-1.714-2.1.047-4.479.1-6.947.062Q1044.771,4415.521,1044.462,4415.521Z"/><path class="aq" d="M1029.613,4426.851c.018,5.979,9.815,10.06,17.565,8.426,9.657-2.037,16.049-11.586,16.112-15.487s-6.734-.022-16.542-.936C1034.712,4417.732,1029.6,4422.95,1029.613,4426.851Z"/><path class="ar" d="M1037.41,4426.733c.015,4.8,4.666,7.2,10.886,5.887,7.751-1.634,14.822-9.619,14.872-12.749s-6.787,1.539-14.69,1.413S1037.4,4423.6,1037.41,4426.733Z"/><path class="as" d="M1074.125,4414.609c-.443.129-.885.265-1.325.4a76.091,76.091,0,0,0-11.106,4.459,1.762,1.762,0,0,1-2.55-1.708,57.125,57.125,0,0,1,.944-6.658c.079-.387.16-.774.248-1.158.137-.622.287-1.241.445-1.853a56.4,56.4,0,0,1,1.923-6.021q.341-.9.715-1.776.9-2.146,1.969-4.19a1.744,1.744,0,0,1,1.973-.9,1.726,1.726,0,0,1,1.3,1.281q.534,2.131,1.231,4.2.3.906.637,1.8.8,2.127,1.757,4.186c.266.568.541,1.135.827,1.7q.944,1.852,2.019,3.634A1.759,1.759,0,0,1,1074.125,4414.609Z"/><path class="at" d="M1073.109,4408.372a24.659,24.659,0,0,1-9.44,1.758,30.574,30.574,0,0,1-3.333-.184c.137-.622.287-1.241.445-1.853a24.86,24.86,0,0,0,11.5-1.416C1072.548,4407.245,1072.823,4407.812,1073.109,4408.372Z"/><path class="at" d="M1070.525,4402.491a16.106,16.106,0,0,1-2.989.279,17.457,17.457,0,0,1-4.832-.7q.341-.9.715-1.776a15.228,15.228,0,0,0,6.469.4Q1070.191,4401.6,1070.525,4402.491Z"/><path class="h" d="M1060.9,4419.868a1.968,1.968,0,0,1-1.11-.346,1.929,1.929,0,0,1-.852-1.777,57.781,57.781,0,0,1,.947-6.682c.08-.389.161-.778.249-1.163.131-.592.282-1.218.448-1.859a56.575,56.575,0,0,1,1.93-6.043c.229-.6.47-1.2.717-1.784.593-1.413,1.257-2.828,1.976-4.205a1.953,1.953,0,0,1,2.2-1,1.931,1.931,0,0,1,1.451,1.433c.349,1.394.762,2.8,1.226,4.189.2.588.411,1.191.635,1.791.521,1.394,1.109,2.8,1.75,4.171.284.6.554,1.157.824,1.688.632,1.241,1.309,2.459,2.012,3.621a1.969,1.969,0,0,1,.152,1.743,1.945,1.945,0,0,1-1.274,1.168h0c-.384.112-.8.239-1.321.4a76.188,76.188,0,0,0-11.077,4.446A1.982,1.982,0,0,1,1060.9,4419.868Zm6.051-24.5a1.521,1.521,0,0,0-1.377.833c-.713,1.367-1.373,2.771-1.961,4.174-.245.576-.485,1.171-.712,1.77a56.239,56.239,0,0,0-1.916,6c-.165.637-.314,1.258-.444,1.846-.088.383-.168.769-.247,1.155a56.931,56.931,0,0,0-.94,6.633,1.519,1.519,0,0,0,.67,1.4,1.552,1.552,0,0,0,1.579.1,76.534,76.534,0,0,1,11.137-4.471c.52-.162.943-.29,1.329-.4a1.527,1.527,0,0,0,1-.919,1.549,1.549,0,0,0-.12-1.376c-.708-1.171-1.389-2.4-2.026-3.647-.273-.536-.544-1.093-.83-1.7-.646-1.384-1.239-2.8-1.763-4.2-.226-.6-.442-1.212-.64-1.8-.468-1.4-.883-2.817-1.235-4.221a1.519,1.519,0,0,0-1.142-1.128A1.586,1.586,0,0,0,1066.949,4395.369Z"/><path class="au" d="M1074.125,4414.609c-.443.129-.885.265-1.325.4-1.454-.577-2.425-2.216-4.193-4.881-2.532-3.816-1.319-12.011-1.246-14.922a1.726,1.726,0,0,1,1.3,1.281q.534,2.131,1.231,4.2.3.906.637,1.8.8,2.127,1.757,4.186c.266.568.541,1.135.827,1.7q.944,1.852,2.019,3.634A1.759,1.759,0,0,1,1074.125,4414.609Z"/><path class="s" d="M1176,4478.089c-1.734,36.98-35.32,47.524-76.052,45.619-17.477-.819-33.432-3.8-45.816-9.853-16.473-8.055-26.625-21.559-25.638-42.67.9-19.157,10.613-36.99,25.43-49.465a76.174,76.174,0,0,1,15.692-10.213,74.071,74.071,0,0,1,32.151-7.528q1.881-.009,3.783.079c.24.01.475.023.715.035a74.146,74.146,0,0,1,37.473,12.737,75.946,75.946,0,0,1,19.859,19.653A67.855,67.855,0,0,1,1176,4478.089Z"/><path class="r" d="M1163.595,4436.483c-2.748,4.453-3.8,9.6-7.5,13.852a8.455,8.455,0,0,1-8.81,2.93,74.483,74.483,0,0,0-1.438-7.879c-4.731-19.632-25.453-32.6-39.367-39.26a17.855,17.855,0,0,0-.219-2.033,74.146,74.146,0,0,1,37.473,12.737A75.946,75.946,0,0,1,1163.595,4436.483Z"/><path class="p" d="M1176,4478.089c-1.734,36.98-35.32,47.524-76.052,45.619-17.477-.819-33.432-3.8-45.816-9.853l-.05-.373s24.9,10.644,58.372,5.469c30.276-4.68,34.41-40.12,34.835-65.686a8.455,8.455,0,0,0,8.81-2.93c3.7-4.255,4.75-9.4,7.5-13.852A67.855,67.855,0,0,1,1176,4478.089Z"/><path class="av" d="M1119.367,4492.342v0q-.1,1.018-.25,2.037c-3.354,22.977-15.44,26.305-37.3,23.916h0c-2.508-.275-5.141-.622-7.906-1.026a87.632,87.632,0,0,1-17.132-4.145h0a46.244,46.244,0,0,1-16.84-10.023c-6.91-6.783-10.306-16.019-8.542-28.125.065-.427.129-.85.2-1.269,1.4-8.463,4.279-15.608,8.517-21.192.1-.139.211-.279.321-.418,8.2-10.492,21.3-15.291,38.482-12.7a45.555,45.555,0,0,1,4.733.977C1106.2,4446.3,1121.724,4469.03,1119.367,4492.342Z"/><path class="aw" d="M1119.367,4492.342v0q-.1,1.018-.25,2.037c-3.354,22.977-15.44,26.305-37.3,23.916h0a21.718,21.718,0,0,1-3.606-5.162c17.8-3.57,19.48-17.146,20.405-24.737a15.447,15.447,0,0,0-.123-6.038c.358-.016.716-.025,1.079-.025A24.011,24.011,0,0,1,1119.367,4492.342Z"/><path class="l" d="M1147.287,4453.265c-6.321-1.383-13.182-7.889-18.586-10.115-8.105-3.339-23.334,7.5-29.361-1.779s2.581-15.444,5.194-21.713c1.631-3.915,2.168-9.7,1.948-13.532,13.914,6.664,34.636,19.628,39.367,39.26A74.483,74.483,0,0,1,1147.287,4453.265Z"/><path class="ax" d="M1046.452,4489.678a16.521,16.521,0,0,1-6.519,13.424c-6.912-6.783-10.308-16.019-8.542-28.125.063-.427.127-.85.2-1.269.2-.01.4-.014.6-.014C1040.067,4473.694,1046.452,4480.85,1046.452,4489.678Z"/><path class="h" d="M1108.818,4524.128q-4.312,0-8.883-.213c-22.284-1.044-39.7-5.465-51.753-13.141-14.016-8.925-20.711-22.248-19.9-39.6.873-18.62,10.169-36.7,25.5-49.615a76.408,76.408,0,0,1,15.737-10.241,74.558,74.558,0,0,1,36.035-7.47c.219.009.438.021.657.032l.057,0a74.553,74.553,0,0,1,37.582,12.773,75.758,75.758,0,0,1,19.911,19.707,71.46,71.46,0,0,1,9.657,19.877,64.673,64.673,0,0,1,2.782,21.857h0c-.814,17.351-8.725,29.991-23.515,37.567C1141.708,4521.291,1126.978,4524.128,1108.818,4524.128Zm-6.662-119.942a74.279,74.279,0,0,0-32.45,7.508,76,76,0,0,0-15.651,10.184c-15.246,12.837-24.488,30.812-25.356,49.316-.8,17.192,5.826,30.39,19.707,39.228,11.995,7.637,29.338,12.037,51.549,13.077s39.889-1.722,52.545-8.205c14.647-7.5,22.483-20.024,23.288-37.216.667-14.251-3.725-28.981-12.365-41.477a75.334,75.334,0,0,0-19.8-19.6,74.12,74.12,0,0,0-37.371-12.7l-.056,0-.654-.032Q1103.849,4404.185,1102.156,4404.186Z"/><path class="aa" d="M1119.367,4492.342a24.011,24.011,0,0,0-19.8-10.007c-.363,0-.721.009-1.079.025-1.473-5.094-8.042-7.316-28.478-11.745-24.565-5.325-29.253-16.144-29.907-18.1-.069-.2-.094-.306-.094-.306s.144-.04.415-.112c3.358-.913,26.425-7.181,43.215-11.721C1106.2,4446.3,1121.724,4469.03,1119.367,4492.342Z"/><path class="h" d="M1092.321,4519.165a97.839,97.839,0,0,1-10.516-.66h-.013c-2.373-.26-4.962-.6-7.914-1.027a87.959,87.959,0,0,1-17.138-4.143l-.039-.012c-7-2.535-12.692-5.924-16.915-10.071-7.388-7.251-10.282-16.774-8.6-28.3.065-.429.13-.853.2-1.272,1.407-8.5,4.286-15.658,8.556-21.285.1-.138.211-.28.324-.422,8.508-10.891,21.882-15.308,38.676-12.774a45.886,45.886,0,0,1,4.755.981,48.175,48.175,0,0,1,27.325,19.545,49.137,49.137,0,0,1,8.557,32.632v.012c-.069.678-.154,1.366-.251,2.046C1116.513,4513.665,1107.566,4519.165,1092.321,4519.165Zm-10.495-1.076h.013c12.331,1.347,19.948.624,25.467-2.421,6.3-3.477,9.99-10.25,11.6-21.318.1-.67.18-1.349.248-2.017v-.013c2.341-23.164-13.284-45.892-35.571-51.742a45.494,45.494,0,0,0-4.712-.972c-16.637-2.511-29.876,1.853-38.287,12.62q-.165.207-.317.413c-4.231,5.575-7.083,12.674-8.479,21.1-.069.418-.133.84-.2,1.266-1.66,11.389,1.194,20.792,8.482,27.945a45.988,45.988,0,0,0,16.731,9.964l.038.012a87.577,87.577,0,0,0,17.091,4.135C1076.881,4517.5,1079.461,4517.83,1081.826,4518.089Z"/><path class="ay" d="M1114.9,4452.218c-1.1,8.876-12.351,15.182-27.259,16.4a69.568,69.568,0,0,1-14.169-.34c-21.449-2.661-37.674-14.166-36.243-25.7.956-7.7,9.55-13.468,21.544-15.652a66.4,66.4,0,0,1,19.884-.406C1100.107,4429.183,1116.333,4440.687,1114.9,4452.218Z"/><path class="aj" d="M1109.187,4452.964c-.956,7.7-9.55,13.468-21.544,15.653a69.568,69.568,0,0,1-14.169-.34c-21.449-2.661-37.674-14.166-36.243-25.7.956-7.7,9.55-13.468,21.544-15.652a69.459,69.459,0,0,1,14.169.339C1094.393,4429.929,1110.62,4441.433,1109.187,4452.964Z"/><path class="h" d="M1082.3,4469.04a72.064,72.064,0,0,1-8.855-.556c-10.407-1.292-19.923-4.686-26.8-9.559-6.911-4.9-10.33-10.714-9.628-16.37.469-3.778,2.793-7.25,6.719-10.04a37.786,37.786,0,0,1,14.995-5.792,66.939,66.939,0,0,1,19.947-.408c10.407,1.291,19.923,4.686,26.8,9.559,6.91,4.9,10.329,10.713,9.627,16.37h0c-.542,4.364-3.5,8.246-8.553,11.225-4.91,2.9-11.444,4.747-18.9,5.355C1085.9,4468.968,1084.112,4469.04,1082.3,4469.04Zm-12.47-42.86a61.7,61.7,0,0,0-11.02.953c-12.278,2.236-20.468,8.165-21.375,15.473-1.415,11.4,14.762,22.821,36.061,25.465a69.222,69.222,0,0,0,14.126.338c7.389-.6,13.862-2.435,18.719-5.3,4.938-2.912,7.825-6.687,8.351-10.918,1.415-11.4-14.763-22.822-36.062-25.465A71.681,71.681,0,0,0,1069.833,4426.18Z"/><path class="as" d="M1166.409,4411.91v.1q0,1.768-.115,3.507-.069,1.128-.183,2.241a56.644,56.644,0,0,1-1.869,9.722c-.2.683-.4,1.362-.623,2.032q-.363,1.113-.771,2.2a6.919,6.919,0,0,1-5.3,4.41,14.408,14.408,0,0,1-1.692.192,14.925,14.925,0,0,1-15.613-13.2,14.355,14.355,0,0,1-.089-1.558v-.173a3.985,3.985,0,0,1,1.742-3.234q1.237-.856,2.429-1.775,1.007-.773,1.973-1.593,1.69-1.421,3.262-2.98c.494-.483.98-.981,1.452-1.487q1.651-1.745,3.144-3.63c.138-.173.273-.345.407-.518q.658-.85,1.285-1.725a56.5,56.5,0,0,0,4.183-6.806,2.536,2.536,0,0,1,4.713.575,56.566,56.566,0,0,1,1.2,6.39c.094.7.171,1.412.235,2.126Q1166.407,4409.292,1166.409,4411.91Z"/><path class="at" d="M1164.242,4427.482c-.2.683-.4,1.362-.623,2.032a16.72,16.72,0,0,1-3.194-.464,33.511,33.511,0,0,1-8.24-3.024c-3.841-2.035-7.289-5.365-7.862-9.645q1.007-.773,1.973-1.593c-.3,4.313,3.435,7.581,6.942,9.439a30.88,30.88,0,0,0,6.812,2.59A14.13,14.13,0,0,0,1164.242,4427.482Z"/><path class="at" d="M1166.294,4415.519q-.069,1.128-.183,2.241a14,14,0,0,1-8.53-.668c-2.806-1.087-6.118-2.745-8.023-5.284.494-.483.98-.981,1.452-1.487a9.736,9.736,0,0,0,2.819,2.485,23.71,23.71,0,0,0,4.65,2.407A11.552,11.552,0,0,0,1166.294,4415.519Z"/><path class="at" d="M1166.175,4406.733a16.11,16.11,0,0,1-11.614-.56q.658-.85,1.285-1.725a13.99,13.99,0,0,0,10.094.159C1166.034,4405.311,1166.111,4406.019,1166.175,4406.733Z"/><path class="h" d="M1155.007,4436.553a15.142,15.142,0,0,1-14.973-13.41,14.562,14.562,0,0,1-.09-1.579v-.174a4.2,4.2,0,0,1,1.831-3.405c.825-.571,1.639-1.166,2.42-1.768.674-.519,1.335-1.053,1.966-1.588,1.1-.927,2.2-1.926,3.251-2.969.485-.475.971-.973,1.446-1.481,1.091-1.155,2.145-2.371,3.133-3.617.137-.172.272-.345.405-.517.446-.575.877-1.153,1.28-1.718a56.672,56.672,0,0,0,4.169-6.781,2.743,2.743,0,0,1,5.1.621,57.106,57.106,0,0,1,1.2,6.413c.09.682.168,1.38.236,2.134.155,1.719.234,3.467.234,5.2v.1c0,1.19-.041,2.375-.115,3.521-.044.718-.106,1.475-.184,2.248a57,57,0,0,1-1.876,9.758c-.21.734-.415,1.4-.625,2.04-.234.717-.494,1.461-.773,2.211a7.162,7.162,0,0,1-5.462,4.543,14.691,14.691,0,0,1-1.716.195C1155.579,4436.544,1155.292,4436.553,1155.007,4436.553Zm7.257-40.066a2.261,2.261,0,0,0-2.05,1.252,56.99,56.99,0,0,1-4.2,6.831c-.406.569-.84,1.151-1.29,1.73-.134.174-.269.347-.408.521-.995,1.255-2.057,2.481-3.155,3.643-.479.512-.969,1.015-1.458,1.493-1.061,1.05-2.163,2.057-3.274,2.991-.635.538-1.3,1.076-1.98,1.6-.787.607-1.607,1.206-2.438,1.781a3.782,3.782,0,0,0-1.652,3.065v.171a14.274,14.274,0,0,0,.088,1.534,14.638,14.638,0,0,0,15.4,13.015,14.285,14.285,0,0,0,1.668-.189,6.743,6.743,0,0,0,5.142-4.278c.277-.745.536-1.483.768-2.195.209-.634.412-1.3.621-2.026a56.528,56.528,0,0,0,1.861-9.685c.078-.767.14-1.519.183-2.232.074-1.139.112-2.314.114-3.495v-.1c0-1.716-.078-3.452-.232-5.158-.068-.749-.145-1.441-.235-2.118a56.744,56.744,0,0,0-1.193-6.367,2.314,2.314,0,0,0-1.643-1.7A2.447,2.447,0,0,0,1162.264,4396.487Z"/><path class="au" d="M1166.409,4411.91v.1q0,1.768-.115,3.507-.069,1.128-.183,2.241a56.644,56.644,0,0,1-1.869,9.722c-.2.683-.4,1.362-.623,2.032q-.363,1.113-.771,2.2a6.919,6.919,0,0,1-5.3,4.41,14.408,14.408,0,0,1-1.692.192,14.925,14.925,0,0,1-15.613-13.2c2.857,2.632,3.882,4.775,12.742,3.592,7.88-1.052,9.628-23.783,9.969-30.343a2.508,2.508,0,0,1,1.79,1.847,56.566,56.566,0,0,1,1.2,6.39c.094.7.171,1.412.235,2.126Q1166.407,4409.292,1166.409,4411.91Z"/><path class="az" d="M1201.278,4454.016c-1.146,8.954-14.5,14.624-29.827,12.664s-24.312-20.671-23.166-29.625,11.989-4.76,27.316-2.8S1202.424,4445.062,1201.278,4454.016Z"/><path class="h" d="M1177.488,4467.278a47.871,47.871,0,0,1-6.063-.391c-15.442-1.975-24.505-20.807-23.347-29.858a6.016,6.016,0,0,1,2.233-4.336c3.046-2.26,8.971-1.265,16.472,0,2.668.448,5.692.956,8.844,1.359,7.449.952,14.238,3.545,19.117,7.3,4.91,3.779,7.3,8.287,6.74,12.694l-.206-.026.206.026c-.564,4.408-4.016,8.169-9.72,10.591A36.886,36.886,0,0,1,1177.488,4467.278Zm-21.708-35.518a8.713,8.713,0,0,0-5.221,1.267,5.623,5.623,0,0,0-2.067,4.055c-1.14,8.909,7.782,27.448,22.986,29.392,7.376.943,14.523.153,20.123-2.225,5.562-2.362,8.926-6,9.47-10.259s-1.793-8.627-6.582-12.313c-4.82-3.71-11.538-6.273-18.915-7.216-3.16-.4-6.188-.913-8.86-1.362A72.949,72.949,0,0,0,1155.78,4431.76Z"/><path class="ba" d="M1193.2,4452.111c-1.143,7.775-14.422,11.275-24.017,7.719-11.955-4.432-18.331-18.034-17.68-23.119s8.606,1.214,21.307,1.835C1188.4,4439.309,1193.949,4447.039,1193.2,4452.111Z"/><path class="bb" d="M1183.265,4450.519c-.918,6.24-7.309,8.5-15.01,5.648-9.595-3.556-17.132-15.248-16.609-19.329s8.381,3.256,18.5,4.55S1183.863,4446.448,1183.265,4450.519Z"/><path class="bc" d="M1061.635,4441.512a5.382,5.382,0,0,0-2.185-1.593c-3.017-1.186-6.524.551-7.837,3.881a6.9,6.9,0,0,0-.391,3.754,6.57,6.57,0,0,1-.9-6.588c1.312-3.33,4.819-5.067,7.836-3.881A5.731,5.731,0,0,1,1061.635,4441.512Z"/><path class="g" d="M1061.244,4445.266c-1.311,3.33-4.821,5.066-7.835,3.881a5.378,5.378,0,0,1-2.187-1.593,6.9,6.9,0,0,1,.391-3.754c1.313-3.33,4.82-5.067,7.837-3.881a5.382,5.382,0,0,1,2.185,1.593A6.916,6.916,0,0,1,1061.244,4445.266Z"/><path class="bc" d="M1091.572,4446.169a5.379,5.379,0,0,0-2.185-1.592c-3.017-1.186-6.524.55-7.837,3.88a6.9,6.9,0,0,0-.391,3.755,6.57,6.57,0,0,1-.9-6.588c1.312-3.331,4.819-5.067,7.836-3.881A5.727,5.727,0,0,1,1091.572,4446.169Z"/><path class="g" d="M1091.181,4449.923c-1.311,3.331-4.82,5.067-7.835,3.881a5.386,5.386,0,0,1-2.187-1.592,6.9,6.9,0,0,1,.391-3.755c1.313-3.33,4.82-5.066,7.837-3.88a5.379,5.379,0,0,1,2.185,1.592A6.916,6.916,0,0,1,1091.181,4449.923Z"/><path class="ax" d="M1098.613,4488.4c-.925,7.591-2.607,21.167-20.405,24.737a20.3,20.3,0,0,1-2.14-9.072c0-11.665,9.942-21.184,22.422-21.7A15.447,15.447,0,0,1,1098.613,4488.4Z"/><path class="bd" d="M1106.482,4406.126c-1.686-.808-3.271-1.525-4.717-2.147q1.881-.009,3.783.079c.24.01.475.023.715.035A17.855,17.855,0,0,1,1106.482,4406.126Z"/><path d="M1072.919,4421.771l-.066,0a1.042,1.042,0,0,1-.975-1.1c.005-.1.111-2.63-2.03-3.389-2.049-.726-3.924,2.487-3.942,2.52a1.042,1.042,0,0,1-1.817-1.019c.11-.2,2.735-4.782,6.455-3.464a5.464,5.464,0,0,1,3.413,5.481A1.041,1.041,0,0,1,1072.919,4421.771Z"/><path class="af" d="M1120.415,4432.539a1.043,1.043,0,0,1-.994-1.355c.03-.1.743-2.526-1.152-3.779-1.814-1.2-4.408,1.468-4.434,1.5a1.042,1.042,0,0,1-1.517-1.428c.154-.163,3.81-3.98,7.1-1.805a5.465,5.465,0,0,1,1.99,6.143A1.042,1.042,0,0,1,1120.415,4432.539Z"/><path class="be" d="M1042.6,4473.91a1.042,1.042,0,0,1-.047-2.082l5.91-.272-4.65-6.232a1.042,1.042,0,0,1,1.67-1.246l5.823,7.8a1.041,1.041,0,0,1-.787,1.663l-7.87.363Z"/><path class="be" d="M1084.084,4484.361a1.042,1.042,0,0,1-.616-.2l-6.353-4.658a1.041,1.041,0,0,1,.266-1.82l9.172-3.276a1.042,1.042,0,1,1,.7,1.961l-7.325,2.616,4.771,3.5a1.042,1.042,0,0,1-.617,1.881Z"/><path class="bf" d="M1066.351,4486.461c0,4.636-2.065,8.393-4.611,8.393a2.849,2.849,0,0,1-1.575-.5v0c-1.771-1.171-3.037-4.261-3.037-7.891,0-4.636,2.064-8.4,4.612-8.4,1.431,0,2.711,1.189,3.557,3.053l0,0A13.174,13.174,0,0,1,1066.351,4486.461Z"/><path class="bg" d="M1066.351,4486.461c0,4.636-2.065,8.393-4.611,8.393a2.849,2.849,0,0,1-1.575-.5v0a13.171,13.171,0,0,1-1.052-5.34c0-4.636,2.065-8.393,4.613-8.393a2.838,2.838,0,0,1,1.571.5l0,0A13.174,13.174,0,0,1,1066.351,4486.461Z"/><path class="v" d="M1095.417,4529.1s-2.435,7.156-7.506,7.267-14.347-11.641-5.1-21.788,18.751-2.543,23.143,4.05c3.5,5.25,1.642,9.272,1.642,9.272s-2.468,7.023-5.911,9.348-7.893-.064-9.451-4.291"/><path class="h" d="M1098.773,4538.365a5.719,5.719,0,0,1-1.435-.187,7.873,7.873,0,0,1-4.744-3.924,6.644,6.644,0,0,1-4.678,2.319h-.079c-2.684,0-6.14-3-7.9-6.876-2.368-5.2-1.375-10.765,2.723-15.262,3.265-3.583,6.812-5.258,10.556-4.973,6.731.51,11.586,7.054,12.914,9.047,3.522,5.287,1.736,9.306,1.658,9.475-.094.271-2.523,7.1-5.984,9.434A5.357,5.357,0,0,1,1098.773,4538.365Zm-5.882-4.44a7.482,7.482,0,0,0,4.551,3.85,4.961,4.961,0,0,0,4.125-.7c3.346-2.259,5.807-9.175,5.831-9.244s1.767-4.006-1.618-9.088c-1.3-1.954-6.057-8.367-12.6-8.863-3.605-.272-7.041,1.355-10.215,4.838-3.981,4.369-4.948,9.767-2.653,14.81,1.917,4.213,5.37,6.687,7.595,6.63,4.868-.107,7.289-7.056,7.313-7.126a.208.208,0,0,1,.394.134A15.9,15.9,0,0,1,1092.891,4533.925Z"/><circle class="q" cx="3.819" cy="3.819" r="3.819" transform="translate(1079.682 4565.345)"/><path class="q" d="M1100.061,4578.232l-14.383,10.742-.24-.2s-4.352-4.3-4.529-7.67.769-5.589,3.073-6.352c.246-.081.483-.149.71-.21l4.79,1.945-.685-3.944a2.858,2.858,0,0,1,4.283-.5c1.958,1.6,4.8,5.831,6.258,6.04Z"/></g></g></svg>