<?xml version="1.0" standalone="no"?>
<!DOCTYPE svg PUBLIC "-//W3C//DTD SVG 20010904//EN"
 "http://www.w3.org/TR/2001/REC-SVG-20010904/DTD/svg10.dtd">
<svg version="1.0" xmlns="http://www.w3.org/2000/svg"
 width="1080.000000pt" height="1080.000000pt" viewBox="0 0 1080.000000 1080.000000"
 preserveAspectRatio="xMidYMid meet">

<g transform="translate(0.000000,1080.000000) scale(0.100000,-0.100000)"
fill="#000000" stroke="none">
<path d="M5768 10793 c6 -2 18 -2 25 0 6 3 1 5 -13 5 -14 0 -19 -2 -12 -5z"/>
<path d="M5865 10790 c65 -11 113 -12 98 -2 -6 4 -42 8 -80 9 -68 1 -68 1 -18
-7z"/>
<path d="M6458 10775 c-16 -13 -28 -29 -28 -35 0 -6 -12 -15 -26 -21 -26 -9
-26 -10 -9 -29 14 -15 21 -17 41 -8 14 7 24 20 24 31 0 11 7 28 16 38 9 10 14
24 12 33 -2 12 -9 10 -30 -9z"/>
<path d="M7376 10708 c-24 -51 -54 -115 -66 -143 -33 -73 -78 -172 -110 -240
-125 -266 -143 -341 -144 -596 l-1 -176 39 -76 c41 -82 69 -116 81 -97 4 6
-12 49 -35 94 -47 96 -56 150 -45 282 9 108 19 90 29 -53 14 -202 24 -154 22
114 l-1 271 30 32 c38 39 109 73 212 99 105 27 123 27 123 0 0 -12 -16 -72
-35 -135 -29 -90 -35 -127 -33 -176 2 -50 6 -63 20 -66 15 -3 17 2 12 40 -6
43 2 84 47 238 33 116 35 136 10 150 -35 18 -208 -19 -278 -60 -38 -22 -63
-26 -63 -8 0 6 11 35 25 65 14 29 36 77 49 106 13 28 39 86 58 127 19 41 45
102 57 135 13 33 34 81 47 107 28 56 29 58 9 58 -8 0 -33 -38 -59 -92z"/>
<path d="M8370 10796 c0 -3 9 -67 20 -143 10 -76 26 -192 35 -258 50 -393 65
-497 70 -505 3 -6 13 -10 22 -10 12 0 14 7 10 33 -3 17 -22 156 -42 307 -20
151 -40 302 -45 335 -4 33 -14 102 -21 153 -11 78 -15 92 -31 92 -10 0 -18 -2
-18 -4z"/>
<path d="M8436 10773 c4 -16 11 -36 15 -45 5 -9 16 -43 25 -75 9 -32 22 -80
30 -106 16 -59 48 -240 64 -362 6 -49 15 -121 20 -160 5 -38 15 -118 21 -177
7 -60 16 -108 20 -108 14 0 10 95 -6 195 -14 87 -20 204 -10 193 7 -7 57 -194
90 -338 44 -191 91 -357 109 -381 l16 -23 0 25 c0 23 -125 533 -234 952 -29
112 -76 373 -76 425 0 6 -4 12 -9 12 -6 0 -11 -19 -13 -42 l-3 -43 -19 43
c-23 48 -50 59 -40 15z"/>
<path d="M8680 10791 c0 -5 16 -53 36 -107 106 -290 166 -473 162 -497 -3 -19
-9 -14 -48 36 -51 66 -116 139 -104 117 4 -8 29 -41 54 -73 100 -130 169 -270
203 -417 42 -181 48 -213 40 -221 -16 -16 -156 176 -206 284 -14 31 -28 57
-31 57 -7 0 6 -44 22 -68 11 -17 12 -25 2 -37 -10 -12 -8 -18 6 -32 23 -23 85
-157 118 -253 69 -203 86 -240 86 -182 0 31 14 44 22 21 2 -7 9 -10 16 -8 9 3
7 11 -5 29 -27 37 -71 153 -65 168 3 9 16 -3 36 -34 62 -97 108 -154 124 -154
10 0 27 -3 40 -6 22 -6 23 -5 17 47 l-7 54 21 -30 c12 -16 21 -33 21 -37 0 -4
13 -36 29 -70 68 -151 79 -174 86 -198 4 -14 18 -48 31 -77 27 -61 44 -160 25
-148 -11 6 -35 54 -62 124 -5 13 -12 21 -15 18 -7 -6 16 -88 60 -212 20 -55
36 -110 36 -122 0 -12 7 -29 16 -37 17 -18 21 -29 70 -215 70 -265 109 -505
135 -818 11 -137 10 -177 -6 -161 -6 6 -20 70 -46 218 -21 117 -37 165 -25 75
3 -27 8 -59 10 -70 40 -194 115 -827 132 -1109 3 -63 10 -103 14 -96 14 23 37
-6 56 -68 21 -74 14 -331 -15 -547 -23 -165 -26 -242 -11 -265 8 -12 10 -10
10 8 0 13 4 21 8 18 4 -2 2 -49 -4 -103 -7 -54 -18 -237 -23 -408 -12 -345
-25 -556 -46 -750 -14 -127 -23 -296 -46 -850 -21 -506 3 -883 81 -1240 6 -27
22 -113 35 -191 24 -141 74 -347 102 -417 18 -43 38 -50 29 -9 -5 22 -33 166
-52 262 -2 14 -11 59 -20 100 -8 41 -26 137 -39 213 -13 76 -29 144 -35 152
-21 25 -39 151 -45 315 -11 303 -19 743 -17 960 5 441 46 1118 82 1350 5 36
10 97 10 136 0 39 7 140 16 225 9 85 17 168 18 184 1 17 3 44 5 60 l3 30 9
-30 c5 -16 7 -51 4 -76 -3 -25 1 -119 10 -209 16 -177 13 -223 -17 -287 -43
-92 -49 -159 -44 -483 3 -168 10 -343 15 -390 6 -47 15 -128 21 -180 6 -52 20
-140 32 -195 11 -55 22 -111 24 -125 3 -14 9 -52 15 -85 14 -80 75 -329 106
-429 13 -45 31 -106 39 -136 8 -30 28 -98 45 -151 16 -53 36 -133 44 -177 7
-44 19 -99 25 -121 7 -26 7 -47 2 -57 -10 -18 3 -95 18 -104 4 -3 10 -16 13
-30 3 -14 3 13 0 59 -3 65 -1 87 11 100 13 14 13 24 2 72 -7 30 -15 60 -19 65
-14 23 -77 286 -94 394 -13 81 -19 104 -21 78 -4 -42 -17 -50 -25 -15 -3 12
-19 74 -36 137 -145 536 -219 1114 -192 1500 12 174 28 260 48 260 7 0 14 -8
14 -17 1 -10 3 -28 4 -41 11 -105 17 -178 35 -387 11 -132 22 -251 25 -265 6
-35 12 -91 26 -260 6 -80 13 -147 15 -149 10 -11 3 214 -11 328 -8 69 -21 232
-30 361 -8 129 -27 379 -41 555 -20 243 -27 394 -28 625 -1 291 4 360 23 360
20 0 71 -177 81 -280 6 -58 21 -197 34 -310 14 -113 34 -297 46 -410 12 -113
30 -286 41 -385 10 -99 21 -223 24 -275 10 -167 34 -441 50 -565 8 -66 22
-176 31 -245 53 -425 90 -642 154 -900 10 -41 26 -111 35 -155 12 -54 20 -74
24 -61 10 25 -11 195 -27 220 -3 6 -10 36 -14 66 -4 30 -18 127 -32 215 -42
265 -64 416 -70 485 -4 36 -18 135 -31 220 -13 85 -29 209 -35 275 -23 255
-51 527 -70 690 -11 94 -26 235 -35 315 -8 80 -17 156 -19 170 -3 14 -14 95
-26 180 -11 85 -28 205 -37 265 -22 149 -27 215 -15 215 8 0 62 -100 62 -116
0 -3 11 -30 26 -61 14 -31 57 -130 95 -222 38 -91 75 -168 80 -172 6 -3 10
-10 10 -15 -2 -17 21 -78 81 -219 33 -77 69 -165 80 -195 11 -30 28 -73 38
-95 11 -22 38 -94 60 -160 23 -66 45 -129 50 -140 5 -11 18 -51 29 -90 11 -38
34 -115 51 -170 17 -55 37 -122 45 -150 8 -27 30 -106 49 -175 l35 -125 -3
125 c-3 128 -2 123 -81 395 -8 28 -26 93 -39 145 -14 52 -32 113 -40 135 -7
22 -21 67 -30 100 -9 33 -50 179 -92 325 -111 386 -123 428 -145 505 -10 39
-37 126 -58 195 -78 250 -110 357 -136 450 -15 52 -35 118 -45 145 -10 28 -35
104 -55 170 -20 66 -55 174 -77 240 -61 184 -78 267 -78 380 0 235 -36 635
-69 761 -18 71 -49 140 -37 83 10 -47 45 -341 56 -464 14 -169 13 -332 -2
-317 -18 18 -36 121 -58 332 -11 107 -27 229 -35 270 -7 41 -19 109 -25 150
-17 110 -68 355 -90 430 -10 36 -33 115 -50 175 -17 61 -34 117 -37 125 -55
151 -87 246 -99 295 -20 82 -52 166 -68 179 -8 6 -34 57 -60 113 -25 56 -77
167 -115 246 -83 171 -106 241 -153 467 -10 52 -33 145 -50 205 -17 61 -31
115 -33 120 -10 51 -79 269 -122 388 -31 85 -38 97 -59 97 l-24 0 21 -52 c11
-29 34 -96 50 -148 16 -52 36 -115 45 -140 31 -86 127 -447 138 -517 4 -26 2
-43 -4 -43 -19 0 -62 105 -151 373 -50 149 -98 290 -108 312 -9 22 -30 79 -46
128 -17 48 -35 87 -42 87 -7 0 -13 -4 -13 -9z m398 -1034 c30 -79 75 -275 68
-293 -5 -14 -8 -14 -21 0 -8 8 -15 18 -15 22 0 4 -6 15 -14 23 -8 9 -21 52
-30 96 -9 44 -21 103 -27 130 -5 28 -12 66 -14 85 l-4 35 19 -23 c10 -13 28
-46 38 -75z m-61 -309 c-3 -7 -5 -2 -5 12 0 14 2 19 5 13 2 -7 2 -19 0 -25z
m476 -630 c16 -45 52 -158 86 -268 31 -99 89 -337 100 -411 6 -37 8 -81 4 -99
l-6 -33 -12 24 c-7 13 -18 62 -24 109 -23 158 -97 451 -145 575 -28 71 -42
145 -28 145 6 0 17 -19 25 -42z m221 -865 c11 -38 36 -203 42 -278 5 -60 4
-77 -5 -69 -15 14 -60 260 -61 337 0 30 16 37 24 10z m17 -390 c22 -57 60
-248 69 -346 11 -110 15 -651 5 -667 -9 -14 -41 23 -54 62 -6 20 -11 76 -10
126 1 49 -2 95 -6 102 -4 6 -1 17 5 25 9 11 10 38 1 112 -21 183 -39 613 -26
613 3 0 10 -12 16 -27z m147 -598 c5 -112 -6 -236 -19 -214 -4 9 -8 78 -9 155
-1 191 -2 180 12 166 7 -7 14 -52 16 -107z m66 -142 c24 -87 59 -203 67 -222
6 -14 28 -86 51 -160 22 -75 51 -170 63 -211 60 -193 131 -428 171 -565 52
-177 98 -327 125 -410 10 -33 19 -66 19 -73 0 -8 6 -28 14 -45 8 -18 19 -52
25 -77 5 -25 19 -79 30 -120 23 -84 24 -90 14 -90 -5 0 -16 21 -27 48 -10 26
-24 61 -31 77 -8 17 -29 68 -48 115 -19 47 -54 130 -77 185 -48 115 -72 172
-128 305 -21 52 -58 138 -82 190 -93 208 -111 249 -125 290 -8 24 -19 48 -24
54 -5 6 -18 34 -29 61 -69 174 -64 135 -52 369 6 116 13 230 16 254 5 43 19
55 28 25z"/>
<path d="M5498 10783 c7 -3 16 -2 19 1 4 3 -2 6 -13 5 -11 0 -14 -3 -6 -6z"/>
<path d="M5997 10783 c-3 -4 16 -9 41 -11 25 -1 44 -1 41 1 -10 9 -78 17 -82
10z"/>
<path d="M6162 10735 c14 -14 205 -25 201 -12 -2 4 -3 12 -3 17 0 7 -38 10
-106 9 -87 -1 -104 -4 -92 -14z"/>
<path d="M5280 10715 c-14 -8 -20 -14 -15 -14 6 0 21 6 35 14 14 8 21 14 15
14 -5 0 -21 -6 -35 -14z"/>
<path d="M4965 10671 c-81 -32 -209 -100 -279 -148 -26 -18 -53 -33 -58 -33
-6 0 -24 -6 -41 -14 -18 -8 -59 -24 -92 -34 -78 -25 -416 -162 -433 -175 -23
-18 -10 -51 23 -58 24 -4 54 7 145 54 63 32 120 63 126 68 6 5 60 27 120 50
60 22 147 65 194 94 175 109 235 135 345 146 69 8 110 17 134 32 l34 21 -59
12 c-80 17 -79 17 -159 -15z"/>
<path d="M6345 10587 c-16 -17 -29 -36 -27 -40 1 -4 -5 -21 -13 -37 -9 -17
-12 -30 -8 -30 5 0 1 -4 -7 -10 -8 -5 -11 -12 -8 -16 4 -4 15 8 25 26 10 18
27 44 39 59 17 22 41 81 32 81 -2 0 -16 -15 -33 -33z"/>
<path d="M5943 10573 c-29 -2 -53 -9 -53 -15 0 -7 14 -8 38 -4 20 3 96 6 167
7 82 1 119 4 100 9 -31 8 -159 9 -252 3z"/>
<path d="M6251 10404 c-6 -15 -9 -29 -6 -32 7 -7 16 3 19 20 1 7 5 19 9 26 5
6 4 12 -1 12 -5 0 -14 -12 -21 -26z"/>
<path d="M6226 10334 c-4 -15 -3 -31 1 -35 5 -5 9 7 10 26 1 42 -2 45 -11 9z"/>
<path d="M4060 10180 c0 -5 4 -10 9 -10 6 0 13 5 16 10 3 6 -1 10 -9 10 -9 0
-16 -4 -16 -10z"/>
<path d="M7800 10079 c0 -43 34 -74 134 -123 52 -25 97 -46 100 -46 4 0 56
-22 117 -50 61 -27 117 -50 125 -50 29 0 0 30 -44 46 -26 10 -51 21 -57 24
-10 7 -152 67 -215 91 -63 23 -123 66 -141 101 -18 32 -18 32 -19 7z"/>
<path d="M6211 10026 c11 -10 79 -34 79 -27 0 4 -15 12 -33 19 -33 12 -54 16
-46 8z"/>
<path d="M3831 9970 c-13 -11 -19 -20 -14 -20 6 0 18 9 28 20 23 25 17 25 -14
0z"/>
<path d="M6300 9986 c0 -2 7 -7 16 -10 8 -3 12 -2 9 4 -6 10 -25 14 -25 6z"/>
<path d="M6394 9912 c33 -34 62 -59 65 -56 3 3 -15 24 -39 47 -75 70 -89 75
-26 9z"/>
<path d="M3790 9931 c0 -6 -4 -11 -10 -11 -5 0 -22 -11 -37 -24 -30 -26 -138
-118 -178 -150 -20 -16 -27 -17 -39 -6 -9 7 -13 17 -9 24 3 6 3 9 0 6 -3 -3
-19 -30 -34 -60 -20 -39 -43 -65 -78 -88 -28 -19 -66 -49 -85 -68 -19 -18 -41
-39 -48 -46 -180 -171 -342 -349 -342 -375 0 -23 14 -13 60 43 25 31 78 90
117 132 54 57 73 72 73 57 0 -22 -71 -135 -129 -205 -21 -25 -59 -72 -85 -105
-27 -33 -56 -69 -65 -80 -68 -83 -168 -291 -185 -386 -7 -38 -10 -44 47 81 35
77 131 223 196 300 26 30 93 118 150 195 76 103 152 188 285 320 109 109 180
186 178 196 -3 18 138 155 203 198 40 26 51 51 28 59 -7 2 -13 -1 -13 -7z
m-294 -278 c-8 -16 -25 -37 -38 -49 -12 -11 -45 -46 -73 -77 -55 -63 -79 -79
-66 -45 10 28 163 196 179 197 10 1 9 -5 -2 -26z"/>
<path d="M2793 9540 c-187 -47 -263 -54 -613 -56 -429 -2 -757 -21 -1020 -59
-58 -8 -125 -15 -148 -15 -36 0 -49 -6 -72 -30 -15 -16 -37 -30 -48 -30 -12 0
-24 -5 -27 -10 -4 -6 16 -54 43 -108 27 -53 54 -119 60 -147 6 -27 18 -86 27
-130 30 -144 84 -338 128 -465 88 -249 188 -415 399 -659 36 -42 37 -45 23
-67 -42 -64 -3 -108 170 -193 132 -65 257 -112 350 -131 82 -17 95 -25 95 -61
0 -22 -13 -45 -45 -82 -73 -84 -94 -180 -56 -263 32 -70 100 -104 207 -104 56
0 64 -2 64 -19 0 -19 -29 -139 -93 -391 -86 -332 -167 -727 -193 -935 -3 -22
-16 -116 -30 -210 -13 -93 -28 -240 -34 -325 -9 -141 -13 -196 -25 -330 -2
-25 -10 -125 -16 -222 -12 -170 -13 -178 -33 -178 -12 0 -33 7 -49 14 -25 14
-27 14 -17 -4 5 -10 26 -24 45 -31 19 -7 36 -20 36 -29 1 -8 2 -22 3 -30 2
-24 31 -17 34 8 2 13 10 26 18 29 13 5 12 8 -2 24 -15 16 -15 30 -5 136 40
396 79 644 219 1398 23 121 46 245 51 275 20 105 32 253 26 299 -4 31 1 76 14
136 12 50 36 155 54 234 44 193 58 197 72 19 4 -48 11 -85 16 -82 12 7 11 94
-1 173 -8 47 -8 67 1 77 10 12 8 18 -9 30 -20 14 -22 25 -23 107 -1 51 -3 85
-4 77 -2 -8 -9 -49 -15 -90 -7 -41 -19 -86 -27 -99 -14 -21 -20 -23 -81 -19
-80 5 -137 30 -157 69 -30 58 -12 164 37 216 30 32 43 29 70 -19 15 -28 31
-44 46 -46 31 -5 39 24 15 51 -38 41 -58 107 -34 107 5 0 19 13 31 30 28 39
19 66 -24 74 -38 7 -46 20 -46 78 0 32 -6 46 -27 64 -16 13 -32 24 -36 24 -15
0 -107 93 -107 107 0 13 15 14 93 8 50 -4 123 -11 161 -16 75 -10 88 -7 64 17
-20 20 -127 42 -253 51 l-100 8 -80 160 c-102 204 -164 298 -348 527 -17 21
-28 40 -25 43 2 3 33 -20 69 -51 35 -30 150 -120 256 -200 227 -171 342 -277
518 -476 99 -113 132 -145 142 -136 7 6 13 14 13 18 0 17 -142 190 -226 275
-127 129 -335 305 -480 405 -76 53 -162 122 -265 215 -219 196 -366 412 -418
615 -14 55 -20 66 -20 42 -2 -52 34 -164 85 -267 26 -52 45 -98 42 -100 -10
-10 -245 266 -260 305 -5 14 -13 46 -17 72 -8 50 0 68 31 68 27 0 22 17 -8 24
-49 13 -18 31 72 43 163 22 547 55 694 60 80 2 296 8 480 13 350 9 434 18 600
65 66 18 119 24 238 28 87 3 152 2 152 -4 0 -4 -11 -15 -25 -24 -14 -8 -37
-22 -51 -31 -14 -8 -24 -18 -21 -20 6 -6 42 14 102 56 l50 35 -95 6 c-199 14
-288 9 -407 -21z m-1859 -251 c-10 -16 -24 -9 -24 12 0 18 2 19 15 9 8 -7 12
-16 9 -21z m207 -365 c283 -342 494 -610 580 -737 63 -95 207 -372 198 -381
-9 -9 -293 -16 -305 -8 -21 13 -196 226 -244 297 -104 154 -184 326 -244 525
-33 110 -106 405 -106 428 1 19 8 11 121 -124z m822 -1200 c65 -78 103 -116
143 -141 24 -16 45 -35 46 -43 0 -8 2 -22 3 -30 3 -28 -17 -41 -49 -35 -92 19
-310 99 -352 131 -37 27 -98 119 -89 134 4 6 59 10 141 10 134 0 136 0 157
-26z m-343 -16 c34 -37 23 -51 -18 -22 -22 15 -30 44 -12 44 5 0 18 -10 30
-22z m612 -1443 c-1 -50 -18 -152 -57 -360 -83 -434 -104 -545 -110 -589 -4
-27 -11 -58 -16 -70 -20 -45 18 257 66 529 43 248 106 547 113 540 3 -2 4 -25
4 -50z"/>
<path d="M5490 9557 c0 -7 30 -96 65 -196 3 -8 8 -12 10 -9 6 6 -42 157 -60
188 -8 14 -14 21 -15 17z"/>
<path d="M4386 9443 c-6 -14 -5 -15 5 -6 7 7 10 15 7 18 -3 3 -9 -2 -12 -12z"/>
<path d="M4316 9328 c-53 -95 -76 -152 -107 -263 -27 -99 -37 -191 -54 -525
-3 -63 -10 -158 -15 -210 -52 -514 -53 -912 -3 -1250 8 -58 16 -123 17 -145
l1 -40 -78 -16 c-55 -11 -80 -13 -86 -5 -5 6 -21 63 -36 126 -15 63 -36 140
-46 170 -18 54 -41 158 -73 330 -36 200 -41 288 -37 670 7 572 7 595 -4 599
-13 5 -21 -40 -39 -237 -30 -307 -16 -806 29 -1052 20 -114 19 -211 -4 -295
-10 -39 -26 -126 -35 -195 -21 -158 -35 -230 -46 -230 -13 0 -162 -82 -157
-86 2 -2 26 4 53 14 27 11 64 24 83 30 l34 11 -7 -97 c-16 -240 -17 -353 -6
-587 6 -137 15 -254 21 -260 5 -5 9 16 9 58 0 37 4 67 9 67 5 0 30 -12 55 -26
l47 -26 -24 -27 c-26 -27 -144 -201 -153 -225 -7 -19 -48 -33 -116 -41 -32 -4
-58 -11 -58 -16 0 -5 9 -9 20 -9 28 0 25 -18 -5 -32 -14 -6 -25 -15 -25 -20 0
-11 32 -2 73 19 39 20 44 10 19 -36 -26 -46 -27 -51 -8 -51 8 0 23 12 34 27
27 37 38 23 22 -27 -11 -32 -11 -51 -1 -94 7 -30 12 -83 12 -118 1 -50 8 -80
37 -147 19 -46 43 -86 51 -88 30 -9 85 -99 179 -293 92 -189 128 -239 79 -109
-35 93 -189 416 -275 578 -61 113 -80 242 -43 290 17 22 20 23 57 10 21 -7 43
-17 48 -21 6 -4 17 -8 26 -8 9 0 25 -16 36 -35 10 -19 22 -35 26 -35 4 0 26
-16 48 -36 51 -47 62 -38 17 13 -37 42 -105 141 -130 189 -15 29 -15 33 5 70
36 68 106 151 138 164 50 21 44 7 -20 -49 -58 -50 -98 -106 -86 -119 3 -3 7
-3 9 -1 39 57 69 85 126 123 77 51 91 55 91 25 0 -11 5 -30 11 -41 9 -16 7
-28 -7 -53 -16 -30 -16 -40 -5 -103 20 -110 130 -335 213 -434 l23 -28 27 38
26 38 -29 63 c-16 34 -29 75 -29 91 0 33 27 54 50 40 8 -5 22 -4 33 2 26 13
88 1 110 -23 19 -21 42 -25 52 -9 4 6 10 8 15 5 16 -10 40 27 40 63 l0 37 49
2 c47 1 50 0 60 -29 14 -40 14 -183 0 -209 -12 -23 -81 -88 -113 -106 -68 -40
-140 -38 -182 3 -28 29 -48 23 -41 -12 3 -17 0 -24 -11 -24 -12 0 -12 -3 -2
-15 7 -9 21 -13 31 -10 11 4 50 -1 88 -10 72 -18 111 -11 111 20 0 8 6 15 13
15 20 0 133 76 156 106 27 35 41 89 51 199 5 50 12 105 16 123 6 30 -15 112
-36 135 -4 4 -20 -3 -36 -17 -32 -26 -42 -29 -91 -27 -31 1 -33 3 -33 36 0 29
6 39 33 56 31 19 44 19 94 4 23 -7 23 -7 7 31 -9 22 -27 53 -40 71 -36 48 -30
70 12 38 10 -8 25 -15 33 -15 22 0 -24 46 -93 92 l-59 41 39 13 c22 8 40 14
41 14 2 0 49 -46 105 -102 101 -101 201 -179 234 -182 35 -3 22 21 -29 51
-106 64 -236 203 -340 365 -20 31 -45 62 -57 68 -23 12 -172 304 -232 455 -65
161 -103 295 -80 281 6 -3 13 -2 17 4 3 5 -5 14 -18 19 -21 8 -27 23 -47 107
-66 287 -101 757 -60 809 4 6 10 132 13 280 7 334 41 565 123 837 14 46 31
126 39 178 17 109 18 121 6 100 -10 -18 -103 -331 -121 -407 -7 -29 -16 -50
-21 -47 -13 8 -11 86 6 210 23 169 40 224 107 352 47 88 42 96 -6 10z m-476
-2120 c20 -79 52 -173 74 -212 11 -21 27 -50 34 -63 11 -20 11 -27 0 -40 -7
-9 -12 -23 -10 -32 2 -12 -21 -25 -86 -48 -49 -18 -92 -33 -96 -33 -10 0 -6
78 9 180 42 290 42 290 55 290 5 0 14 -19 20 -42z m319 -337 c8 -5 20 -22 27
-38 l12 -28 1 28 c1 15 4 27 9 27 10 0 54 -148 54 -185 1 -88 63 -339 117
-474 12 -29 20 -55 18 -57 -2 -2 -19 -1 -38 2 -29 5 -41 15 -68 58 -18 28 -42
65 -55 82 -34 48 -183 374 -212 466 -14 44 -22 84 -17 89 5 5 35 15 68 23 75
18 67 17 84 7z m-167 -76 c61 -207 125 -362 214 -521 35 -63 64 -119 64 -124
0 -6 -28 -10 -63 -10 -165 0 -359 -52 -411 -109 -15 -17 -8 -15 35 8 30 16 89
37 132 45 79 17 227 23 247 11 5 -3 10 1 10 9 0 27 56 20 85 -11 14 -15 25
-31 25 -35 0 -3 -30 -9 -67 -13 -101 -9 -204 -23 -210 -29 -3 -2 -2 -10 2 -17
6 -8 29 -10 78 -6 38 3 68 4 66 2 -3 -2 -47 -11 -98 -20 -104 -18 -119 -24
-155 -60 -37 -37 -70 -41 -122 -14 -25 13 -55 34 -67 47 -22 23 -22 26 -22
390 0 202 3 379 7 394 7 21 20 30 70 48 35 11 74 27 88 35 14 8 38 14 54 12
23 -1 31 -8 38 -32z m348 -344 c11 -52 18 -96 16 -98 -4 -4 -36 95 -36 112 0
7 -9 41 -20 75 -11 34 -20 72 -19 84 1 38 39 -74 59 -173z m82 -109 c39 -81
93 -178 110 -200 15 -18 8 -21 -37 -13 -40 6 -40 7 -67 86 -15 44 -32 100 -38
125 -6 25 -13 53 -16 63 -3 9 -2 17 3 17 4 0 25 -35 45 -78z m-45 -44 c-3 -8
-6 -5 -6 6 -1 11 2 17 5 13 3 -3 4 -12 1 -19z m50 -217 c18 -23 16 -31 -7 -31
-21 0 -60 33 -60 50 0 15 53 0 67 -19z m148 -2 c32 -33 93 -125 87 -131 -13
-13 -100 -12 -117 2 -20 17 -19 30 4 30 10 0 24 6 30 13 15 19 -14 45 -58 49
-25 2 -36 9 -42 26 -9 23 -8 24 42 19 27 -3 52 -6 54 -8z m-285 -328 c0 -11
-11 -32 -24 -46 l-24 -25 -6 22 c-13 52 -8 68 24 68 23 0 30 -5 30 -19z m60
-2 c0 -5 3 -8 8 -6 4 3 16 1 27 -4 19 -7 19 -8 -2 -8 -12 -1 -28 -4 -37 -7
-12 -4 -16 0 -16 15 0 12 5 21 10 21 6 0 10 -5 10 -11z m-170 -26 c-1 -24 -26
-57 -34 -44 -7 11 13 61 26 61 4 0 8 -8 8 -17z m394 -179 c23 -9 20 -44 -3
-44 -22 0 -45 25 -36 40 7 11 17 13 39 4z m-850 -56 c9 -12 14 -24 12 -26 -9
-8 -46 19 -46 33 0 22 17 18 34 -7z"/>
<path d="M8622 9382 c2 -4 29 -53 61 -109 53 -94 71 -134 147 -318 35 -87 107
-323 149 -495 74 -294 88 -360 116 -545 14 -93 33 -210 41 -260 10 -58 17
-186 20 -360 4 -281 -4 -311 -28 -108 -7 56 -15 100 -18 98 -4 -2 -14 46 -24
108 -48 313 -180 941 -215 1022 -5 11 -15 45 -24 75 -43 153 -69 230 -77 230
-4 0 3 -35 16 -77 32 -97 123 -443 134 -503 8 -44 41 -195 61 -275 9 -38 15
-77 59 -355 11 -69 22 -136 25 -150 3 -14 10 -61 15 -105 57 -444 72 -816 46
-1130 -38 -478 -87 -1295 -111 -1870 -7 -156 -19 -271 -40 -384 -8 -42 -15
-125 -14 -186 l1 -110 18 55 c21 64 25 41 10 -60 -5 -36 -10 -147 -10 -247 -1
-122 -5 -183 -12 -183 -7 0 -8 -16 -3 -47 10 -71 14 -433 4 -433 -30 0 18
-1130 56 -1330 20 -108 38 -266 32 -282 -3 -7 -6 3 -6 22 -1 27 -4 31 -11 20
-6 -8 -8 -31 -5 -50 3 -19 17 -167 30 -329 21 -260 32 -347 36 -285 2 28 15
-43 38 -211 12 -82 24 -165 27 -182 5 -32 6 -33 56 -33 l51 0 -7 112 c-20 315
-46 554 -91 813 -13 77 -27 169 -30 205 -5 59 -5 63 8 40 18 -32 47 -202 120
-692 12 -81 25 -150 29 -153 14 -14 489 623 515 691 3 9 -38 55 -111 125 -165
158 -272 295 -357 459 -77 147 -103 228 -158 487 -54 256 -52 243 -59 383 -7
121 -7 123 -12 50 l-5 -75 -17 125 c-44 312 -49 387 -45 705 2 254 6 318 19
355 18 50 64 292 73 385 3 33 10 98 15 145 25 220 52 574 65 860 8 173 20 407
26 520 13 253 17 1038 6 1295 -9 214 -32 538 -47 665 -24 192 -71 501 -90 585
-11 50 -24 113 -29 140 -44 249 -225 786 -332 984 -46 86 -114 181 -130 181
-6 0 -9 -3 -7 -8z m585 -2904 c-2 -35 -3 -7 -3 62 0 69 1 97 3 63 2 -35 2 -91
0 -125z m-41 -1008 c-4 -187 -12 -308 -36 -510 -44 -368 -44 -367 -30 60 14
413 28 675 42 770 l13 85 8 -80 c4 -44 6 -190 3 -325z m-71 -1337 c-4 -30 -9
-53 -11 -50 -3 3 -2 33 2 68 4 35 9 58 12 51 2 -7 1 -38 -3 -69z m-18 -140
c-3 -10 -5 -2 -5 17 0 19 2 27 5 18 2 -10 2 -26 0 -35z m-10 -65 c-3 -7 -5 -2
-5 12 0 14 2 19 5 13 2 -7 2 -19 0 -25z m-8 -180 c-1 -41 -1 -42 -11 -15 -5
15 -7 34 -4 42 10 27 16 16 15 -27z m49 -1613 c23 -86 45 -163 67 -235 13 -41
25 -88 27 -105 2 -16 7 -33 12 -37 10 -7 47 -98 39 -98 -6 0 -45 21 -57 32 -6
5 -30 22 -52 38 l-42 30 -7 97 c-12 167 -20 344 -15 349 5 6 13 -14 28 -71z
m5 -1330 c4 -58 3 -76 -2 -50 -13 64 -21 172 -12 155 5 -8 11 -55 14 -105z"/>
<path d="M5321 9376 c-1 -5 6 -35 14 -65 100 -374 211 -1186 260 -1901 8 -118
26 -327 40 -463 14 -137 25 -279 25 -315 0 -63 14 -174 26 -216 5 -15 8 -16
15 -5 11 18 11 132 0 255 -5 55 -12 144 -16 199 -3 55 -14 179 -25 275 -11 96
-29 276 -40 400 -21 233 -56 547 -91 827 -11 90 -19 172 -17 184 2 12 22 -32
47 -103 43 -122 91 -237 132 -313 108 -205 99 -176 109 -351 15 -259 13 -490
-5 -508 -18 -18 -19 -27 -2 -24 21 5 4 -412 -23 -542 -5 -25 -17 -103 -26
-175 -9 -71 -27 -175 -39 -230 -13 -55 -26 -117 -30 -139 -8 -50 -19 -38 -45
54 -72 256 -124 520 -154 785 -9 77 -21 176 -27 220 -5 44 -16 154 -24 245 -7
91 -21 251 -30 355 -9 105 -23 249 -31 320 -8 72 -23 218 -34 325 -11 107 -24
233 -30 280 -6 47 -15 121 -20 165 -12 97 -60 305 -71 305 -4 0 -1 -28 7 -62
34 -145 99 -753 85 -791 -5 -14 -8 -27 -7 -28 2 -2 7 -105 10 -229 8 -256 29
-532 51 -682 8 -57 24 -179 35 -273 45 -370 75 -550 126 -750 72 -285 156
-495 236 -587 27 -32 54 -58 58 -58 5 0 -9 32 -32 71 -22 39 -54 101 -69 139
l-29 69 29 103 c16 57 34 128 41 158 6 30 18 82 25 115 24 105 65 483 71 665
3 96 7 180 9 186 8 28 325 64 356 41 9 -7 74 -82 145 -167 70 -85 204 -233
298 -327 93 -95 168 -175 165 -177 -2 -2 -51 -11 -109 -21 -205 -34 -387 -102
-477 -179 -22 -20 -47 -36 -54 -36 -10 0 -10 -3 1 -15 9 -9 47 -17 98 -21 45
-4 82 -10 82 -14 0 -3 -14 -19 -31 -36 -30 -28 -59 -74 -59 -92 0 -5 24 14 53
42 63 61 97 86 114 86 20 0 16 -11 -19 -44 -35 -33 -118 -130 -133 -156 -13
-21 -23 -110 -13 -110 4 0 19 21 32 48 23 45 58 92 69 92 2 0 2 -38 0 -84 -3
-46 -2 -105 2 -132 l8 -49 8 40 c4 22 8 70 8 106 1 36 4 87 7 112 6 42 11 49
50 72 25 14 48 24 53 21 4 -3 9 -35 10 -71 3 -90 56 -285 103 -379 27 -55 89
-146 99 -146 17 0 28 37 19 66 -4 16 -9 22 -9 14 -2 -24 -21 10 -21 38 0 12
-4 22 -10 22 -5 0 -10 4 -10 10 0 13 24 8 30 -6 4 -9 16 -8 43 3 28 11 35 18
25 24 -9 6 -9 9 -1 9 6 0 15 -4 18 -10 8 -13 35 -13 35 0 0 5 -8 6 -17 3 -15
-6 -16 -5 -3 9 11 12 18 13 28 5 10 -8 16 -7 23 4 8 12 12 11 27 -6 18 -22 82
-34 82 -16 0 6 10 11 23 11 37 0 57 21 59 63 1 20 4 37 7 38 3 0 52 1 109 2
81 1 105 -2 113 -13 15 -24 0 -100 -34 -169 -25 -51 -42 -71 -79 -93 -68 -42
-148 -67 -231 -74 -64 -5 -77 -3 -119 19 -25 14 -49 23 -52 20 -15 -15 -3 -40
27 -60 27 -19 47 -23 103 -23 102 1 202 27 242 63 10 9 30 17 43 17 13 0 40
13 59 28 19 16 43 31 53 35 34 12 76 126 92 243 16 122 19 193 7 211 -6 10
-19 9 -59 -4 -48 -15 -52 -15 -68 0 -9 10 -20 17 -25 17 -17 0 4 41 33 66 26
22 38 25 74 20 50 -7 52 0 28 79 -8 27 -12 52 -10 56 6 9 104 -16 118 -30 16
-16 47 -13 47 4 0 18 31 20 47 4 6 -6 9 -18 6 -25 -3 -8 0 -14 6 -14 7 0 10
-25 9 -72 l-2 -73 -6 65 -7 65 3 -75 c6 -123 3 -174 -8 -181 -10 -6 -48 -111
-43 -117 10 -11 43 12 52 36 10 24 11 20 12 -35 1 -49 -3 -64 -16 -72 -17 -9
-17 -10 0 -16 16 -7 17 -42 18 -549 0 -486 5 -625 21 -641 12 -12 38 9 37 29
-4 49 2 97 11 91 6 -3 10 -1 10 4 0 6 -4 11 -10 11 -5 0 -10 25 -10 55 0 30 5
55 10 55 11 0 14 33 4 42 -3 3 -7 215 -8 469 -3 412 -9 625 -21 754 -5 50 21
184 40 205 13 14 13 19 -1 38 -14 21 -14 22 16 16 24 -5 30 -3 30 11 0 10 -8
24 -17 31 -17 13 -16 15 7 34 14 11 38 20 53 20 42 0 107 37 107 60 0 27 -14
25 -84 -10 -68 -35 -88 -37 -112 -12 -17 16 -17 16 -11 0 3 -10 2 -20 -2 -22
-10 -7 -61 16 -61 27 0 4 -8 7 -17 7 -9 0 -24 6 -32 13 -15 12 -67 31 -116 41
-14 2 -11 4 8 5 18 1 27 6 25 14 -6 15 -98 23 -98 8 0 -6 8 -11 18 -12 11 0 8
-3 -8 -8 -14 -5 -45 -5 -70 -2 -40 5 -45 9 -47 34 -5 62 -115 454 -194 689
-16 48 -29 95 -29 105 0 11 -4 23 -9 29 -5 5 -23 54 -41 109 -69 209 -120 353
-226 625 -97 252 -237 551 -261 558 -21 6 -15 -17 32 -115 25 -51 45 -96 45
-98 0 -3 9 -24 19 -48 113 -247 369 -994 517 -1507 31 -107 58 -204 61 -215 3
-11 14 -49 24 -84 10 -35 19 -64 19 -65 0 -4 -230 -6 -230 -1 0 3 14 33 31 66
16 33 29 70 27 81 -2 17 -9 12 -35 -28 -18 -27 -41 -60 -51 -73 l-19 -23 -45
48 c-60 65 -181 211 -298 359 -155 196 -183 235 -176 243 12 12 365 7 445 -6
69 -12 93 -10 78 4 -18 18 -182 36 -357 39 -107 2 -198 4 -202 4 -13 2 -125
177 -198 311 -40 74 -81 144 -90 155 -16 18 -160 252 -160 260 0 2 -17 32 -39
67 -92 152 -129 239 -145 343 -20 127 -25 147 -86 400 -69 286 -101 405 -110
405 -17 0 -19 -34 -4 -88 9 -31 24 -88 35 -127 69 -254 191 -1045 161 -1045
-10 0 -116 202 -157 300 -15 36 -33 79 -40 95 -7 17 -23 66 -36 110 -12 44
-30 89 -39 100 -10 11 -20 40 -23 65 -10 85 -56 315 -86 435 -29 115 -69 240
-70 221z m612 -1326 c57 -102 113 -203 126 -225 13 -22 41 -71 64 -110 22 -38
71 -122 109 -185 109 -181 107 -172 36 -168 -47 3 -53 6 -71 38 -11 19 -22 37
-26 40 -10 7 -64 82 -77 105 -6 11 -30 56 -54 100 -24 44 -65 120 -92 169 -27
49 -54 100 -59 113 -10 26 -29 23 -29 -5 0 -12 -3 -13 -11 -5 -11 11 -16 53
-34 278 -7 84 -14 93 118 -145z m-18 -302 c33 -51 76 -112 96 -136 20 -24 43
-56 50 -70 8 -15 21 -38 30 -52 37 -58 79 -132 79 -139 0 -5 -35 -12 -77 -16
-43 -4 -112 -13 -153 -20 -41 -7 -78 -10 -81 -7 -9 9 -19 532 -11 532 4 0 34
-42 67 -92z m482 -465 c13 -33 87 -150 102 -163 4 -3 31 -36 61 -75 29 -38 66
-83 80 -100 69 -77 128 -142 155 -170 97 -101 120 -128 90 -107 -42 29 -357
348 -452 458 -139 162 -153 178 -153 185 0 3 23 7 51 8 49 1 51 0 66 -36z
m487 -549 c7 -19 2 -18 -19 6 -16 17 -16 20 -3 15 9 -4 19 -13 22 -21z m41
-44 c10 -11 16 -20 13 -20 -3 0 -13 9 -23 20 -10 11 -16 20 -13 20 3 0 13 -9
23 -20z m450 -90 c17 -7 15 -9 -12 -9 -17 -1 -35 4 -38 9 -7 12 22 12 50 0z
m145 -37 c65 -16 89 -28 78 -39 -7 -6 -105 21 -122 35 -6 4 -24 13 -41 20 -34
13 -20 10 85 -16z m-1120 -92 c-16 -30 -12 -33 21 -16 39 21 48 12 23 -22 -42
-55 -64 -65 -137 -57 -95 10 -91 22 32 85 65 34 75 36 61 10z m1084 -11 c30
-11 35 -30 9 -30 -45 2 -137 27 -141 39 -4 11 6 13 51 8 31 -4 67 -11 81 -17z
m90 -26 c15 -6 23 -34 10 -34 -13 0 -44 21 -44 30 0 11 11 13 34 4z m-674 -96
c26 -28 27 -68 1 -68 -10 0 -33 -3 -50 -6 -30 -6 -32 -5 -27 20 4 14 8 37 11
51 7 32 37 33 65 3z m-110 -4 c0 -9 -7 -43 -16 -76 -15 -61 -13 -95 6 -83 5 3
10 2 10 -3 0 -6 -23 -27 -51 -47 -58 -41 -88 -41 -115 0 -26 40 -15 129 21
163 l27 27 -6 -76 -7 -77 33 7 c25 5 34 12 36 31 1 14 9 41 17 60 7 19 16 47
19 63 7 29 26 38 26 11z m26 -129 c-3 -8 -1 -15 3 -15 5 0 11 7 15 15 3 8 13
15 23 14 14 0 15 -2 3 -6 -8 -3 -19 -12 -23 -19 -10 -18 -37 -18 -37 -1 0 13
9 27 18 27 2 0 2 -7 -2 -15z m399 -89 c0 -10 -8 -24 -18 -30 -24 -15 -53 19
-35 41 16 20 53 12 53 -11z"/>
<path d="M7670 9338 c0 -9 25 -139 55 -289 51 -250 76 -390 92 -503 3 -22 14
-88 24 -146 47 -266 151 -1190 137 -1230 -2 -6 -25 38 -51 97 -26 60 -61 131
-77 158 -16 28 -60 111 -98 185 -101 199 -214 414 -223 425 -8 11 -31 148 -54
334 -29 227 -41 112 -16 -146 8 -85 -1 -96 -16 -20 -20 99 -83 317 -148 512
-62 187 -163 426 -184 440 -21 12 -8 -42 29 -120 14 -30 87 -238 116 -330 61
-194 72 -235 89 -310 9 -44 23 -102 31 -130 7 -27 20 -88 28 -135 8 -47 22
-123 30 -170 22 -117 33 -208 42 -325 3 -55 8 -111 10 -125 11 -77 24 -388 25
-613 2 -250 2 -258 22 -269 16 -8 22 -8 25 1 5 16 23 14 37 -6 7 -10 17 -13
25 -8 10 6 12 42 7 170 -4 89 -11 207 -17 261 -5 54 -17 187 -25 294 -26 317
-44 522 -51 568 -7 48 9 58 24 14 5 -16 17 -35 26 -44 19 -19 228 -446 246
-503 7 -22 22 -62 35 -90 12 -27 43 -97 68 -155 55 -123 66 -189 67 -395 0
-77 4 -157 9 -179 11 -46 -3 -766 -19 -976 -11 -147 -47 -468 -54 -492 -93
-291 -181 -560 -191 -583 -19 -42 -91 -340 -110 -455 -9 -52 -18 -97 -20 -100
-6 -9 -64 -418 -74 -520 -5 -52 -5 -102 -1 -110 8 -13 9 -13 13 0 3 8 8 40 11
70 14 148 48 365 62 392 8 16 17 42 19 56 1 15 3 30 4 35 0 4 6 7 12 7 13 0
10 -17 -21 -125 -11 -38 -20 -91 -20 -117 0 -40 3 -48 19 -48 24 0 37 17 46
58 15 70 13 21 -5 -133 -11 -88 -26 -241 -35 -340 -19 -219 -26 -270 -34 -256
-4 6 -15 -47 -25 -117 -10 -70 -20 -136 -21 -147 -2 -11 -5 -60 -6 -110 l-3
-90 -6 120 c-4 66 -8 224 -9 350 -1 216 -8 283 -25 239 -4 -9 -12 -137 -18
-285 -8 -201 -8 -318 1 -471 31 -550 140 -1151 281 -1548 22 -63 59 -185 81
-270 43 -171 39 -156 103 -360 25 -80 50 -164 56 -187 9 -38 14 -43 39 -43
l29 0 -4 63 -4 62 15 -45 c8 -25 15 -53 15 -62 0 -21 45 -25 53 -5 4 10 6 10
6 0 1 -7 8 -13 17 -13 26 0 10 87 -51 286 -30 95 -61 209 -71 251 -10 47 -26
89 -40 106 -13 16 -24 35 -24 44 0 8 -12 54 -26 102 -14 47 -34 115 -44 151
-33 113 -60 416 -67 754 -6 306 8 818 27 1001 5 50 16 164 25 255 26 283 54
537 74 689 37 265 41 295 61 425 13 81 17 133 11 139 -12 12 -26 -16 -35 -68
-69 -413 -126 -856 -151 -1175 -8 -113 -21 -241 -27 -285 -7 -52 -11 -321 -12
-767 -1 -378 -4 -681 -8 -675 -27 50 -97 350 -122 527 -34 242 -48 718 -32
1093 3 67 8 199 11 292 6 152 27 443 40 550 34 274 80 518 194 1035 17 74 48
241 70 370 52 305 65 528 67 1208 0 282 4 515 6 518 3 3 9 -7 12 -22 4 -15 14
-37 22 -48 14 -20 15 -20 9 9 -4 17 -18 66 -32 110 -21 66 -27 111 -34 265
-11 237 -35 517 -59 695 -10 77 -24 183 -30 235 -10 87 -63 408 -91 555 -18
95 -77 354 -95 415 -8 30 -30 110 -49 178 -31 117 -45 154 -45 120z m181
-4740 c-12 -51 -26 -107 -31 -124 -12 -36 -64 -234 -92 -349 -20 -81 -46 -151
-53 -144 -4 5 90 389 125 509 12 41 24 84 27 95 3 11 9 25 13 30 4 6 11 27 14
49 4 21 10 36 13 32 3 -3 -4 -47 -16 -98z m-144 -860 c-3 -8 -6 -5 -6 6 -1 11
2 17 5 13 3 -3 4 -12 1 -19z m-127 -1353 c0 -8 4 -15 9 -15 5 0 9 -39 9 -87
-1 -108 18 -395 32 -483 5 -36 9 -74 9 -85 0 -19 -1 -19 -9 1 -10 25 -24 146
-45 374 -28 314 -28 310 -16 310 6 0 11 -7 11 -15z m78 -770 c0 -16 -2 -15 -8
5 -4 14 -8 34 -8 45 0 16 2 15 8 -5 4 -14 8 -34 8 -45z m225 -812 c21 -152 -4
-89 -52 130 -17 76 -31 145 -30 155 2 36 69 -197 82 -285z m122 -413 l4 -55
-14 55 c-8 30 -17 75 -19 100 l-6 45 15 -45 c9 -25 17 -70 20 -100z"/>
<path d="M1040 9309 c0 -5 10 -9 23 -9 12 0 34 -6 48 -14 16 -8 32 -10 40 -5
8 5 95 9 194 10 130 1 165 4 125 9 -83 12 -430 19 -430 9z"/>
<path d="M4931 9232 c-46 -87 -39 -682 15 -1212 30 -298 105 -726 180 -1025
33 -131 147 -488 164 -510 4 -5 17 -37 29 -69 30 -81 133 -282 197 -386 75
-120 194 -244 194 -201 0 4 -24 39 -52 77 -131 170 -197 285 -311 535 -37 81
-130 358 -176 524 -85 306 -183 946 -216 1415 -31 433 -31 748 0 848 9 27 -10
30 -24 4z"/>
<path d="M8684 8954 c4 -10 22 -62 39 -114 17 -52 32 -89 34 -83 2 6 -8 44
-23 84 -14 41 -28 84 -31 97 -3 12 -10 25 -16 29 -7 4 -8 0 -3 -13z"/>
<path d="M3518 8661 c-21 -49 -38 -95 -38 -103 0 -8 -4 -18 -9 -23 -14 -16
-40 -98 -86 -280 -62 -245 -91 -400 -124 -665 -49 -388 -56 -513 -56 -960 0
-390 2 -429 28 -645 28 -241 56 -422 83 -540 39 -174 47 -205 53 -205 12 0 -7
174 -33 295 -27 130 -67 410 -88 625 -9 90 -13 285 -13 590 1 491 -4 426 66
930 49 356 165 840 246 1018 8 18 13 37 11 42 -2 6 -20 -30 -40 -79z"/>
<path d="M4037 8619 c-29 -43 -97 -405 -96 -501 1 -46 4 -72 6 -58 37 234 50
306 79 424 36 145 39 178 11 135z"/>
<path d="M3971 8032 c-7 -40 -17 -70 -21 -67 -10 6 -17 -31 -23 -125 -4 -47
-2 -58 4 -41 14 36 61 281 56 294 -2 6 -9 -22 -16 -61z"/>
<path d="M9562 7900 c0 -14 2 -19 5 -12 2 6 2 18 0 25 -3 6 -5 1 -5 -13z"/>
<path d="M8221 7409 c0 -168 -3 -402 -5 -520 -3 -138 -2 -189 4 -144 13 114
22 761 12 870 -8 84 -9 53 -11 -206z"/>
<path d="M4432 7285 c0 -16 2 -22 5 -12 2 9 2 23 0 30 -3 6 -5 -1 -5 -18z"/>
<path d="M4441 7234 c0 -11 3 -14 6 -6 3 7 2 16 -1 19 -3 4 -6 -2 -5 -13z"/>
<path d="M4450 7193 c1 -32 97 -314 139 -406 17 -38 31 -74 31 -81 0 -25 102
-373 127 -431 135 -321 180 -402 337 -611 1 -1 11 -5 24 -8 29 -9 28 4 -4 40
-111 127 -290 473 -359 693 -51 165 -51 184 -1 104 74 -117 221 -285 332 -383
70 -60 354 -253 435 -296 43 -22 91 -35 84 -23 -4 5 3 9 14 9 38 0 21 15 -71
60 -119 59 -233 136 -303 206 -6 6 -26 19 -44 28 -42 22 -292 268 -351 346
-25 33 -52 62 -60 65 -43 15 -206 345 -281 569 -37 113 -49 142 -49 119z"/>
<path d="M3286 7102 c-7 -12 12 -379 23 -429 5 -29 8 -30 24 -18 17 12 18 20
8 82 -5 37 -15 133 -21 213 -11 137 -20 175 -34 152z"/>
<path d="M2481 6930 c-1 -74 -4 -153 -6 -175 -2 -22 -9 -155 -15 -295 -15
-360 -28 -601 -44 -860 -8 -124 -20 -353 -26 -510 -15 -402 -15 -404 -40 -452
-12 -24 -25 -45 -29 -48 -4 -3 -20 -26 -36 -52 -17 -27 -33 -48 -37 -48 -5 0
-8 -5 -8 -11 0 -10 -44 -69 -87 -119 -13 -13 -23 -28 -23 -32 0 -19 19 -4 55
45 22 28 50 63 62 76 13 13 23 27 23 31 0 4 10 18 21 31 12 13 29 35 38 49 9
14 26 33 39 44 12 10 36 44 52 76 16 31 47 76 68 98 22 23 43 54 46 69 4 15
40 80 80 143 163 256 306 506 306 534 0 3 -6 6 -14 6 -8 0 -35 -37 -61 -82
-83 -144 -275 -441 -281 -435 -5 4 11 205 41 520 12 116 13 168 5 197 -15 55
-27 57 -33 7 -29 -261 -48 -449 -57 -582 -15 -227 -19 -255 -40 -300 -24 -50
-48 -81 -56 -72 -8 8 21 626 51 1104 28 424 37 1038 18 1128 -10 45 -11 38
-12 -85z"/>
<path d="M8980 6945 c0 -3 -11 -92 -24 -198 -14 -105 -27 -230 -31 -277 -6
-89 -47 -463 -91 -835 -14 -121 -29 -260 -34 -310 -5 -49 -14 -135 -20 -190
-14 -139 -57 -779 -65 -960 -5 -121 -10 -156 -25 -183 -26 -43 -28 -68 -40
-497 -6 -203 -15 -453 -20 -555 -6 -102 -10 -283 -10 -402 0 -120 -3 -218 -7
-218 -5 0 -6 201 -5 447 4 425 3 448 -15 460 -17 13 -18 30 -16 226 3 294 22
869 33 1002 29 335 89 1109 105 1350 3 44 9 127 15 185 11 121 21 302 16 280
-3 -8 -10 -76 -16 -150 -6 -74 -18 -187 -25 -250 -7 -63 -16 -158 -20 -210 -3
-52 -15 -169 -25 -260 -35 -297 -97 -1153 -115 -1570 -10 -246 -7 -1441 4
-1485 6 -22 11 -74 11 -116 0 -53 4 -80 14 -88 10 -8 16 -9 21 -1 12 19 24 10
23 -20 -1 -16 -5 -27 -10 -24 -4 3 -8 1 -8 -5 0 -5 4 -11 9 -13 5 -2 11 -121
14 -268 2 -146 7 -275 10 -288 6 -24 27 -249 51 -537 7 -88 10 -164 6 -168 -6
-7 -15 41 -59 288 l-9 50 -1 -76 c-1 -82 10 -153 35 -236 9 -29 13 -60 9 -70
-11 -26 -12 -123 -3 -158 12 -42 75 -427 83 -500 3 -33 9 -72 11 -87 l6 -28
150 0 150 0 -6 67 c-4 38 -16 154 -26 258 -35 342 -68 720 -100 1155 -15 200
-27 304 -41 349 -10 35 -19 71 -18 80 1 9 7 -4 15 -29 13 -43 14 -40 9 65 -13
288 -17 352 -25 375 -5 14 -11 48 -15 75 -12 90 -26 145 -38 145 -7 0 -21 36
-31 80 -17 70 -18 86 -6 137 7 32 18 62 25 68 13 11 31 86 45 185 5 36 16 90
25 120 10 37 17 111 20 225 5 195 4 193 -55 -74 -22 -102 -42 -186 -44 -188
-2 -2 -9 3 -16 12 -7 8 -16 15 -21 15 -11 0 -12 -181 -1 -212 11 -29 -5 -98
-18 -78 -16 26 -21 127 -10 191 7 35 11 96 11 134 -2 120 19 981 29 1185 18
355 54 878 85 1220 8 91 19 230 25 310 5 80 16 186 25 235 24 150 40 279 64
510 15 141 25 335 17 335 -3 0 -6 -2 -6 -5z m-189 -4567 c22 -85 24 -131 7
-126 -7 3 -15 16 -19 29 -10 39 -22 185 -14 177 3 -3 15 -39 26 -80z m-171
-109 c0 -5 -4 -9 -10 -9 -5 0 -10 7 -10 16 0 8 5 12 10 9 6 -3 10 -10 10 -16z
m210 -65 c0 -22 -22 -12 -31 14 -8 20 -6 21 11 12 11 -6 20 -18 20 -26z m-210
-14 c0 -16 -4 -30 -10 -30 -5 0 -10 14 -10 30 0 17 5 30 10 30 6 0 10 -13 10
-30z"/>
<path d="M6545 6737 c-193 -80 -325 -168 -361 -241 -14 -27 -11 -26 29 16 59
61 153 121 179 115 18 -5 106 20 153 43 11 5 34 15 50 21 17 6 25 13 19 16 -6
2 -36 -6 -65 -18 -75 -30 -109 -39 -109 -30 0 5 50 30 110 56 61 26 110 49
110 51 0 11 -44 0 -115 -29z"/>
<path d="M7681 6634 c0 -11 3 -14 6 -6 3 7 2 16 -1 19 -3 4 -6 -2 -5 -13z"/>
<path d="M3320 6381 c0 -5 5 -13 10 -16 6 -3 10 -2 10 4 0 5 -4 13 -10 16 -5
3 -10 2 -10 -4z"/>
<path d="M1602 6328 c-56 -122 -97 -297 -124 -545 -12 -106 -30 -135 -43 -70
-11 53 -47 157 -57 163 -19 12 -18 -5 4 -47 12 -23 24 -52 26 -63 2 -12 5
-201 8 -421 2 -220 4 -402 5 -405 0 -3 5 6 10 19 5 13 12 77 16 143 4 86 10
121 20 125 10 4 13 36 13 137 0 113 21 398 35 476 2 14 7 47 10 74 15 127 38
224 76 322 l41 106 40 -5 c45 -6 75 -29 94 -72 l14 -30 -6 40 c-4 22 -11 48
-15 57 -10 19 -67 38 -115 38 -28 0 -34 -6 -52 -42z"/>
<path d="M8752 6315 c0 -16 2 -22 5 -12 2 9 2 23 0 30 -3 6 -5 -1 -5 -18z"/>
<path d="M3345 6290 c3 -19 9 -98 15 -175 6 -77 13 -151 15 -165 4 -23 26
-334 40 -567 4 -61 2 -116 -4 -135 -7 -23 -6 -54 2 -103 10 -58 16 -72 37 -82
14 -7 28 -9 32 -5 4 4 3 66 -2 137 -37 502 -51 683 -55 705 -3 14 -9 75 -15
135 -7 71 -21 142 -40 200 -16 50 -27 74 -25 55z"/>
<path d="M1794 6190 c22 -162 25 -246 22 -600 -2 -258 -7 -405 -14 -425 -16
-43 -44 -246 -71 -510 -5 -49 -14 -103 -20 -118 -6 -16 -11 -38 -11 -50 1 -36
16 -1 30 68 7 33 18 71 25 85 45 93 95 677 98 1150 2 317 1 337 -17 365 -11
17 -26 41 -34 55 -13 24 -13 22 -8 -20z"/>
<path d="M3041 6065 c0 -71 4 -159 9 -195 34 -219 51 -316 74 -400 17 -63 24
-109 21 -135 -6 -44 0 -73 73 -355 55 -213 84 -294 165 -457 55 -111 87 -224
69 -246 -19 -23 -6 -129 21 -184 26 -50 27 -59 27 -211 0 -161 -21 -510 -40
-657 -33 -250 -122 -646 -170 -750 -30 -67 -53 -152 -45 -165 3 -5 -2 -21 -11
-35 -12 -18 -25 -25 -49 -25 -34 0 -78 -12 -134 -37 -19 -8 -51 -18 -73 -21
-22 -3 -37 -9 -35 -16 7 -21 67 -17 143 9 50 17 91 25 122 23 45 -3 47 -5 48
-33 1 -16 -11 -104 -27 -195 -16 -91 -34 -210 -40 -265 -6 -55 -16 -106 -22
-113 -14 -17 -27 -414 -21 -627 10 -353 32 -594 70 -775 42 -200 42 -200 76
-200 25 0 29 3 23 18 -13 32 -55 206 -70 287 -44 247 -65 742 -45 1100 14 273
64 651 103 786 33 112 41 128 76 146 26 14 37 27 39 47 4 32 24 30 32 -4 5
-20 12 -24 55 -26 34 -2 62 4 89 17 44 23 73 16 132 -28 28 -21 32 -22 38 -7
5 14 10 14 42 -5 19 -12 46 -21 59 -21 33 0 40 -16 24 -63 l-13 -40 44 -39
c61 -53 121 -88 178 -102 41 -11 45 -14 27 -23 -11 -5 -46 -15 -77 -22 -35 -8
-58 -18 -58 -26 0 -25 37 -25 158 1 30 6 32 5 32 -23 0 -33 29 -93 108 -222
57 -94 67 -106 100 -116 20 -6 22 -3 22 29 0 19 -4 45 -9 58 -19 50 40 318 70
318 5 0 9 -6 9 -13 0 -7 8 -17 18 -24 10 -6 27 -33 37 -59 59 -159 161 -257
315 -304 l55 -17 -3 -59 c-2 -32 -14 -115 -27 -184 -27 -141 -63 -441 -72
-605 -3 -60 -9 -118 -12 -127 -5 -13 -41 17 -157 132 -162 158 -180 170 -275
170 -33 0 -58 -8 -92 -30 -26 -16 -50 -37 -53 -45 -3 -8 -28 -28 -55 -45 -27
-16 -65 -49 -86 -72 -20 -24 -80 -86 -133 -138 -130 -127 -159 -167 -154 -207
6 -56 32 -171 66 -294 l33 -119 486 0 487 0 6 31 c3 17 6 57 7 88 0 31 8 137
17 236 l17 180 75 3 c57 2 72 0 63 -9 -6 -6 -26 -14 -45 -18 -19 -4 -34 -14
-36 -24 -4 -20 8 -21 60 -6 29 8 39 16 44 37 9 46 18 55 74 69 76 20 203 11
375 -27 77 -17 185 -40 240 -50 147 -29 256 -61 385 -115 194 -81 320 -118
523 -155 37 -7 67 -16 67 -20 0 -5 -24 -44 -54 -87 -29 -43 -61 -90 -71 -105
l-17 -28 582 0 582 0 -5 27 c-53 299 -93 495 -117 568 -35 107 -103 408 -106
466 -3 79 -23 172 -39 185 -14 11 -56 245 -74 414 -6 52 -16 223 -22 380 -16
421 3 817 62 1320 22 182 29 314 19 364 l-6 30 -73 -77 c-41 -42 -78 -77 -82
-77 -7 0 -113 -66 -279 -175 -77 -50 -208 -130 -270 -163 -36 -20 -96 -54
-135 -77 -38 -23 -125 -74 -192 -114 -68 -40 -123 -74 -123 -76 0 -11 91 25
195 75 109 54 222 118 470 268 48 28 88 52 90 52 6 0 212 127 265 164 29 20
55 36 59 36 8 0 51 -38 51 -45 0 -2 -6 -34 -14 -72 -8 -37 -17 -88 -20 -113
-4 -25 -9 -61 -11 -80 -3 -19 -12 -120 -21 -225 -8 -104 -22 -264 -30 -355
-31 -337 -35 -738 -8 -781 2 -5 9 -81 14 -171 6 -90 22 -246 37 -348 35 -243
35 -234 -2 -238 -203 -18 -406 -65 -538 -123 -51 -23 -121 -53 -157 -67 -75
-30 -75 -30 -68 -37 3 -3 18 0 32 7 22 9 32 9 47 -1 18 -10 34 -6 117 33 53
24 122 52 152 61 30 9 71 23 90 30 48 17 318 60 327 52 4 -4 -3 -20 -15 -35
-12 -15 -51 -67 -87 -117 -35 -49 -73 -101 -84 -115 -30 -39 -267 -358 -350
-470 -58 -79 -78 -100 -98 -100 -31 0 -245 44 -341 70 -39 11 -145 49 -235 84
-166 65 -234 85 -462 131 -71 15 -168 36 -215 47 -110 27 -404 36 -430 13 -8
-7 -35 -18 -60 -24 -103 -24 -102 -24 -84 147 8 79 12 147 10 151 -6 9 64 348
99 481 14 52 36 150 50 217 13 67 36 151 50 186 14 35 32 88 41 118 9 30 27
73 40 95 20 34 31 43 63 48 26 4 46 15 58 31 17 23 24 25 103 26 80 1 156 10
208 25 15 4 22 2 22 -8 0 -24 -70 -180 -97 -216 -27 -37 -18 -42 21 -11 46 36
116 191 142 314 27 129 34 233 31 510 -1 151 -1 275 0 275 2 0 61 -25 131 -55
71 -30 136 -55 144 -55 9 0 28 6 42 14 l26 13 -35 6 c-20 3 -64 19 -98 35 -34
17 -101 43 -147 60 -117 42 -217 80 -265 102 -22 10 -101 41 -175 70 -74 29
-155 62 -180 73 -25 11 -85 37 -135 58 -274 114 -455 199 -540 253 -64 42
-193 164 -215 205 -8 16 -38 62 -66 102 -58 84 -111 185 -145 279 -17 45 -25
58 -27 43 -4 -24 3 -41 89 -218 60 -126 191 -321 235 -352 14 -10 44 -32 67
-50 38 -29 140 -95 204 -133 17 -10 27 -25 28 -45 2 -17 8 -61 14 -98 6 -38 9
-87 6 -110 -4 -30 -2 -38 5 -31 6 6 14 61 17 123 3 61 9 111 13 111 14 0 150
-70 151 -78 0 -4 3 -29 6 -57 22 -191 -15 -392 -107 -580 -27 -56 -59 -110
-71 -120 -22 -20 -22 -20 -15 0 17 45 47 169 61 251 18 104 31 398 21 467 -15
96 -46 35 -46 -89 0 -30 -4 -43 -15 -46 -13 -2 -17 -24 -20 -118 -7 -186 -41
-370 -92 -490 -48 -113 -63 -139 -142 -236 -10 -12 56 -24 132 -24 58 0 44
-14 -39 -38 -67 -20 -78 -21 -88 -8 -12 17 -80 21 -158 10 -37 -5 -66 0 -147
26 -56 18 -101 37 -101 42 0 5 8 8 18 6 13 -2 16 3 14 22 -4 39 -18 46 -51 27
-41 -24 -69 -21 -145 12 -76 35 -71 23 -85 211 -6 74 -17 200 -25 280 -65 634
-81 868 -64 993 l12 97 52 -51 c50 -49 53 -55 60 -117 5 -52 12 -70 32 -89 43
-40 49 -30 33 55 -9 46 -3 51 34 26 15 -10 34 -14 49 -10 21 5 27 0 46 -39 16
-32 34 -52 61 -66 44 -22 48 -15 19 41 -11 22 -20 46 -20 54 0 8 -14 35 -30
60 -17 24 -37 62 -46 83 -9 21 -29 67 -46 103 -108 233 -147 321 -162 367 -28
85 -76 330 -88 448 -6 61 -13 112 -15 115 -7 8 -23 -24 -23 -50 l-1 -25 -11
25 c-19 43 -21 -1 -4 -90 18 -95 19 -112 5 -87 -8 14 -39 25 -39 14 0 -16 67
-261 90 -327 32 -95 76 -298 66 -307 -4 -4 -13 2 -21 13 -7 12 -30 41 -49 65
-89 111 -106 125 -106 94 0 -8 4 -15 8 -15 4 0 16 -22 26 -49 10 -28 24 -56
33 -62 8 -7 22 -30 30 -52 10 -24 21 -36 29 -33 7 3 27 -11 43 -30 30 -33 40
-64 23 -64 -14 0 -122 117 -122 132 0 7 -8 18 -19 25 -20 13 -118 148 -145
201 -22 43 -3 41 27 -2 15 -23 27 -32 36 -27 12 8 -13 63 -59 131 -9 14 -20
45 -24 69 -4 24 -15 68 -26 99 -23 66 -23 62 -10 62 6 0 10 -7 10 -15 0 -8 5
-15 10 -15 6 0 10 10 10 23 0 25 -40 152 -56 181 -19 32 -23 -4 -7 -63 7 -30
11 -59 9 -65 -2 -6 -5 0 -5 13 -1 20 -3 21 -16 11 -8 -7 -15 -23 -15 -36 0
-29 -18 -41 -26 -17 -8 24 -17 45 -58 136 -20 44 -36 82 -36 86 0 3 -14 42
-31 86 -40 104 -113 350 -144 490 -32 144 -63 349 -85 565 l-18 175 -1 -130z
m582 -1931 l67 -95 0 -148 c0 -146 -1 -151 -56 -372 -30 -123 -61 -253 -69
-289 -15 -74 -61 -285 -75 -345 -5 -22 -16 -69 -25 -105 -8 -36 -19 -83 -24
-105 -30 -138 -50 -183 -92 -206 -14 -7 -12 8 13 89 78 256 106 391 158 762
26 190 41 791 20 830 -10 18 -3 80 9 79 3 0 36 -43 74 -95z m328 -261 c13 -16
12 -17 -3 -4 -17 13 -22 21 -14 21 2 0 10 -8 17 -17z m79 -96 c0 -5 -18 6 -41
24 -30 24 -37 34 -27 40 9 6 22 -2 40 -24 15 -17 28 -36 28 -40z m-294 -547
c8 -91 22 -232 30 -315 7 -82 20 -206 28 -275 8 -69 16 -145 18 -170 l2 -45
-34 3 c-19 1 -40 8 -46 15 -7 7 -24 84 -39 172 -14 88 -30 176 -35 195 -19 72
-42 258 -44 340 0 47 5 117 12 155 13 69 57 261 70 300 4 11 10 -32 14 -95 5
-63 15 -189 24 -280z m1332 20 c35 -17 79 -30 97 -30 44 0 53 -15 56 -85 1
-35 8 -67 16 -77 24 -27 63 -608 42 -608 -6 0 -22 -9 -37 -20 -31 -23 -156
-57 -242 -66 -30 -3 -86 -18 -125 -32 -53 -20 -90 -27 -152 -27 -72 -1 -101 5
-75 17 4 2 26 28 48 58 196 259 278 489 277 773 0 147 -4 144 95 97z m263 -90
c22 -12 38 -24 35 -28 -2 -4 12 -8 32 -9 19 -1 38 -5 41 -10 9 -13 129 -73
145 -73 25 0 72 -53 86 -97 13 -41 29 -57 31 -30 0 6 4 3 9 -8 11 -28 17 -512
7 -598 -9 -79 -21 -117 -39 -118 -19 -1 -40 -6 -60 -14 -21 -8 -24 5 -6 23 10
10 10 15 -2 22 -8 5 -12 10 -10 12 3 2 14 8 24 14 30 16 29 29 -1 44 -51 26
-143 85 -143 93 0 4 8 7 18 7 29 1 -29 29 -61 30 -15 0 -30 7 -33 15 -3 8 -14
17 -25 20 -28 9 -24 35 6 35 14 0 33 9 42 20 10 11 25 20 35 20 9 0 19 4 22 9
6 9 -48 21 -95 21 -16 0 -30 7 -33 16 -4 9 -16 128 -27 263 -15 168 -25 249
-34 256 -16 13 -24 85 -10 85 3 0 24 -9 46 -20z m-1736 -122 c11 -97 73 -451
100 -565 4 -17 -2 -25 -22 -36 -26 -12 -33 -10 -94 20 -84 43 -135 53 -141 27
-5 -19 -5 -18 -13 0 -5 12 0 43 13 85 26 79 103 390 127 509 10 47 22 31 30
-40z m-289 -686 c-12 -11 -18 7 -10 30 l8 23 4 -23 c2 -13 1 -26 -2 -30z
m1094 -197 c0 -19 -40 -20 -66 0 -18 13 -16 14 24 15 31 0 42 -4 42 -15z
m1275 5 c-3 -5 -11 -10 -16 -10 -6 0 -7 5 -4 10 3 6 11 10 16 10 6 0 7 -4 4
-10z m1215 -1830 c-6 -11 -13 -20 -16 -20 -2 0 0 9 6 20 6 11 13 20 16 20 2 0
0 -9 -6 -20z"/>
<path d="M1287 5868 c-9 -7 -29 -42 -45 -78 -41 -90 -69 -241 -142 -761 -11
-80 -32 -197 -46 -260 -14 -63 -27 -122 -29 -132 -2 -9 -6 -21 -9 -25 -2 -4
-7 -28 -11 -52 -18 -125 45 63 71 210 7 41 18 98 23 125 11 52 30 179 56 380
18 138 81 454 98 493 6 15 18 38 27 52 17 25 32 60 27 60 -2 0 -11 -6 -20 -12z"/>
<path d="M7530 5856 c0 -2 7 -6 15 -10 8 -3 15 -1 15 4 0 6 -7 10 -15 10 -8 0
-15 -2 -15 -4z"/>
<path d="M6875 5841 c-3 -5 -2 -12 3 -15 5 -3 9 1 9 9 0 17 -3 19 -12 6z"/>
<path d="M7480 5710 c0 -5 16 -10 35 -10 19 0 35 5 35 10 0 6 -16 10 -35 10
-19 0 -35 -4 -35 -10z"/>
<path d="M4781 5680 c0 -8 8 -31 19 -50 11 -19 19 -28 19 -20 0 8 -8 31 -19
50 -11 19 -19 28 -19 20z"/>
<path d="M7366 5672 c-4 -8 76 -72 89 -72 3 0 5 7 5 15 0 8 -17 26 -37 40 -41
27 -49 30 -57 17z"/>
<path d="M3010 5540 c0 -6 6 -21 14 -33 8 -12 19 -53 26 -92 32 -201 33 -206
22 -217 -11 -11 -15 -5 -34 52 -3 8 -9 -3 -13 -25 -13 -78 -46 -188 -70 -240
-14 -28 -25 -57 -25 -64 0 -28 -155 -311 -221 -402 -76 -106 -227 -293 -298
-369 -33 -36 -63 -73 -67 -83 -7 -21 6 -39 13 -19 3 6 11 12 19 12 12 0 12 -4
-1 -30 -8 -16 -24 -34 -34 -39 -14 -8 -22 -30 -30 -78 -26 -157 -102 -417
-142 -484 -58 -100 -85 -253 -54 -312 12 -23 13 -38 5 -74 -13 -56 -8 -73 42
-147 55 -80 81 -144 75 -182 -4 -26 0 -37 26 -62 43 -40 179 -141 304 -225
118 -80 230 -185 257 -241 10 -21 21 -57 23 -80 3 -23 12 -61 20 -85 18 -56
15 -58 -97 -75 -8 -1 -14 -9 -12 -18 4 -27 -44 -51 -103 -53 -30 -1 -64 -9
-77 -17 -13 -9 -56 -32 -97 -52 -40 -21 -84 -48 -97 -61 -13 -13 -32 -29 -41
-34 -14 -8 -15 -10 -3 -11 8 0 38 14 65 30 59 35 75 37 75 10 0 -11 -4 -20 -9
-20 -5 0 -11 -7 -14 -14 -4 -10 -1 -13 9 -9 7 3 14 8 14 12 0 3 17 25 38 47
30 34 52 46 108 63 91 27 107 27 99 1 -10 -32 18 -24 38 10 32 54 42 39 55
-84 7 -62 13 -144 13 -182 2 -81 10 -126 25 -131 6 -2 16 80 28 234 14 196 21
244 37 271 10 18 19 42 19 53 0 16 7 19 46 19 60 0 184 21 184 31 0 15 -37 19
-140 15 -92 -4 -105 -7 -108 -23 -8 -42 -21 -31 -27 23 -10 89 -23 130 -55
177 -35 52 -57 73 -93 86 -17 7 -27 18 -27 31 0 28 24 25 62 -8 43 -37 78 -47
78 -22 0 11 -4 22 -10 25 -5 3 -10 21 -10 38 0 34 -32 92 -43 80 -4 -3 -7 -15
-7 -25 0 -23 -21 -23 -49 0 l-22 17 0 645 c1 355 5 692 11 750 12 129 38 387
46 455 4 34 3 47 -4 40 -20 -20 -41 -122 -41 -195 0 -82 -13 -139 -26 -108 -4
10 -4 37 -1 60 9 62 12 148 5 148 -4 0 -19 -16 -34 -36 -21 -27 -28 -49 -30
-90 -2 -30 0 -52 5 -49 12 7 20 -21 20 -67 0 -38 1 -39 18 -22 16 17 17 16 20
-15 2 -18 -2 -80 -9 -139 -9 -76 -13 -292 -14 -736 -1 -411 -4 -631 -11 -633
-5 -2 -20 6 -32 17 -17 17 -22 32 -22 75 0 54 -23 141 -42 160 -7 7 -9 -20 -5
-83 2 -51 0 -95 -5 -98 -5 -3 -23 8 -41 26 l-32 31 -5 567 c-4 406 -7 543 -14
483 -5 -47 -9 -302 -9 -568 l-1 -483 -23 0 c-13 0 -55 14 -94 32 l-70 31 6 37
c7 39 -1 57 -84 221 -24 47 -42 97 -46 130 -3 30 -11 79 -17 109 -23 110 -12
154 72 300 43 76 62 131 85 255 24 127 51 228 71 266 22 43 133 189 144 189 4
0 13 14 19 31 10 30 138 210 206 290 77 92 230 379 261 488 9 31 24 63 34 72
9 8 21 25 24 37 8 25 31 29 40 7 3 -9 1 -39 -5 -67 -7 -29 -9 -82 -6 -118 7
-87 39 -250 49 -250 4 0 15 14 24 31 12 25 14 40 6 73 -6 22 -15 82 -21 131
-7 50 -16 110 -21 135 -13 63 -14 138 -1 185 26 97 -2 298 -47 333 -19 15 -62
16 -62 2z m-535 -2999 c3 -5 1 -12 -4 -15 -10 -7 -61 31 -61 45 0 11 55 -15
65 -30z m78 -36 c27 -26 36 -55 17 -55 -19 0 -73 57 -66 68 10 17 18 15 49
-13z m115 -75 c22 -20 30 -60 13 -60 -18 0 -61 42 -61 61 0 25 21 24 48 -1z
m209 -605 c-6 -81 -14 -106 -28 -84 -14 22 -11 147 4 152 27 12 30 4 24 -68z"/>
<path d="M7531 5454 c0 -11 3 -14 6 -6 3 7 2 16 -1 19 -3 4 -6 -2 -5 -13z"/>
<path d="M7532 5380 c0 -14 2 -19 5 -12 2 6 2 18 0 25 -3 6 -5 1 -5 -13z"/>
<path d="M3252 5330 c0 -14 2 -19 5 -12 2 6 2 18 0 25 -3 6 -5 1 -5 -13z"/>
<path d="M3975 5200 c-14 -22 83 -115 101 -97 9 9 -67 107 -82 107 -7 0 -16
-4 -19 -10z"/>
<path d="M7502 5020 c0 -19 2 -27 5 -17 2 9 2 25 0 35 -3 9 -5 1 -5 -18z"/>
<path d="M4089 4999 l-24 -21 25 7 c14 4 42 9 63 12 49 7 48 23 -2 23 -25 0
-47 -7 -62 -21z"/>
<path d="M4227 4922 c-20 -22 -22 -33 -4 -26 15 6 40 44 29 44 -5 0 -16 -8
-25 -18z"/>
<path d="M4355 4920 c-3 -5 -1 -10 4 -10 6 0 11 5 11 10 0 6 -2 10 -4 10 -3 0
-8 -4 -11 -10z"/>
<path d="M7681 4864 c0 -11 3 -14 6 -6 3 7 2 16 -1 19 -3 4 -6 -2 -5 -13z"/>
<path d="M7691 4744 c0 -11 3 -14 6 -6 3 7 2 16 -1 19 -3 4 -6 -2 -5 -13z"/>
<path d="M3015 4697 c-12 -23 -16 -46 -12 -73 10 -80 45 -265 50 -270 13 -13
47 8 46 29 0 35 -54 335 -60 341 -3 4 -14 -9 -24 -27z"/>
<path d="M1386 4603 c-34 -113 -65 -220 -96 -328 -57 -200 -90 -304 -100 -310
-6 -3 -10 -18 -10 -33 0 -19 8 -32 29 -44 35 -19 43 -9 34 45 -3 23 3 59 21
110 14 41 26 82 26 91 0 8 4 26 9 40 9 23 12 24 40 13 41 -15 50 -3 21 28 -21
22 -22 29 -12 46 10 16 10 22 -1 34 -12 12 -11 26 10 102 25 93 56 254 49 260
-1 2 -11 -23 -20 -54z"/>
<path d="M978 4472 c-8 -20 -32 -89 -53 -152 -21 -63 -48 -141 -62 -174 -13
-32 -22 -60 -20 -62 5 -5 48 97 101 236 46 123 75 252 34 152z"/>
<path d="M2857 4483 c-11 -21 -16 -47 -13 -75 3 -24 10 -113 16 -198 14 -185
15 -189 37 -167 15 15 15 32 -1 229 -10 117 -19 220 -20 228 -1 9 -9 2 -19
-17z"/>
<path d="M1720 4410 c-10 -19 -8 -27 14 -58 14 -21 22 -38 16 -40 -18 -6 -11
-22 9 -22 11 0 28 -13 38 -30 22 -38 39 -33 35 11 -2 22 -15 46 -37 69 -19 19
-40 48 -49 64 l-14 28 -12 -22z"/>
<path d="M6298 4319 c-16 -6 -28 -17 -28 -24 0 -17 -57 -65 -76 -65 -18 0 -64
29 -64 40 0 4 16 11 35 14 19 4 35 11 35 16 0 11 -402 2 -491 -11 -36 -6 -115
-31 -175 -55 -60 -25 -119 -48 -131 -51 -28 -6 -29 -17 -4 -51 10 -15 21 -40
25 -55 11 -47 88 -165 146 -226 71 -73 138 -116 218 -141 88 -27 99 -13 16 19
-135 53 -219 119 -243 193 -15 44 -5 72 44 124 21 21 44 49 52 61 8 12 23 25
33 28 11 3 21 14 25 23 5 17 79 63 150 94 28 12 68 17 132 17 l92 1 46 -40
c25 -22 49 -40 53 -40 21 1 102 63 102 78 0 5 9 12 19 15 19 5 20 -2 23 -117
3 -105 0 -131 -21 -196 -47 -149 -113 -222 -241 -268 l-35 -12 40 6 c21 3 51
12 65 19 36 19 115 93 142 135 70 106 105 260 91 400 -9 82 -17 90 -75 69z"/>
<path d="M2083 4291 c-27 -12 -50 -47 -38 -59 2 -2 21 12 42 31 43 40 42 49
-4 28z"/>
<path d="M2010 4220 c-13 -8 -12 -10 3 -10 9 0 17 5 17 10 0 12 -1 12 -20 0z"/>
<path d="M2972 4110 c0 -19 2 -27 5 -17 2 9 2 25 0 35 -3 9 -5 1 -5 -18z"/>
<path d="M781 3987 c-11 -14 -6 -27 10 -27 5 0 13 9 19 20 8 16 8 20 -3 20 -8
0 -20 -6 -26 -13z"/>
<path d="M9992 3895 c0 -16 2 -22 5 -12 2 9 2 23 0 30 -3 6 -5 -1 -5 -18z"/>
<path d="M2570 3823 c0 -65 3 -84 11 -73 8 11 9 7 5 -17 -3 -18 -1 -35 5 -38
6 -4 9 31 7 101 -2 75 -7 109 -15 112 -10 3 -13 -18 -13 -85z"/>
<path d="M7480 3761 c0 -11 5 -23 10 -26 6 -4 10 5 10 19 0 14 -4 26 -10 26
-5 0 -10 -9 -10 -19z"/>
<path d="M10015 3715 c25 -171 24 -167 21 -72 -2 49 -9 94 -15 100 -9 9 -11 2
-6 -28z"/>
<path d="M10138 3721 c-3 -19 1 -55 8 -80 12 -45 12 -45 12 -11 0 19 -3 55 -7
80 l-7 45 -6 -34z"/>
<path d="M1640 3733 c0 -5 5 -15 10 -23 8 -12 10 -11 10 8 0 12 -4 22 -10 22
-5 0 -10 -3 -10 -7z"/>
<path d="M739 3693 c46 -41 49 -62 8 -64 -32 -2 72 -18 188 -30 55 -5 121 -12
147 -15 26 -3 64 0 85 6 61 19 149 63 136 67 -6 2 -24 -2 -40 -10 -55 -29
-168 -39 -297 -26 -125 12 -157 22 -191 59 -11 12 -33 29 -50 37 -25 12 -23 8
14 -24z"/>
<path d="M1360 3674 l-35 -14 35 5 c19 3 39 10 44 15 14 14 -2 12 -44 -6z"/>
<path d="M1605 3665 c-16 -13 -25 -24 -19 -25 6 0 21 11 34 25 30 32 24 32
-15 0z"/>
<path d="M1660 3670 c-1 -3 -3 -30 -4 -60 -3 -73 -24 -109 -98 -171 -64 -53
-107 -76 -168 -90 -19 -4 -60 -14 -90 -23 -88 -24 -213 -36 -385 -36 -88 0
-169 -3 -181 -6 -19 -5 -59 -72 -49 -82 10 -11 58 11 62 28 5 19 15 20 158 20
177 0 283 12 415 46 198 52 331 152 363 273 14 53 32 61 130 61 57 1 68 3 53
12 -11 6 -51 9 -100 6 -66 -4 -83 -2 -93 11 -7 9 -13 14 -13 11z"/>
<path d="M698 3623 c7 -3 16 -2 19 1 4 3 -2 6 -13 5 -11 0 -14 -3 -6 -6z"/>
<path d="M4296 3571 c-7 -10 9 -199 24 -284 16 -95 20 -107 31 -107 13 0 4
270 -12 348 -10 48 -28 67 -43 43z"/>
<path d="M10052 3380 c0 -14 2 -19 5 -12 2 6 2 18 0 25 -3 6 -5 1 -5 -13z"/>
<path d="M864 3158 c-32 -24 -68 -50 -79 -60 -11 -9 -31 -25 -44 -35 -13 -11
-22 -25 -20 -32 3 -9 18 -2 45 20 22 19 60 50 84 69 75 60 95 79 84 80 -6 0
-37 -19 -70 -42z"/>
<path d="M381 3120 c-7 -28 -11 -53 -8 -56 6 -7 30 82 25 96 -2 7 -10 -11 -17
-40z"/>
<path d="M4378 3139 c-22 -12 -23 -46 -2 -159 9 -55 17 -182 21 -356 5 -237 4
-274 -11 -302 -21 -42 -21 -42 20 -42 26 0 33 3 27 13 -4 6 -6 111 -5 232 3
156 -1 246 -11 310 -10 63 -12 111 -6 160 17 147 11 170 -33 144z"/>
<path d="M10218 3100 c-7 -31 -5 -56 12 -153 10 -53 17 -73 21 -60 11 27 10
55 -1 48 -6 -4 -10 14 -11 47 0 29 -4 73 -8 98 -6 38 -8 41 -13 20z"/>
<path d="M340 2992 c0 -10 -4 -22 -9 -27 -4 -6 -11 -28 -14 -49 -6 -38 -6 -38
9 -18 9 14 13 31 9 43 -5 15 -4 19 4 15 7 -5 11 4 11 23 0 17 -2 31 -5 31 -3
0 -5 -8 -5 -18z"/>
<path d="M8847 2904 c-4 -4 -7 -19 -6 -33 l0 -26 10 24 c10 26 8 47 -4 35z"/>
<path d="M10262 2860 c0 -19 2 -27 5 -17 2 9 2 25 0 35 -3 9 -5 1 -5 -18z"/>
<path d="M296 2854 c-10 -27 -7 -66 5 -58 6 3 8 17 5 30 -4 14 -2 24 4 24 5 0
10 5 10 10 0 16 -17 12 -24 -6z"/>
<path d="M9121 2759 c1 -19 5 -47 10 -64 5 -20 6 -9 2 30 -6 66 -14 88 -12 34z"/>
<path d="M252 2713 c-23 -61 -49 -153 -44 -158 9 -9 31 32 34 64 1 17 5 31 9
31 8 0 23 79 16 86 -2 3 -9 -8 -15 -23z"/>
<path d="M10296 2683 c5 -24 2 -34 -9 -38 -13 -5 -12 -13 5 -58 11 -29 28 -70
38 -92 9 -22 23 -58 30 -80 7 -22 19 -52 27 -67 7 -16 9 -28 4 -28 -6 0 -9
-22 -8 -50 1 -29 7 -50 13 -50 9 0 22 -34 28 -73 1 -4 7 -12 15 -16 7 -5 11
-13 7 -19 -3 -6 -2 -13 4 -17 6 -4 8 -11 5 -16 -4 -5 5 -30 18 -57 13 -26 29
-58 34 -72 6 -14 18 -43 28 -65 10 -22 18 -43 17 -47 -1 -5 2 -8 7 -8 5 0 15
-16 21 -35 13 -40 33 -38 24 3 -5 25 -4 25 9 10 8 -10 17 -15 20 -11 4 3 7 -6
7 -20 0 -15 5 -27 10 -27 6 0 10 -6 10 -13 0 -7 8 -22 18 -33 16 -18 21 -33
25 -79 2 -23 73 -161 87 -170 6 -4 10 16 10 49 0 66 -44 181 -60 156 -8 -13
-10 -12 -10 3 0 9 -9 25 -21 35 -29 24 -50 68 -42 89 3 10 3 15 -2 11 -16 -14
-98 130 -194 342 -6 14 -24 45 -39 70 -48 76 -50 128 -2 58 l21 -33 -6 49 c-4
27 -16 70 -27 95 -32 72 -35 79 -74 196 -39 119 -58 161 -48 108z m474 -1074
c0 -6 -4 -7 -10 -4 -5 3 -10 11 -10 16 0 6 5 7 10 4 6 -3 10 -11 10 -16z"/>
<path d="M8867 2629 c4 -13 8 -18 11 -10 2 7 -1 18 -6 23 -8 8 -9 4 -5 -13z"/>
<path d="M191 2514 c0 -11 3 -14 6 -6 3 7 2 16 -1 19 -3 4 -6 -2 -5 -13z"/>
<path d="M176 2465 c-5 -16 -18 -48 -31 -70 -31 -56 -57 -139 -53 -172 2 -22
9 -13 36 52 18 44 32 88 32 98 0 10 7 32 16 48 8 17 14 40 11 52 -3 19 -4 18
-11 -8z"/>
<path d="M9260 2415 c0 -5 5 -17 10 -25 5 -8 10 -10 10 -5 0 6 -5 17 -10 25
-5 8 -10 11 -10 5z"/>
<path d="M10201 2384 c0 -11 3 -14 6 -6 3 7 2 16 -1 19 -3 4 -6 -2 -5 -13z"/>
<path d="M10221 2334 c0 -11 3 -14 6 -6 3 7 2 16 -1 19 -3 4 -6 -2 -5 -13z"/>
<path d="M1332 2279 c5 -15 65 -47 101 -54 15 -3 27 -11 27 -18 0 -30 -122
-257 -144 -269 -20 -11 -56 -109 -54 -150 0 -18 1 -63 1 -100 0 -38 1 -68 4
-68 13 0 44 99 39 127 -6 43 21 153 45 178 19 20 19 20 14 -15 -3 -19 7 1 23
45 50 137 93 239 110 258 21 24 3 40 -48 43 -23 1 -52 9 -65 18 -28 19 -58 21
-53 5z"/>
<path d="M10227 2220 c2 -36 11 -108 19 -160 8 -52 17 -117 18 -145 2 -27 1
-38 -1 -22 -2 15 -8 25 -14 22 -5 -3 -6 1 -3 9 3 9 1 16 -5 16 -6 0 -11 11
-11 24 0 14 -5 28 -11 32 -7 4 -9 0 -5 -14 4 -11 11 -44 16 -74 21 -128 86
-363 149 -536 72 -199 173 -422 190 -422 17 0 13 13 -33 103 -50 99 -111 251
-165 414 -32 94 -36 116 -25 127 9 10 10 23 4 52 -17 73 -50 256 -50 278 0 17
-2 19 -11 6 -8 -12 -9 -9 -5 13 4 15 4 33 0 38 -4 6 -8 32 -10 58 -6 83 -26
191 -35 186 -4 -3 -10 9 -12 27 -2 18 -2 4 0 -32z"/>
<path d="M1130 2250 c-294 -80 -326 -90 -287 -90 46 0 407 99 407 111 0 12 1
12 -120 -21z"/>
<path d="M2025 2271 c2 -5 22 -11 42 -15 70 -11 248 -89 257 -113 4 -10 -20
-80 -56 -163 -67 -153 -80 -218 -19 -94 21 43 49 104 60 134 32 81 43 100 57
100 7 0 58 -25 115 -55 56 -30 107 -55 112 -55 20 0 -1 -24 -30 -34 -53 -18
-46 -23 24 -14 36 4 67 9 69 11 2 2 -11 17 -29 34 -32 32 -161 101 -228 122
-20 6 -49 25 -65 42 -38 39 -118 77 -185 88 -101 17 -129 20 -124 12z"/>
<path d="M1875 2230 c-11 -5 -32 -9 -47 -9 -27 -1 -35 -10 -21 -24 3 -4 13 -1
20 5 8 7 55 14 104 16 49 3 89 8 89 13 0 11 -118 10 -145 -1z"/>
<path d="M1570 2210 c0 -5 5 -10 11 -10 5 0 7 5 4 10 -3 6 -8 10 -11 10 -2 0
-4 -4 -4 -10z"/>
<path d="M1680 2210 c-19 -6 -11 -8 33 -9 32 -1 57 3 57 9 0 12 -54 12 -90 0z"/>
<path d="M14 2179 c-3 -6 -2 -15 3 -20 5 -5 9 -1 9 11 0 23 -2 24 -12 9z"/>
<path d="M10543 2155 c3 -11 9 -32 13 -47 3 -16 10 -28 15 -28 5 0 9 -10 9
-22 1 -21 2 -21 11 -5 13 22 -6 80 -34 105 -19 16 -19 16 -14 -3z"/>
<path d="M9358 2095 c-3 -14 -1 -28 3 -31 5 -3 9 9 9 25 0 38 -6 40 -12 6z"/>
<path d="M1813 2045 c0 -27 2 -38 4 -22 2 15 2 37 0 50 -2 12 -4 0 -4 -28z"/>
<path d="M16 2046 c-9 -19 -16 -49 -16 -68 l0 -33 14 26 c7 14 15 36 18 50 3
13 9 32 13 42 14 32 -13 17 -29 -17z"/>
<path d="M10600 2030 c0 -12 11 -42 25 -68 14 -26 25 -53 25 -59 0 -7 5 -13
10 -13 18 0 10 44 -15 85 -13 22 -25 48 -25 58 0 24 -20 21 -20 -3z"/>
<path d="M9369 1978 c4 -28 6 -29 9 -9 2 13 0 27 -5 32 -6 6 -7 -3 -4 -23z"/>
<path d="M9341 1995 c1 -19 18 -51 18 -35 0 8 -4 22 -9 30 -5 8 -9 11 -9 5z"/>
<path d="M2310 1955 c0 -8 5 -15 10 -15 6 0 10 7 10 15 0 8 -4 15 -10 15 -5 0
-10 -7 -10 -15z"/>
<path d="M2373 1883 c-70 -57 -83 -69 -83 -78 0 -9 51 23 65 40 6 6 24 19 41
28 37 19 59 43 45 51 -5 3 -35 -15 -68 -41z"/>
<path d="M1813 1880 c0 -25 2 -35 4 -22 2 12 2 32 0 45 -2 12 -4 2 -4 -23z"/>
<path d="M9346 1894 c-4 -14 -5 -28 -3 -31 3 -2 8 8 11 23 4 14 5 28 3 31 -3
2 -8 -8 -11 -23z"/>
<path d="M2263 1787 c-4 -7 -16 -16 -25 -20 -10 -3 -18 -11 -18 -16 0 -15 48
8 55 27 7 20 -1 27 -12 9z"/>
<path d="M9420 1733 c0 -21 3 -24 9 -14 5 8 7 20 4 28 -8 21 -13 15 -13 -14z"/>
<path d="M10610 1747 c0 -7 5 -18 11 -24 7 -7 8 -17 1 -30 -10 -18 4 -61 20
-63 4 0 15 -3 23 -7 27 -10 27 3 0 35 -14 16 -25 39 -25 50 0 27 -10 52 -21
52 -5 0 -9 -6 -9 -13z"/>
<path d="M2173 1707 c-20 -10 -49 -55 -41 -63 2 -2 20 12 41 31 49 45 49 56 0
32z"/>
<path d="M9433 1688 c-27 -13 -28 -14 -2 -58 11 -19 18 -27 15 -17 -18 57 -18
67 -2 67 9 0 16 5 16 10 0 12 1 12 -27 -2z"/>
<path d="M2420 1665 c-20 -24 -6 -28 15 -5 10 11 13 20 8 20 -6 0 -16 -7 -23
-15z"/>
<path d="M2076 1615 c-16 -12 -17 -15 -4 -15 8 0 21 7 28 15 16 19 1 19 -24 0z"/>
<path d="M1989 1556 c-7 -14 -10 -29 -6 -32 10 -11 48 17 45 33 -5 27 -27 26
-39 -1z"/>
<path d="M10661 1564 c0 -11 3 -14 6 -6 3 7 2 16 -1 19 -3 4 -6 -2 -5 -13z"/>
<path d="M9480 1536 c0 -43 225 -306 343 -401 40 -32 50 -36 58 -24 5 8 24 38
42 67 17 28 37 52 44 52 17 0 83 -40 83 -50 0 -5 -4 -11 -10 -15 -5 -3 -7 -12
-4 -19 3 -8 -8 -38 -25 -68 -17 -30 -31 -57 -31 -61 0 -9 116 -87 129 -87 6 0
15 9 21 20 8 16 7 22 -10 32 -29 18 -25 29 6 18 28 -11 46 2 59 43 8 21 18 21
55 2 35 -18 34 -15 14 -63 -15 -37 -15 -37 12 -57 158 -115 245 -185 332 -270
57 -55 119 -108 137 -117 41 -21 45 -28 51 -75 7 -59 14 -52 14 15 0 54 -3 63
-27 82 -26 20 -37 34 -84 107 -11 17 -35 41 -54 51 -21 13 -35 31 -40 51 -8
39 -73 138 -116 179 -30 29 -90 72 -271 195 -86 58 -162 104 -223 134 -104 51
-208 100 -267 128 -32 14 -58 29 -58 33 0 4 -17 16 -37 26 -21 10 -46 22 -55
27 -10 5 -23 9 -28 9 -6 0 -22 12 -35 28 -21 24 -24 25 -25 8z"/>
<path d="M1890 1455 c-11 -13 -10 -14 4 -9 9 3 16 10 16 15 0 13 -6 11 -20 -6z"/>
<path d="M10700 1460 c0 -5 5 -10 11 -10 5 0 7 5 4 10 -3 6 -8 10 -11 10 -2 0
-4 -4 -4 -10z"/>
<path d="M5130 1441 c0 -15 41 -54 97 -92 51 -36 236 -126 278 -135 28 -7 29
-6 16 10 -8 10 -58 40 -110 67 -53 26 -112 57 -131 68 -19 11 -46 22 -60 25
-14 3 -40 19 -58 37 -17 17 -32 26 -32 20z"/>
<path d="M1836 1401 c-19 -21 -21 -38 -3 -44 9 -3 8 -12 -5 -36 -21 -37 -12
-40 21 -5 13 14 30 23 38 19 9 -3 13 0 10 7 -2 7 -12 12 -22 11 -13 -1 -16 5
-13 28 6 37 -4 44 -26 20z"/>
<path d="M10742 1390 c0 -14 2 -19 5 -12 2 6 2 18 0 25 -3 6 -5 1 -5 -13z"/>
<path d="M10768 1315 c2 -14 8 -25 12 -25 4 0 5 11 2 25 -2 14 -8 25 -12 25
-4 0 -5 -11 -2 -25z"/>
<path d="M1770 1260 c-6 -11 -9 -20 -7 -20 2 0 14 9 27 20 18 16 19 20 7 20
-9 0 -21 -9 -27 -20z"/>
<path d="M10780 1273 c0 -5 5 -15 10 -23 8 -12 10 -11 10 8 0 12 -4 22 -10 22
-5 0 -10 -3 -10 -7z"/>
<path d="M1626 1164 c-11 -7 -17 -17 -13 -20 3 -4 14 1 23 10 21 22 15 28 -10
10z"/>
<path d="M5570 1111 c0 -5 5 -13 10 -16 6 -3 10 -2 10 4 0 5 -4 13 -10 16 -5
3 -10 2 -10 -4z"/>
<path d="M1360 977 c-25 -34 -53 -57 -82 -69 -14 -6 -18 -3 -18 13 0 12 -5 19
-12 17 -18 -6 -22 -39 -6 -49 8 -6 9 -9 1 -9 -6 0 -19 7 -27 15 -18 18 -32 13
-100 -37 -21 -15 -49 -28 -61 -28 -27 0 -58 -33 -79 -82 -19 -47 -7 -48 41 -5
41 35 95 77 152 118 38 27 61 28 61 2 0 -13 2 -13 17 -2 15 13 16 12 11 -8
-12 -44 19 -24 61 40 22 34 48 72 57 85 9 12 15 25 12 27 -2 3 -15 -10 -28
-28z"/>
<path d="M9874 845 c-32 -53 -68 -110 -79 -128 -68 -111 -265 -379 -397 -539
-74 -90 -88 -113 -88 -143 l0 -35 49 0 c47 0 51 2 104 60 86 93 261 304 351
425 119 158 256 356 256 369 0 6 -105 75 -125 82 -6 3 -38 -38 -71 -91z"/>
<path d="M10210 890 c-9 -18 -3 -23 62 -57 90 -46 111 -55 104 -44 -8 12 -142
121 -149 121 -4 0 -11 -9 -17 -20z"/>
<path d="M10124 733 c-84 -152 -334 -503 -470 -660 -30 -33 -54 -64 -54 -67 0
-3 67 -6 148 -6 l148 0 17 28 c9 15 31 43 48 62 29 34 29 33 -5 -20 -20 -30
-36 -58 -36 -62 0 -5 13 -8 28 -8 24 0 34 10 75 78 54 90 107 204 107 230 0
40 196 264 303 345 20 15 37 31 37 35 0 4 -33 16 -72 26 -40 10 -109 34 -153
52 -44 19 -80 34 -82 34 -1 0 -19 -30 -39 -67z"/>
<path d="M10360 535 c0 -8 8 -15 18 -15 23 0 131 -56 161 -83 37 -34 51 -79
57 -179 7 -123 13 -158 26 -158 15 0 4 232 -14 282 -19 54 -70 103 -143 138
-69 33 -105 38 -105 15z"/>
<path d="M3633 328 c-41 -25 -42 -44 -8 -164 14 -49 30 -106 35 -127 11 -36
12 -37 60 -37 28 0 50 2 50 3 0 2 -10 33 -21 68 -12 35 -32 108 -45 163 -12
54 -26 102 -31 106 -4 4 -23 -2 -40 -12z"/>
<path d="M10787 228 c6 -121 11 -127 12 -15 0 53 -3 97 -7 97 -5 0 -7 -37 -5
-82z"/>
<path d="M5250 223 c0 -6 72 -12 173 -16 134 -5 194 -11 272 -31 164 -40 308
-56 283 -31 -3 3 -45 12 -94 19 -49 8 -132 24 -184 36 -105 24 -450 41 -450
23z"/>
<path d="M4965 195 l-40 -13 35 -1 c19 0 46 6 60 14 22 13 23 14 5 14 -11 0
-38 -6 -60 -14z"/>
<path d="M790 123 c-6 -21 -13 -57 -17 -80 -5 -38 -3 -43 13 -43 17 0 19 9 22
80 1 44 0 80 -2 80 -3 0 -10 -17 -16 -37z"/>
<path d="M7811 118 c-1 -9 4 -39 11 -67 8 -38 16 -51 29 -51 17 0 17 3 -2 48
-12 26 -25 56 -29 67 -7 16 -9 17 -9 3z"/>
<path d="M3480 50 c0 -46 2 -50 24 -50 23 0 24 2 14 33 -5 17 -12 40 -15 50
-10 34 -23 16 -23 -33z"/>
<path d="M6200 65 c0 -13 137 -65 169 -64 20 0 29 3 21 6 -8 3 -48 18 -88 34
-70 27 -102 35 -102 24z"/>
<path d="M2810 10 c0 -5 5 -10 10 -10 6 0 10 5 10 10 0 6 -4 10 -10 10 -5 0
-10 -4 -10 -10z"/>
</g>
</svg>
