<?xml version="1.0" standalone="no"?>
<!DOCTYPE svg PUBLIC "-//W3C//DTD SVG 20010904//EN"
 "http://www.w3.org/TR/2001/REC-SVG-20010904/DTD/svg10.dtd">
<svg version="1.0" xmlns="http://www.w3.org/2000/svg"
 width="640.000000pt" height="640.000000pt" viewBox="0 0 640.000000 640.000000"
 preserveAspectRatio="xMidYMid meet">

<g transform="translate(0.000000,640.000000) scale(0.100000,-0.100000)"
fill="#000000" stroke="none">
<path d="M3488 6393 c6 -2 18 -2 25 0 6 3 1 5 -13 5 -14 0 -19 -2 -12 -5z"/>
<path d="M3815 6372 c-16 -15 -30 -38 -31 -50 l-1 -22 21 22 c12 12 21 25 21
28 1 3 6 15 13 28 16 28 14 28 -23 -6z"/>
<path d="M4390 6391 c0 -8 -23 -60 -126 -279 -68 -146 -77 -184 -78 -333 -1
-132 0 -136 27 -178 35 -53 49 -46 18 9 -26 46 -37 123 -25 177 l8 38 6 -55
c5 -41 7 -22 8 70 2 139 9 157 65 187 32 16 121 43 145 43 17 0 15 -28 -8 -95
-21 -62 -26 -130 -10 -140 6 -4 10 12 10 40 0 25 9 73 21 107 11 33 19 70 17
82 -5 37 -91 23 -200 -32 -16 -8 -7 27 21 84 16 32 48 104 71 159 23 55 44
106 47 113 3 6 0 12 -6 12 -6 0 -11 -4 -11 -9z"/>
<path d="M4964 6368 c6 -34 66 -486 66 -500 0 -4 6 -8 14 -8 10 0 11 9 5 43
-5 23 -20 134 -34 247 -31 241 -32 250 -46 250 -7 0 -9 -12 -5 -32z"/>
<path d="M5005 6380 c3 -14 17 -65 30 -115 20 -75 43 -218 71 -443 3 -24 8
-41 11 -38 4 3 0 51 -7 106 -7 55 -11 103 -8 106 7 6 22 -45 72 -250 36 -146
55 -202 56 -163 0 10 -38 168 -84 350 -46 183 -87 364 -92 402 -4 39 -10 59
-12 46 l-4 -25 -20 25 -20 24 7 -25z"/>
<path d="M5151 6373 c28 -70 109 -317 109 -330 0 -14 -4 -13 -22 3 -17 15 -15
9 8 -26 37 -55 67 -131 89 -228 26 -109 10 -109 -65 2 -24 36 -46 63 -48 61
-3 -2 11 -37 31 -77 19 -40 45 -106 58 -145 13 -40 27 -73 31 -73 10 0 2 67
-11 104 -16 41 2 31 39 -21 39 -55 48 -63 73 -63 14 0 16 5 11 25 -3 14 -4 25
0 25 18 0 129 -271 123 -303 -3 -20 -5 -18 -20 13 -29 61 -18 8 19 -95 79
-220 131 -476 139 -675 3 -81 2 -108 -5 -90 -11 28 -10 17 16 -205 9 -71 21
-190 27 -263 7 -78 16 -131 22 -130 34 9 43 -151 20 -322 -18 -132 -19 -204
-3 -194 8 5 9 0 4 -17 -11 -36 -17 -419 -7 -389 5 14 10 63 11 110 2 119 24
308 33 292 5 -7 6 -21 2 -31 -3 -11 -1 -68 5 -129 10 -101 10 -113 -10 -168
-14 -39 -22 -90 -24 -149 -2 -52 0 -79 4 -65 5 14 9 50 10 80 3 70 12 112 26
117 7 2 17 -68 28 -204 10 -115 20 -210 22 -212 8 -9 3 93 -16 339 -34 428
-38 753 -10 735 10 -6 36 -85 45 -139 5 -28 9 -36 15 -26 7 11 11 9 19 -10 23
-59 172 -407 181 -422 6 -10 10 -22 10 -28 0 -5 11 -33 24 -62 55 -121 141
-377 220 -653 l14 -50 1 58 c1 55 -38 215 -103 427 -13 41 -34 111 -46 155
-12 44 -33 116 -46 160 -12 44 -35 121 -49 170 -15 50 -35 117 -45 150 -10 33
-30 98 -44 145 -47 156 -124 404 -151 485 -22 64 -29 109 -36 230 -15 258 -40
467 -55 452 -2 -2 2 -55 10 -118 20 -161 28 -302 17 -318 -11 -17 -24 47 -41
199 -28 254 -81 497 -157 720 -19 58 -42 130 -50 160 -7 30 -20 61 -27 70 -27
30 -146 290 -165 362 -11 40 -39 147 -61 238 -23 91 -57 210 -76 264 -19 55
-34 101 -34 103 0 2 -6 3 -14 3 -11 0 -7 -20 16 -87 50 -151 119 -404 116
-427 -3 -19 -6 -17 -22 13 -10 18 -44 111 -76 205 -93 275 -101 296 -111 296
-5 0 -4 -12 2 -27z m225 -578 c19 -46 46 -163 42 -183 -6 -34 -38 38 -56 127
-19 93 -12 118 14 56z m285 -677 c47 -157 79 -293 79 -335 0 -66 -17 -22 -44
115 -14 73 -40 174 -56 224 -30 91 -40 152 -19 116 5 -9 23 -63 40 -120z m107
-466 c14 -63 16 -145 3 -122 -7 13 -31 152 -31 182 0 27 17 -10 28 -60z m17
-229 c19 -81 38 -343 31 -428 -3 -33 -5 -73 -6 -90 l-1 -30 -20 24 c-17 21
-20 37 -18 115 1 86 -5 240 -17 404 -6 92 9 94 31 5z m66 -382 l-7 -56 -6 94
c-4 52 -4 99 0 105 11 19 21 -85 13 -143z m77 -106 c38 -122 161 -527 174
-575 5 -19 27 -93 49 -165 84 -276 95 -315 85 -315 -6 0 -24 39 -81 175 -20
50 -46 109 -56 132 -11 23 -19 44 -19 47 0 3 -33 81 -74 173 -40 93 -90 207
-110 255 l-37 87 6 118 c7 140 14 189 24 177 4 -5 22 -54 39 -109z"/>
<path d="M3660 6362 c0 -5 25 -10 56 -11 36 -1 53 2 49 9 -7 12 -105 14 -105
2z"/>
<path d="M2945 6322 c-38 -16 -143 -71 -175 -92 -8 -5 -69 -30 -135 -55 -191
-73 -230 -91 -230 -106 0 -17 41 -25 58 -11 25 19 125 70 177 89 30 12 87 40
125 62 106 63 150 81 208 88 28 3 61 10 72 16 19 10 19 11 -5 18 -38 11 -51 9
-95 -9z"/>
<path d="M3757 6272 c-24 -26 -23 -50 1 -29 10 10 19 24 19 32 0 19 0 19 -20
-3z"/>
<path d="M3495 6261 c-3 -6 3 -9 14 -8 11 0 17 5 15 9 -7 11 -22 10 -29 -1z"/>
<path d="M3573 6263 c15 -2 39 -2 55 0 15 2 2 4 -28 4 -30 0 -43 -2 -27 -4z"/>
<path d="M4620 5973 c0 -25 46 -57 141 -99 139 -61 149 -65 149 -55 0 4 -42
25 -92 46 -131 53 -157 67 -179 94 -10 13 -19 19 -19 14z"/>
<path d="M2194 5843 c-33 -27 -65 -54 -73 -61 -7 -7 -21 -12 -30 -10 -10 2
-21 -7 -28 -24 -6 -15 -29 -38 -51 -52 -22 -14 -43 -30 -47 -35 -4 -7 -14 -7
-31 -1 -45 17 -197 11 -286 -11 -70 -17 -133 -22 -403 -29 -176 -5 -363 -14
-415 -19 -220 -24 -265 -31 -275 -44 -5 -7 -18 -16 -28 -20 -16 -6 -15 -11 12
-64 16 -32 34 -85 41 -118 22 -115 72 -289 106 -373 46 -115 84 -179 165 -277
63 -76 68 -85 62 -118 -5 -34 -3 -37 48 -69 61 -38 140 -72 243 -103 75 -23
94 -46 62 -77 -58 -59 -72 -138 -32 -185 27 -32 95 -58 126 -48 29 9 27 -10
-29 -228 -105 -406 -150 -707 -177 -1177 -8 -135 -10 -143 -39 -137 -32 6 -32
-1 0 -13 14 -5 25 -16 25 -25 0 -8 4 -15 9 -15 12 0 22 27 15 43 -13 35 41
418 118 822 47 250 58 325 58 400 0 76 63 351 74 325 3 -8 10 -40 15 -70 9
-53 9 -52 6 25 -2 44 -8 91 -13 105 -5 14 -8 43 -6 65 2 30 0 26 -8 -15 -14
-76 -22 -83 -82 -77 -67 6 -90 33 -83 100 3 33 11 56 27 70 15 15 24 18 27 10
10 -27 40 -56 52 -49 8 5 6 15 -9 36 -25 35 -25 36 0 67 21 27 13 53 -16 53
-8 0 -14 11 -14 26 0 19 -15 40 -55 76 -30 28 -52 55 -49 59 3 5 22 7 42 4
106 -13 153 -15 147 -5 -8 13 -66 27 -148 35 l-68 7 -33 71 c-51 109 -109 200
-193 301 -49 58 -40 64 20 14 28 -24 88 -71 132 -103 129 -95 183 -144 283
-255 52 -58 99 -106 103 -108 21 -8 6 23 -35 76 -80 103 -208 217 -411 367
-159 117 -286 264 -343 395 -13 30 -20 42 -17 25 3 -16 20 -57 36 -89 16 -33
27 -61 25 -63 -4 -4 -124 130 -149 167 -19 28 -23 100 -6 100 8 0 8 4 0 14
-14 17 -3 20 144 36 157 17 344 27 545 29 183 2 340 15 372 32 46 25 300 34
297 11 0 -4 -24 -27 -52 -52 -62 -53 -149 -150 -155 -170 -2 -8 9 -1 24 15 75
84 106 115 115 115 15 0 -26 -63 -100 -155 -78 -96 -122 -165 -144 -225 -23
-61 -21 -75 2 -25 42 90 248 354 373 478 60 59 106 112 103 116 -5 9 104 110
136 125 19 9 26 26 10 26 -5 0 -35 -21 -67 -47z m-114 -119 c0 -3 -27 -33 -60
-66 -73 -75 -80 -62 -9 16 46 50 69 67 69 50z m-1383 -457 c40 -51 118 -148
173 -217 56 -69 120 -154 144 -190 39 -58 126 -221 126 -235 0 -3 -42 -5 -93
-5 l-93 0 -75 90 c-123 150 -198 314 -254 555 -9 39 -18 76 -20 83 -12 36 28
0 92 -81z m518 -741 c103 -102 83 -120 -72 -64 -66 23 -97 41 -125 70 -21 21
-38 43 -38 48 0 6 37 10 85 10 l84 0 66 -64z m-251 38 c4 -10 1 -14 -6 -12
-15 5 -23 28 -10 28 5 0 13 -7 16 -16z m342 -975 c-17 -96 -38 -203 -72 -374
-20 -105 -23 -111 -18 -50 7 81 43 307 73 449 12 55 22 104 23 110 0 6 3 -3 5
-20 2 -18 -3 -69 -11 -115z"/>
<path d="M5356 5587 c3 -10 9 -15 12 -12 3 3 0 11 -7 18 -10 9 -11 8 -5 -6z"/>
<path d="M5112 5565 c2 -5 29 -62 60 -125 61 -124 70 -150 122 -328 79 -273
127 -554 131 -771 3 -146 -7 -193 -18 -86 -8 73 -55 304 -56 275 0 -14 4 -52
9 -85 22 -128 39 -287 51 -455 10 -147 9 -210 -5 -395 -19 -259 -40 -604 -61
-985 -8 -151 -19 -291 -25 -310 -13 -45 -13 -184 1 -155 6 13 7 -2 3 -45 -3
-36 -6 -272 -7 -525 -1 -460 8 -649 38 -840 10 -58 11 -91 5 -93 -6 -2 -8 -13
-6 -25 3 -12 10 -92 16 -177 7 -85 18 -173 25 -195 7 -22 18 -86 25 -143 l13
-102 29 0 c26 0 28 3 28 38 0 97 -22 322 -45 460 -25 154 -30 200 -19 189 3
-3 23 -115 45 -248 21 -133 41 -244 43 -246 7 -7 265 340 295 396 11 20 7 27
-58 87 -154 143 -251 312 -295 519 -14 66 -28 136 -30 155 -3 19 -14 78 -24
130 -11 52 -24 131 -28 175 -13 116 -11 433 2 480 38 130 80 528 97 905 15
356 15 1087 -1 1260 -25 263 -65 508 -114 690 -11 41 -24 89 -28 105 -28 105
-101 292 -143 367 -34 58 -83 126 -75 103z m314 -2350 c-3 -121 -12 -256 -20
-300 l-14 -80 -1 75 c-1 97 17 462 26 520 12 81 16 10 9 -215z m-59 -997 c-3
-8 -6 -5 -6 6 -1 11 2 17 5 13 3 -3 4 -12 1 -19z m97 -1180 c21 -50 21 -51
-14 -33 -49 25 -57 50 -64 180 l-6 120 34 -115 c19 -63 42 -132 50 -152z m-67
-555 c-3 -10 -5 -2 -5 17 0 19 2 27 5 18 2 -10 2 -26 0 -35z"/>
<path d="M637 5510 c18 -4 67 -7 110 -7 l78 0 -60 7 c-33 4 -82 8 -110 8 -44
0 -46 -1 -18 -8z"/>
<path d="M3300 5509 c0 -9 11 -61 24 -115 49 -202 99 -513 94 -584 l-3 -42
-42 83 c-23 46 -51 104 -62 129 -12 25 -18 34 -15 20 3 -14 36 -86 72 -160
l67 -135 3 -279 c3 -270 -1 -326 -32 -541 -16 -108 -44 -246 -51 -254 -3 -2
-5 -1 -5 2 0 4 -11 44 -24 90 -25 87 -70 319 -80 422 -27 250 -36 347 -46 460
-26 305 -86 803 -95 793 -2 -2 5 -79 15 -171 11 -93 22 -268 25 -390 6 -225 9
-265 46 -577 49 -421 126 -704 219 -810 l31 -35 -37 73 c-40 82 -40 75 0 242
25 106 49 286 63 480 8 100 9 104 33 111 l25 7 -27 1 c-28 1 -28 2 -28 64 0
35 -3 105 -6 155 -4 53 -3 92 2 92 15 -1 184 -254 184 -276 0 -7 -26 -17 -62
-23 l-63 -10 77 3 77 3 71 -86 c39 -47 121 -137 182 -199 61 -62 109 -114 107
-117 -2 -2 -48 -13 -102 -24 -54 -11 -126 -33 -160 -49 -66 -32 -121 -75 -110
-86 3 -3 29 -6 56 -6 l49 0 -26 -34 c-37 -49 -32 -54 14 -12 57 52 69 45 20
-11 -44 -50 -74 -106 -67 -126 2 -7 11 2 20 19 9 17 23 37 33 45 16 13 17 11
11 -32 -3 -25 -3 -59 2 -75 6 -23 9 -11 13 54 5 65 10 87 25 97 31 24 40 17
47 -39 9 -78 43 -183 79 -243 34 -58 42 -63 52 -32 4 13 0 28 -12 41 -10 12
-12 18 -6 14 14 -8 40 3 45 19 2 6 11 9 22 7 12 -1 16 3 13 11 -4 10 4 9 30
-4 30 -15 38 -16 66 -4 29 12 50 41 41 57 -3 4 24 6 58 5 l63 -2 3 -35 c7
-106 -145 -199 -262 -160 -44 14 -55 8 -31 -17 26 -26 126 -23 184 5 25 12 48
22 52 22 4 0 23 10 43 23 49 31 76 97 83 204 l6 86 -35 -7 c-37 -7 -68 0 -68
15 0 20 42 49 69 49 29 0 29 1 19 36 -5 20 -7 38 -4 41 3 4 23 -1 44 -9 27
-11 42 -12 54 -4 10 6 20 8 23 4 12 -11 5 -174 -9 -213 -16 -45 -11 -60 10
-31 13 18 14 17 14 -17 0 -26 -4 -37 -14 -37 -8 0 -17 -4 -20 -9 -4 -5 3 -7
14 -4 20 5 20 0 20 -338 0 -337 5 -395 31 -359 7 10 9 164 6 492 -3 374 -2
483 8 502 7 14 10 27 7 31 -4 4 1 11 11 17 13 7 15 13 7 22 -14 18 4 31 53 40
21 4 41 14 44 22 9 25 -6 29 -39 9 -38 -22 -104 -27 -119 -9 -6 8 -15 12 -19
9 -4 -3 -13 2 -20 10 -15 18 1 21 29 5 17 -9 18 -4 15 63 -5 103 -23 338 -34
432 -5 44 -12 118 -15 165 -4 47 -9 93 -11 103 -9 31 10 17 37 -26 30 -47 139
-274 139 -288 0 -5 21 -55 46 -111 l47 -103 9 -200 c10 -227 -4 -663 -27 -840
-10 -79 -31 -160 -74 -290 -65 -197 -81 -253 -112 -402 -28 -136 -69 -436 -60
-446 4 -4 15 50 25 120 10 70 22 134 27 143 7 10 8 4 3 -20 -9 -40 -9 -79 0
-87 3 -3 13 0 22 8 15 12 16 10 10 -26 -9 -61 -24 -200 -32 -297 -3 -49 -9
-88 -13 -88 -4 0 -13 -42 -20 -92 -7 -51 -14 -100 -16 -108 -1 -8 -3 65 -4
162 0 97 -5 179 -10 182 -14 9 -24 -233 -17 -416 12 -321 76 -686 166 -944 16
-47 41 -131 54 -187 14 -56 40 -151 59 -212 27 -89 37 -111 53 -113 18 -3 20
2 17 30 l-3 33 10 -32 c8 -26 16 -33 36 -33 25 0 25 2 19 42 -4 24 -14 60 -21
80 -7 21 -25 84 -40 140 -15 57 -33 110 -41 119 -7 8 -13 21 -13 27 0 6 -12
51 -26 99 -45 154 -57 323 -51 713 6 343 27 618 72 930 49 345 49 344 36 336
-16 -11 -70 -354 -91 -586 -6 -69 -16 -165 -22 -215 -5 -49 -12 -281 -15 -515
l-6 -425 -23 74 c-28 90 -61 331 -69 501 -6 137 8 592 26 790 15 174 44 341
124 705 47 215 64 354 75 640 7 154 9 349 5 433 -5 108 -4 152 4 152 6 0 11
-8 12 -17 0 -12 2 -13 6 -5 3 7 -3 32 -12 55 -12 30 -20 91 -26 217 -4 96 -13
213 -18 260 -42 349 -79 566 -128 750 -19 74 -40 155 -46 180 -5 25 -12 40
-14 34 -2 -6 10 -78 26 -160 58 -288 109 -639 131 -899 6 -71 13 -150 15 -175
3 -25 2 -38 -1 -30 -20 48 -160 322 -228 445 -33 61 -41 87 -58 200 -24 165
-28 175 -22 50 l4 -100 -34 115 c-75 253 -163 482 -173 453 -2 -6 5 -31 15
-55 31 -68 88 -244 116 -353 67 -269 106 -599 106 -907 l0 -151 -30 7 c-22 4
-32 1 -36 -9 -6 -16 -31 -19 -58 -9 -9 3 -14 9 -11 13 8 14 -55 238 -130 466
-18 55 -38 116 -43 135 -9 30 -51 144 -147 395 -26 69 -111 245 -126 260 -15
15 -11 -12 7 -47 82 -158 262 -678 364 -1048 17 -63 35 -125 40 -137 11 -28
10 -28 -69 -32 l-64 -3 21 37 c33 54 27 74 -8 27 -17 -24 -35 -39 -42 -36 -29
13 -301 361 -292 375 7 11 258 6 288 -7 13 -5 17 -4 13 3 -9 14 -97 24 -225
25 l-104 1 -30 41 c-16 22 -52 82 -80 131 -27 50 -70 122 -94 160 -120 191
-154 264 -180 390 -31 151 -94 405 -105 425 -7 13 -8 13 -9 -1z m250 -804 c49
-88 93 -165 98 -171 6 -6 17 -25 26 -42 9 -17 27 -48 41 -68 31 -46 32 -64 1
-64 -18 0 -35 14 -62 53 -38 51 -164 274 -164 289 0 4 -6 5 -14 2 -16 -6 -21
16 -30 126 -6 77 -13 85 104 -125z m233 -374 c4 0 7 -10 7 -21 0 -11 4 -20 8
-20 5 0 14 -10 20 -22 5 -13 21 -36 34 -52 69 -86 95 -116 145 -169 30 -33 53
-61 51 -63 -7 -7 -188 182 -188 196 0 7 -3 11 -6 8 -7 -7 -133 134 -128 143 3
5 26 5 57 0z m672 -401 c7 -12 -2 -12 -30 0 -19 8 -19 9 2 9 12 1 25 -3 28 -9z
m25 -50 c20 -6 21 -8 5 -8 -11 0 -29 3 -40 8 -25 11 1 11 35 0z m-690 -49 c0
-5 10 -7 23 -3 20 5 21 4 7 -14 -23 -30 -32 -34 -77 -34 -53 0 -55 13 -5 39
42 23 52 25 52 12z m629 3 c17 -4 31 -11 31 -16 0 -12 -80 0 -94 13 -12 11 17
12 63 3z m81 -28 c0 -11 -19 -15 -25 -6 -3 5 1 10 9 10 9 0 16 -2 16 -4z
m-410 -51 c18 -22 5 -45 -25 -43 -17 2 -24 7 -20 16 3 8 5 20 5 28 0 18 24 18
40 -1z m-75 -40 c-7 -26 -9 -47 -4 -51 5 -3 9 -10 9 -15 0 -6 -4 -7 -10 -4 -5
3 -10 2 -10 -3 0 -5 -11 -15 -25 -22 -20 -11 -27 -11 -40 0 -23 19 -18 110 6
110 5 0 9 -16 9 -35 0 -27 4 -35 18 -35 13 0 22 13 31 50 7 28 17 50 21 50 5
0 3 -20 -5 -45z m35 -39 c0 -3 -4 -8 -10 -11 -5 -3 -10 -1 -10 4 0 6 5 11 10
11 6 0 10 -2 10 -4z m226 -47 c8 -14 -18 -31 -30 -19 -9 9 0 30 14 30 5 0 12
-5 16 -11z m371 -911 c-3 -8 -6 -5 -6 6 -1 11 2 17 5 13 3 -3 4 -12 1 -19z
m-32 -129 c-34 -128 -43 -157 -44 -139 -1 8 13 66 29 129 17 62 30 116 31 120
0 3 3 1 5 -5 3 -6 -7 -54 -21 -105z m-49 -195 c-4 -14 -9 -24 -12 -21 -3 2 -2
17 2 31 3 15 9 25 11 22 3 -3 2 -17 -1 -32z m-25 -121 c-8 -15 -10 -15 -11 -2
0 17 10 32 18 25 2 -3 -1 -13 -7 -23z m-38 -993 c4 -71 3 -98 -2 -70 -13 74
-22 217 -12 200 5 -8 11 -67 14 -130z m14 -222 c-2 -13 -4 -3 -4 22 0 25 2 35
4 23 2 -13 2 -33 0 -45z m151 -573 l0 -30 -9 30 c-23 79 -31 145 -10 85 11
-30 20 -68 19 -85z m69 -227 c-3 -7 -5 -2 -5 12 0 14 2 19 5 13 2 -7 2 -19 0
-25z"/>
<path d="M2921 5458 c-18 -49 -23 -186 -12 -400 21 -424 87 -806 193 -1123 32
-98 131 -309 172 -369 36 -53 96 -119 103 -112 6 6 -3 20 -72 111 -88 117
-203 392 -249 595 -9 41 -21 91 -26 110 -15 58 -58 336 -74 485 -35 318 -47
655 -25 697 6 11 8 22 5 25 -3 3 -10 -5 -15 -19z"/>
<path d="M3183 5435 c48 -239 108 -694 127 -965 6 -85 17 -222 25 -305 7 -82
17 -196 20 -253 4 -56 11 -105 16 -108 13 -8 11 131 -6 301 -39 411 -64 648
-86 820 -10 83 -19 152 -19 155 1 3 7 -6 16 -20 l15 -25 -7 25 c-3 14 -12 39
-20 55 -7 17 -27 100 -44 185 -17 85 -33 157 -37 160 -3 3 -3 -8 0 -25z"/>
<path d="M2571 5448 c-5 -28 -72 -252 -77 -257 -7 -6 1 139 11 194 3 17 -4 0
-14 -37 -12 -44 -21 -121 -26 -225 -4 -87 -13 -219 -21 -293 -18 -180 -18
-426 2 -585 9 -72 17 -139 18 -150 4 -34 18 -58 26 -45 9 15 39 -75 38 -115 0
-33 22 -125 54 -223 21 -65 20 -79 -6 -69 -32 12 -149 226 -186 340 -6 21 -14
37 -16 35 -8 -9 42 -143 94 -248 31 -63 58 -118 60 -122 2 -5 -14 -8 -35 -8
-66 0 -164 -20 -202 -41 -20 -11 -27 -17 -16 -13 49 17 143 34 180 32 22 -1
48 2 58 6 19 9 47 -9 47 -30 0 -10 -14 -14 -49 -14 -60 0 -111 -10 -111 -21 0
-5 10 -9 23 -10 14 -1 9 -5 -18 -13 -22 -6 -55 -21 -74 -33 l-35 -22 -37 21
c-21 12 -40 27 -43 35 -5 11 -2 340 3 493 0 13 8 71 16 129 9 57 14 106 11
108 -5 5 -22 -79 -31 -152 -12 -99 -15 -104 -56 -125 -21 -11 -39 -23 -39 -26
0 -3 5 -2 11 2 7 4 24 8 38 10 l26 3 -1 -227 c0 -125 2 -249 6 -277 6 -46 7
-47 8 -12 1 20 5 37 8 37 5 0 44 -19 52 -25 3 -3 -85 -134 -106 -157 -8 -10
-29 -18 -48 -18 -18 0 -36 -4 -39 -10 -3 -5 -1 -10 6 -10 8 0 7 -5 -2 -17 -15
-18 -16 -18 37 4 14 5 15 3 5 -15 -17 -32 -14 -48 7 -29 16 15 17 10 20 -78 2
-93 23 -164 57 -198 15 -16 9 -61 -7 -50 -7 4 -8 -13 -3 -52 5 -40 3 -55 -4
-51 -6 4 -11 0 -11 -8 0 -19 38 -163 50 -191 12 -27 42 -166 37 -172 -2 -2
-17 13 -32 34 -16 21 -37 46 -47 56 -17 17 -18 17 -18 0 0 -21 44 -89 83 -127
15 -15 27 -32 27 -39 -1 -25 -136 138 -171 205 l-11 23 21 -22 c12 -13 24 -23
27 -23 9 0 -7 43 -26 70 -18 26 -33 88 -31 130 2 30 -18 111 -30 124 -5 6 -9
-5 -10 -25 -1 -18 -4 -45 -8 -59 -7 -23 -11 -19 -40 45 -33 70 -130 355 -132
384 0 11 -3 10 -8 -4 -7 -16 -9 -13 -15 20 -10 52 -23 75 -42 75 -13 0 -15 -6
-9 -27 13 -52 34 -178 29 -182 -2 -3 -10 4 -18 14 -12 16 -13 14 -19 -27 -19
-141 -156 -381 -332 -581 -50 -57 -65 -81 -56 -87 11 -6 9 -14 -7 -36 -11 -16
-28 -65 -37 -109 -22 -107 -31 -137 -72 -228 -34 -76 -34 -80 -30 -178 5 -85
9 -105 29 -132 30 -40 50 -89 46 -112 -4 -23 18 -31 26 -10 3 8 -12 50 -34 93
-30 61 -42 99 -51 168 l-12 89 41 80 c28 54 49 116 65 190 13 61 30 122 38
136 29 54 70 110 84 116 8 3 15 12 15 19 0 8 39 65 86 127 80 105 194 306 194
345 1 22 37 65 49 58 5 -3 12 21 16 54 7 64 20 71 28 18 10 -69 67 -275 88
-318 11 -25 35 -74 52 -108 26 -55 30 -74 29 -135 -1 -48 4 -83 15 -107 14
-29 15 -62 10 -230 -3 -119 -14 -249 -27 -333 -24 -157 -69 -347 -94 -394 -9
-18 -19 -53 -23 -78 -5 -39 -10 -46 -32 -50 -14 -3 -47 -12 -72 -20 -26 -8
-54 -15 -63 -15 -9 0 -16 -4 -16 -10 0 -13 63 -13 76 -1 5 6 33 13 62 17 l52
7 0 -29 c0 -16 -7 -65 -15 -109 -40 -205 -56 -413 -49 -605 7 -185 22 -374 33
-420 5 -19 15 -61 21 -92 7 -38 16 -58 26 -58 18 0 17 11 -1 80 -40 149 -50
249 -50 535 0 332 11 441 72 722 3 12 18 33 34 47 16 15 29 31 29 38 0 6 6 4
13 -6 14 -20 63 -24 93 -8 16 9 27 7 51 -8 17 -10 40 -16 51 -13 11 2 23 0 26
-6 4 -6 16 -11 28 -11 18 0 19 -4 14 -34 -6 -30 -3 -36 29 -60 19 -15 54 -35
77 -45 l43 -19 -30 -7 c-49 -11 -55 -14 -55 -26 0 -10 26 -9 93 4 6 1 13 -9
15 -23 5 -34 102 -190 118 -190 9 0 13 19 13 64 0 95 25 177 50 161 7 -4 23
-32 37 -63 14 -32 37 -70 52 -85 29 -30 111 -77 136 -77 26 0 27 -18 7 -137
-19 -111 -33 -230 -47 -386 -3 -37 -8 -67 -11 -67 -3 0 -17 12 -32 28 -15 15
-56 55 -93 90 -63 58 -69 62 -115 62 -48 0 -69 -12 -158 -89 -53 -45 -195
-205 -195 -218 0 -10 14 -69 30 -132 17 -62 30 -115 30 -117 0 -2 130 -4 289
-4 l289 0 5 53 c4 28 9 93 12 142 9 125 9 125 56 125 24 0 38 -4 34 -10 -3 -5
-15 -10 -26 -10 -10 0 -19 -5 -19 -11 0 -7 9 -9 23 -5 12 3 25 6 28 6 4 0 9
11 13 23 8 33 70 50 144 41 124 -15 401 -84 501 -124 102 -41 274 -90 319 -90
12 0 22 -2 22 -6 0 -3 -18 -32 -40 -64 -22 -32 -40 -61 -40 -64 0 -4 153 -6
340 -6 290 0 340 2 340 14 0 32 -44 240 -81 386 -22 85 -45 191 -50 234 -6 43
-16 91 -23 105 -16 32 -43 209 -53 346 -13 192 -5 559 17 765 32 295 36 375
19 364 -8 -4 -22 -18 -31 -29 -24 -30 -381 -265 -402 -265 -2 0 -57 -31 -122
-70 -65 -38 -112 -70 -106 -70 13 0 160 71 222 107 75 43 278 164 332 198 31
19 63 35 71 35 22 0 29 -27 18 -69 -20 -76 -59 -530 -62 -721 -2 -74 3 -189
10 -255 14 -144 40 -343 47 -367 4 -14 -5 -18 -53 -23 -103 -12 -234 -47 -315
-83 -104 -48 -75 -62 31 -16 92 40 172 61 260 71 l66 6 -26 -34 c-15 -19 -37
-50 -50 -69 -13 -19 -84 -115 -157 -212 -118 -158 -137 -178 -162 -178 -53 0
-215 43 -327 86 -75 30 -174 57 -304 84 -211 44 -315 51 -367 24 -18 -8 -42
-14 -54 -12 -22 3 -23 6 -19 98 2 61 15 149 37 245 19 83 43 191 54 240 32
147 83 275 109 275 9 0 28 8 41 17 15 11 47 19 80 20 30 1 70 4 88 8 32 6 32
5 26 -22 -3 -15 -17 -47 -31 -71 -34 -60 -21 -65 16 -7 61 96 84 226 79 449
-1 91 0 166 5 166 4 0 37 -14 74 -30 36 -17 77 -30 91 -30 31 0 23 9 -21 26
-276 104 -624 249 -794 330 -89 43 -188 120 -215 168 -7 12 -26 43 -43 68 -16
25 -35 54 -42 64 -10 16 -10 14 -2 -11 17 -52 124 -198 170 -232 24 -18 67
-46 95 -63 55 -32 63 -50 65 -145 0 -32 2 -36 9 -20 8 19 9 19 9 -2 1 -12 -3
-25 -9 -28 -5 -3 -10 -34 -10 -68 0 -139 -42 -298 -101 -387 l-38 -55 45 -3
c54 -4 56 -15 7 -30 -26 -8 -40 -8 -50 0 -8 6 -33 8 -65 4 -38 -4 -70 -1 -112
12 -32 11 -54 22 -48 26 6 4 9 13 6 21 -4 11 -17 13 -47 9 -29 -3 -53 0 -77
13 l-35 18 -12 135 c-6 74 -20 235 -32 357 -21 219 -25 341 -12 396 l6 29 25
-29 c14 -15 30 -50 35 -78 8 -36 16 -51 29 -53 16 -4 18 1 13 31 l-5 35 35
-11 c21 -7 40 -21 48 -38 13 -23 42 -45 51 -36 5 5 -20 71 -37 97 -9 14 -46
93 -83 175 -50 111 -74 179 -91 260 -31 148 -39 215 -27 215 6 0 38 -54 72
-121 34 -66 64 -118 67 -116 6 7 -69 172 -145 321 -44 86 -57 120 -59 165 -2
31 0 62 5 69 14 20 71 -6 119 -55 24 -24 43 -41 43 -39 0 3 -20 34 -45 69 -25
36 -45 74 -45 85 0 16 26 57 70 110 6 6 18 12 26 12 9 0 -1 -16 -26 -38 -22
-22 -40 -45 -40 -53 0 -7 7 -3 16 10 9 13 37 36 63 52 41 27 46 28 52 12 3
-10 4 -43 1 -74 -4 -45 1 -67 25 -125 16 -39 47 -96 68 -128 37 -56 38 -57 57
-39 17 18 18 22 3 56 -22 53 -19 76 10 83 28 7 77 -3 86 -17 3 -6 18 -7 32 -3
19 4 27 13 27 29 0 16 8 25 26 29 37 10 46 -3 47 -72 1 -52 -2 -65 -23 -87
-50 -54 -116 -71 -152 -38 -20 18 -23 17 -32 -15 -6 -17 -4 -22 11 -20 10 2
37 -1 61 -6 36 -7 47 -5 62 10 10 11 36 30 58 43 22 13 45 35 52 49 19 42 31
183 19 220 -12 37 -12 37 -44 16 -14 -9 -33 -13 -45 -9 -45 14 -7 70 41 60 25
-6 28 -4 22 12 -3 10 -15 29 -25 43 -13 17 -16 26 -8 28 7 3 16 -2 21 -9 5 -9
9 -10 9 -2 0 12 -49 57 -72 66 -10 4 -10 8 2 16 12 8 8 11 -17 11 -35 0 -41 8
-21 28 14 14 3 28 -26 34 -30 5 -32 28 -2 28 22 0 86 -53 86 -72 0 -12 142
-143 181 -167 57 -34 48 -10 -11 28 -49 32 -134 128 -179 204 -13 20 -26 37
-31 37 -12 0 -124 230 -160 329 -17 47 -28 91 -25 99 3 9 1 18 -5 22 -14 8
-46 162 -61 290 -20 171 12 623 57 810 48 200 55 234 50 250 -2 8 -4 12 -5 8z
m2 -1638 c4 -19 -2 -8 -13 25 -11 33 -19 67 -19 75 1 19 24 -53 32 -100z m99
-147 c19 -31 19 -33 1 -33 -30 0 -39 12 -56 76 -24 85 -21 97 9 39 14 -27 35
-65 46 -82z m-47 -63 c3 -5 -1 -10 -9 -10 -8 0 -18 5 -21 10 -3 6 1 10 9 10 8
0 18 -4 21 -10z m-91 -189 c3 -4 -1 -17 -9 -27 -14 -18 -14 -18 -15 9 0 26 13
36 24 18z m66 -17 c0 -2 -7 -4 -15 -4 -8 0 -15 4 -15 10 0 5 7 7 15 4 8 -4 15
-8 15 -10z m-127 -9 c-3 -9 -8 -14 -10 -11 -3 3 -2 9 2 15 9 16 15 13 8 -4z
m245 -113 c2 -7 -3 -12 -12 -12 -9 0 -16 7 -16 16 0 17 22 14 28 -4z m-508
-22 c0 -5 -4 -10 -10 -10 -5 0 -10 5 -10 10 0 6 5 10 10 10 6 0 10 -4 10 -10z
m-63 -806 c33 -50 37 -64 39 -127 3 -82 -5 -132 -41 -267 -23 -85 -36 -140
-51 -220 -3 -14 -16 -74 -30 -135 -14 -60 -30 -131 -35 -157 -10 -42 -33 -78
-43 -67 -3 2 7 42 20 89 38 129 78 345 89 470 3 44 8 422 5 435 -3 15 -1 35 5
35 3 0 22 -25 42 -56z m223 -179 c20 -24 6 -28 -15 -5 -10 11 -13 20 -8 20 6
0 16 -7 23 -15z m-135 -575 c9 -74 18 -163 22 -196 l6 -62 -26 5 c-28 5 -30
13 -58 173 -6 36 -15 88 -20 115 -23 124 -14 260 24 375 10 32 12 20 24 -120
7 -85 19 -216 28 -290z m632 300 c40 -19 41 -20 48 -85 10 -98 -11 -204 -66
-322 -30 -64 -59 -98 -45 -52 32 104 39 154 40 289 1 133 0 145 -16 142 -13
-2 -18 4 -18 23 0 30 5 31 57 5z m-50 -62 c-3 -8 -6 -5 -6 6 -1 11 2 17 5 13
3 -3 4 -12 1 -19z m230 -16 c33 -7 39 -12 44 -42 4 -19 12 -59 18 -89 6 -29
13 -115 16 -191 l6 -137 -36 -17 c-19 -9 -70 -24 -113 -32 -42 -8 -93 -20
-112 -26 -19 -7 -54 -12 -77 -12 -37 -1 -41 1 -30 15 131 178 187 324 187 492
l0 78 30 -16 c16 -8 46 -19 67 -23z m180 -73 c90 -42 133 -73 133 -95 0 -7 7
-17 16 -22 13 -8 15 -35 12 -211 -3 -212 -5 -220 -49 -221 -20 0 -20 30 0 46
11 8 5 16 -30 37 -24 14 -52 35 -61 46 -10 12 -24 21 -32 21 -7 0 -19 6 -25
13 -8 11 -2 17 27 32 33 16 35 18 17 26 -11 4 -29 8 -40 8 -19 1 -22 12 -33
104 -7 56 -12 125 -12 154 0 28 -4 54 -9 57 -12 8 -21 46 -10 46 5 0 48 -18
96 -41z m-1061 -247 c14 -73 22 -137 19 -142 -9 -15 -38 -12 -63 5 -12 9 -39
18 -59 20 -21 2 -39 4 -40 4 -1 1 4 20 13 43 8 22 23 80 34 127 49 210 52 216
63 136 4 -33 19 -120 33 -193z m439 -312 c3 -6 -4 -10 -17 -10 -18 0 -20 2 -8
10 19 12 18 12 25 0z"/>
<path d="M3091 5424 c0 -11 3 -14 6 -6 3 7 2 16 -1 19 -3 4 -6 -2 -5 -13z"/>
<path d="M2236 5152 c-21 -161 -27 -352 -16 -500 6 -86 15 -177 20 -202 5 -25
9 -71 10 -103 0 -33 4 -56 9 -52 5 3 17 -21 26 -52 15 -58 23 -75 50 -123 10
-17 11 -28 3 -37 -6 -7 -7 -13 -2 -13 5 0 0 -8 -11 -16 -20 -16 -19 -16 4 -9
15 5 26 3 32 -6 7 -11 9 -10 9 3 0 9 8 19 18 21 13 4 13 5 -4 6 -18 1 -25 14
-44 89 -13 48 -31 118 -41 156 -42 160 -52 291 -47 592 4 267 -1 356 -16 246z"/>
<path d="M2391 5103 c-13 -25 -49 -207 -56 -278 -3 -44 2 -28 19 55 13 63 30
143 39 178 15 63 15 76 -2 45z"/>
<path d="M5221 5074 c0 -11 3 -14 6 -6 3 7 2 16 -1 19 -3 4 -6 -2 -5 -13z"/>
<path d="M2032 4983 c-153 -504 -177 -1279 -57 -1797 29 -125 34 -66 6 69 -46
214 -63 415 -64 725 -1 256 2 317 22 460 26 192 62 376 97 508 30 109 27 134
-4 35z"/>
<path d="M5241 5004 c0 -11 3 -14 6 -6 3 7 2 16 -1 19 -3 4 -6 -2 -5 -13z"/>
<path d="M5257 4950 c9 -53 25 -84 17 -35 -3 22 -10 47 -15 55 -5 10 -6 2 -2
-20z"/>
<path d="M5290 4822 c0 -6 4 -32 10 -59 5 -26 17 -83 26 -126 9 -43 18 -76 21
-74 5 5 -44 258 -52 265 -3 3 -5 0 -5 -6z"/>
<path d="M2330 4685 c0 -27 2 -46 5 -44 7 8 9 78 2 85 -4 4 -7 -14 -7 -41z"/>
<path d="M4874 4310 c0 -140 2 -198 3 -127 2 70 2 184 0 255 -1 70 -3 12 -3
-128z"/>
<path d="M1951 4130 c-1 -104 8 -190 21 -190 10 0 3 143 -12 230 -7 39 -8 34
-9 -40z"/>
<path d="M2661 4190 c-1 -16 22 -83 49 -146 10 -22 31 -85 45 -140 61 -222
156 -428 244 -526 48 -54 40 -27 -18 60 -55 81 -75 119 -131 247 -27 61 -61
177 -55 184 3 2 5 0 5 -6 0 -13 69 -103 124 -161 68 -73 250 -208 344 -256 19
-10 41 -15 50 -11 13 5 3 14 -38 37 -67 37 -120 72 -146 96 -10 9 -41 34 -69
54 -50 36 -159 145 -227 228 -51 61 -129 215 -171 340 -5 13 -6 13 -6 0z"/>
<path d="M1466 3988 c-4 -90 -14 -284 -21 -433 -8 -148 -20 -385 -26 -525 -11
-242 -13 -257 -37 -300 l-25 -45 30 30 c17 17 40 49 52 73 12 23 26 42 31 42
5 0 19 19 31 43 12 23 56 98 99 167 86 139 134 229 126 237 -3 3 -21 -21 -41
-53 -21 -33 -45 -70 -54 -84 -10 -14 -32 -50 -49 -81 -18 -31 -39 -63 -48 -70
-18 -14 -17 -8 7 264 10 103 7 178 -6 165 -8 -8 -24 -148 -39 -334 -10 -124
-19 -192 -30 -213 -25 -48 -38 -39 -32 22 3 28 8 122 11 207 3 85 12 245 20
355 14 189 22 681 12 691 -2 2 -7 -69 -11 -158z"/>
<path d="M5322 4090 c0 -14 2 -19 5 -12 2 6 2 18 0 25 -3 6 -5 1 -5 -13z"/>
<path d="M2418 4073 c7 -3 16 -2 19 1 4 3 -2 6 -13 5 -11 0 -14 -3 -6 -6z"/>
<path d="M5303 3970 c-17 -127 -26 -307 -13 -260 12 48 33 277 28 320 -2 23
-7 4 -15 -60z"/>
<path d="M2263 4030 c-34 -14 -28 -21 7 -9 17 6 30 13 30 15 0 6 -12 4 -37 -6z"/>
<path d="M3809 3958 c-72 -38 -109 -63 -127 -88 -13 -19 -16 -26 -6 -15 34 38
98 75 129 75 16 1 41 7 55 15 l25 15 -30 -5 c-21 -4 -12 4 30 24 33 16 52 30
43 30 -9 1 -63 -23 -119 -51z"/>
<path d="M952 3753 c-30 -57 -82 -296 -82 -373 0 -23 -18 -8 -27 23 -10 30
-10 28 -7 -18 2 -27 4 -142 5 -255 1 -114 5 -192 9 -175 4 17 8 53 9 82 0 28
6 55 11 58 6 3 10 51 10 108 0 108 24 345 42 412 5 22 19 63 30 92 21 57 37
65 77 37 22 -16 23 -15 19 2 -5 27 -83 33 -96 7z"/>
<path d="M1986 3685 c2 -22 9 -87 14 -145 6 -58 13 -184 16 -280 7 -231 10
-257 35 -263 18 -5 20 -2 15 36 -6 46 -13 135 -22 272 -10 161 -34 356 -48
388 l-14 32 4 -40z"/>
<path d="M1066 3663 c4 -10 9 -97 10 -193 1 -96 4 -224 5 -285 l3 -110 6 120
c14 233 11 423 -5 455 -16 32 -33 42 -19 13z"/>
<path d="M5273 3635 c0 -22 2 -30 4 -17 2 12 2 30 0 40 -3 9 -5 -1 -4 -23z"/>
<path d="M1802 3585 c-1 -60 28 -260 46 -325 14 -48 15 -9 1 43 -5 23 -18 110
-29 192 -12 107 -18 133 -18 90z"/>
<path d="M5171 3594 c0 -11 3 -14 6 -6 3 7 2 16 -1 19 -3 4 -6 -2 -5 -13z"/>
<path d="M5227 3253 c-28 -248 -49 -509 -63 -743 -3 -69 -12 -136 -19 -150
-12 -24 -27 -325 -27 -520 1 -47 -3 -119 -7 -160 -7 -66 -8 -56 -10 83 0 97
-5 157 -11 157 -22 0 -3 546 35 997 27 322 32 454 10 293 -13 -97 -35 -351
-57 -655 -8 -104 -13 -384 -13 -723 0 -518 1 -554 18 -567 15 -11 19 -39 27
-206 5 -107 14 -232 20 -279 12 -107 15 -293 6 -341 -5 -25 1 -88 18 -190 14
-85 28 -175 32 -201 l6 -48 90 0 90 0 -6 43 c-12 88 -48 493 -71 797 -9 113
-18 213 -21 224 -4 10 -7 75 -8 145 -3 148 -22 278 -45 305 -20 23 -23 152 -4
164 19 12 45 164 49 292 l4 115 -25 -115 c-13 -63 -25 -118 -25 -122 0 -5 -9
-8 -21 -8 -21 0 -21 0 -15 283 9 366 22 641 47 957 32 410 32 420 27 420 -2 0
-16 -111 -31 -247z m-37 -1499 c0 -47 -4 -73 -10 -69 -17 10 -11 145 6 145 2
0 4 -34 4 -76z m-83 -216 c-2 -13 -4 -3 -4 22 0 25 2 35 4 23 2 -13 2 -33 0
-45z m0 -135 c-3 -10 -5 -4 -5 12 0 17 2 24 5 18 2 -7 2 -21 0 -30z m109 -28
c4 -33 3 -47 -3 -40 -6 6 -13 32 -17 60 -4 33 -3 46 4 39 5 -5 13 -32 16 -59z
m14 -65 c0 -5 -2 -10 -4 -10 -3 0 -8 5 -11 10 -3 6 -1 10 4 10 6 0 11 -4 11
-10z"/>
<path d="M5925 3430 c3 -36 10 -96 15 -135 5 -38 14 -122 20 -185 6 -63 16
-149 20 -190 5 -41 14 -149 20 -240 12 -178 50 -517 76 -670 23 -139 53 -291
63 -320 5 -14 14 -51 21 -83 6 -32 14 -57 16 -55 3 4 0 27 -30 198 -8 47 -24
155 -36 240 -11 85 -27 197 -36 249 -8 51 -21 159 -29 240 -34 355 -61 587
-95 841 -22 166 -33 216 -25 110z"/>
<path d="M751 3462 c-17 -31 -13 -40 5 -14 9 13 14 26 11 29 -3 2 -10 -4 -16
-15z"/>
<path d="M810 3471 c0 -5 5 -13 10 -16 6 -3 10 -2 10 4 0 5 -4 13 -10 16 -5 3
-10 2 -10 -4z"/>
<path d="M5153 3375 c0 -38 2 -53 4 -32 2 20 2 52 0 70 -2 17 -4 1 -4 -38z"/>
<path d="M716 3369 c-15 -55 -31 -165 -20 -141 8 18 42 186 38 191 -1 2 -10
-21 -18 -50z"/>
<path d="M4430 3386 c0 -2 13 -6 29 -8 17 -2 28 -1 25 4 -5 8 -54 12 -54 4z"/>
<path d="M4388 3338 c12 -12 25 -18 29 -14 4 4 -1 14 -11 22 -31 22 -43 17
-18 -8z"/>
<path d="M677 3165 c-4 -22 -6 -56 -6 -75 1 -22 5 -11 10 30 10 72 6 108 -4
45z"/>
<path d="M2360 3078 c0 -8 11 -25 25 -38 18 -17 25 -20 25 -8 0 8 -11 25 -25
38 -18 17 -25 20 -25 8z"/>
<path d="M1066 3058 c-2 -7 -10 -56 -16 -108 -7 -52 -16 -122 -21 -154 -9 -64
-6 -79 9 -49 18 34 52 323 38 323 -4 0 -8 -6 -10 -12z"/>
<path d="M656 2994 c-4 -31 -5 -59 -2 -61 2 -3 8 21 11 52 4 31 5 58 3 61 -3
2 -8 -21 -12 -52z"/>
<path d="M1827 2963 c-5 -34 15 -188 26 -199 2 -3 10 2 17 11 9 11 10 25 1 62
-10 41 -18 106 -20 151 -2 27 -19 9 -24 -25z"/>
<path d="M2426 2962 c-3 -5 8 -6 25 -4 16 2 29 6 29 8 0 8 -49 4 -54 -4z"/>
<path d="M4561 2944 c0 -11 3 -14 6 -6 3 7 2 16 -1 19 -3 4 -6 -2 -5 -13z"/>
<path d="M2507 2923 c-4 -3 -7 -11 -7 -17 0 -6 5 -5 12 2 6 6 9 14 7 17 -3 3
-9 2 -12 -2z"/>
<path d="M641 2904 c0 -11 3 -14 6 -6 3 7 2 16 -1 19 -3 4 -6 -2 -5 -13z"/>
<path d="M5773 2875 c0 -22 2 -30 4 -17 2 12 2 30 0 40 -3 9 -5 -1 -4 -23z"/>
<path d="M626 2819 c-8 -42 0 -50 9 -9 4 17 5 34 2 36 -2 3 -7 -10 -11 -27z"/>
<path d="M1784 2775 c-8 -20 17 -184 29 -192 22 -13 25 19 9 110 -16 93 -26
115 -38 82z"/>
<path d="M5763 2740 c0 -25 2 -35 4 -22 2 12 2 32 0 45 -2 12 -4 2 -4 -23z"/>
<path d="M605 2740 c-4 -17 -5 -34 -2 -36 2 -3 7 10 11 27 8 42 0 50 -9 9z"/>
<path d="M773 2562 c-28 -97 -57 -192 -65 -210 -11 -28 -11 -34 2 -42 25 -16
29 -12 29 28 0 53 35 148 53 144 13 -2 14 5 7 40 -6 32 -3 63 13 120 40 152
12 94 -39 -80z"/>
<path d="M5806 2655 c14 -279 62 -538 157 -855 19 -63 40 -143 47 -176 13 -68
25 -92 37 -81 4 5 -3 47 -16 95 -13 48 -32 125 -41 172 -10 47 -22 84 -27 83
-30 -6 -140 570 -144 752 -1 27 -5 61 -9 75 -5 15 -6 -12 -4 -65z"/>
<path d="M581 2653 c-1 -6 -4 -20 -7 -30 -5 -17 -5 -17 6 0 6 10 9 23 6 30 -3
9 -5 9 -5 0z"/>
<path d="M1689 2651 c-9 -25 14 -262 25 -258 13 4 13 3 3 138 -8 99 -19 147
-28 120z"/>
<path d="M5746 2578 c-13 -169 -26 -489 -26 -674 0 -188 14 -340 44 -480 8
-38 24 -118 36 -179 11 -60 28 -135 37 -165 19 -65 39 -93 29 -40 -4 19 -23
118 -42 220 -20 102 -42 204 -50 227 -10 30 -15 120 -20 310 -3 148 -8 274
-10 282 -2 7 1 139 7 293 10 275 8 369 -5 206z"/>
<path d="M1280 2588 c-29 -38 -30 -40 -6 -18 25 23 52 60 43 60 -2 0 -19 -19
-37 -42z"/>
<path d="M1020 2611 c0 -28 48 -101 66 -101 3 0 2 10 -2 23 -7 25 -64 93 -64
78z"/>
<path d="M5907 2495 c3 -55 7 -102 9 -104 7 -8 3 114 -6 159 -6 31 -7 15 -3
-55z"/>
<path d="M1631 2547 c-1 -10 -5 -16 -9 -13 -5 3 -6 -21 -4 -53 3 -35 -1 -66
-7 -77 -10 -15 -11 -5 -6 48 6 59 4 67 -9 62 -22 -9 -29 -39 -21 -100 5 -42 9
-52 22 -47 13 5 15 1 9 -28 -4 -19 -10 -224 -13 -456 -3 -233 -9 -423 -14
-423 -13 0 -29 36 -29 67 0 40 -11 73 -22 73 -7 0 -8 -19 -4 -50 7 -54 0 -62
-29 -29 -18 18 -19 41 -19 289 0 148 -4 264 -8 257 -4 -6 -8 -128 -7 -271 0
-142 -2 -260 -5 -263 -2 -3 -26 5 -51 16 -26 12 -50 21 -54 21 -6 0 25 -27 74
-62 30 -22 30 -22 12 -1 -18 21 -18 21 2 16 12 -3 21 -13 21 -24 0 -11 24 -34
63 -60 34 -23 54 -33 45 -22 -22 24 -23 33 -3 33 17 0 34 -30 28 -48 -3 -8 10
-27 30 -43 42 -34 63 -77 72 -145 l7 -51 -36 -7 c-22 -4 -36 -13 -36 -21 0
-14 -33 -27 -74 -29 -24 -1 -109 -46 -146 -76 l-25 -21 37 17 c39 18 57 14 42
-9 -5 -7 2 0 16 15 44 49 139 76 141 41 0 -14 3 -13 11 5 22 44 35 25 41 -60
4 -46 7 -102 7 -125 0 -24 4 -43 9 -43 10 0 26 198 17 207 -3 4 -6 -1 -6 -11
0 -9 -4 -14 -10 -11 -5 3 -10 24 -10 46 0 32 3 39 19 39 13 0 24 11 32 34 12
33 15 34 76 41 34 4 63 11 63 16 0 5 -31 9 -69 9 -58 0 -70 -3 -74 -18 -2 -9
-7 1 -11 23 -13 68 -28 99 -69 138 -25 23 -34 37 -25 37 9 0 21 -6 27 -14 6
-8 21 -16 32 -19 16 -4 19 -2 14 11 -4 9 -11 32 -17 50 -10 35 -25 42 -30 15
-3 -15 -4 -15 -20 1 -17 16 -18 48 -18 382 0 253 5 419 16 540 8 96 13 180 11
187 -3 7 -6 4 -6 -6z m-102 -1091 c-9 -9 -50 25 -43 36 4 6 14 2 27 -11 12
-11 19 -23 16 -25z"/>
<path d="M3702 2529 c-19 -24 -27 -27 -43 -19 -24 13 -24 27 -1 34 9 3 -53 4
-138 2 -148 -3 -159 -4 -240 -36 -47 -18 -86 -34 -88 -35 -11 -9 64 -143 103
-184 45 -48 132 -101 164 -101 9 1 -11 14 -45 30 -64 31 -124 88 -124 119 0
32 110 151 139 151 6 0 11 4 11 8 0 14 64 32 113 32 33 0 57 -7 83 -25 l36
-25 29 21 c16 11 29 25 29 30 0 5 5 9 10 9 16 0 12 -152 -5 -199 -8 -23 -24
-56 -35 -72 -12 -16 -18 -29 -13 -29 10 0 48 58 67 104 21 50 29 118 22 171
-6 38 -11 45 -29 44 -12 0 -32 -13 -45 -30z"/>
<path d="M1215 2530 c-3 -5 -2 -10 4 -10 5 0 13 5 16 10 3 6 2 10 -4 10 -5 0
-13 -4 -16 -10z"/>
<path d="M2420 2475 c0 -5 5 -17 10 -25 5 -8 10 -10 10 -5 0 6 -5 17 -10 25
-5 8 -10 11 -10 5z"/>
<path d="M465 2360 c-3 -5 -1 -10 4 -10 6 0 11 5 11 10 0 6 -2 10 -4 10 -3 0
-8 -4 -11 -10z"/>
<path d="M1521 2268 c1 -73 17 -91 17 -20 1 34 -3 62 -9 62 -5 0 -9 -19 -8
-42z"/>
<path d="M3630 2210 c-8 -5 -10 -10 -5 -10 6 0 17 5 25 10 8 5 11 10 5 10 -5
0 -17 -5 -25 -10z"/>
<path d="M1473 2135 c0 -27 2 -38 4 -22 2 15 2 37 0 50 -2 12 -4 0 -4 -28z"/>
<path d="M980 2132 c0 -40 -29 -80 -86 -118 -52 -35 -158 -56 -311 -61 -146
-5 -153 -7 -168 -29 -13 -20 -13 -24 -1 -24 7 0 19 6 25 13 7 10 44 14 126 16
249 5 389 67 434 193 9 24 16 27 63 31 l53 4 -56 0 c-30 0 -61 3 -67 7 -8 5
-12 -5 -12 -32z"/>
<path d="M460 2152 c0 -15 192 -33 233 -21 20 5 37 11 37 12 0 1 -44 2 -98 3
-53 0 -114 3 -134 8 -21 4 -38 3 -38 -2z"/>
<path d="M2553 2022 c8 -139 26 -175 26 -56 1 102 -6 154 -22 154 -6 0 -8 -34
-4 -98z"/>
<path d="M508 1867 c-15 -12 -38 -30 -53 -40 -14 -11 -24 -21 -21 -24 2 -3 30
16 61 41 31 25 53 46 48 46 -4 0 -20 -11 -35 -23z"/>
<path d="M2591 1861 c-12 -8 -12 -19 0 -77 15 -77 19 -388 5 -416 -6 -14 -4
-18 11 -18 18 0 19 8 15 163 -2 89 -3 206 -3 260 1 97 -1 105 -28 88z"/>
<path d="M6056 1780 c11 -58 24 -79 17 -30 -3 25 -10 49 -14 55 -6 5 -7 -5 -3
-25z"/>
<path d="M5251 1634 c0 -11 3 -14 6 -6 3 7 2 16 -1 19 -3 4 -6 -2 -5 -13z"/>
<path d="M5231 1584 c0 -11 3 -14 6 -6 3 7 2 16 -1 19 -3 4 -6 -2 -5 -13z"/>
<path d="M5493 1560 c0 -25 2 -35 4 -22 2 12 2 32 0 45 -2 12 -4 2 -4 -23z"/>
<path d="M131 1549 c-6 -18 -9 -34 -7 -36 2 -2 9 10 15 28 6 18 9 34 7 36 -2
2 -9 -10 -15 -28z"/>
<path d="M5252 1550 c0 -19 2 -27 5 -17 2 9 2 25 0 35 -3 9 -5 1 -5 -18z"/>
<path d="M6096 1572 c-7 -11 18 -88 35 -109 6 -7 9 -13 5 -13 -4 0 1 -14 9
-30 9 -17 14 -41 11 -53 -3 -12 -3 -16 0 -9 3 6 12 12 20 12 12 0 12 6 -2 38
-9 20 -25 64 -36 97 -23 66 -33 82 -42 67z"/>
<path d="M6020 1519 c0 -8 4 -19 9 -24 5 -6 11 -19 14 -30 2 -11 3 -5 1 14 -3
35 -24 69 -24 40z"/>
<path d="M6101 1444 c0 -11 3 -14 6 -6 3 7 2 16 -1 19 -3 4 -6 -2 -5 -13z"/>
<path d="M83 1408 c-6 -7 -13 -25 -17 -40 -3 -14 -9 -34 -12 -45 -5 -12 -4
-15 3 -8 10 10 45 105 39 105 -2 0 -8 -6 -13 -12z"/>
<path d="M6051 1394 c0 -11 3 -14 6 -6 3 7 2 16 -1 19 -3 4 -6 -2 -5 -13z"/>
<path d="M809 1340 c13 -11 29 -20 37 -20 30 0 8 -66 -52 -155 -35 -54 -61
-127 -46 -133 4 -1 6 -21 5 -45 -2 -40 -2 -40 7 -12 6 17 11 41 11 55 2 50 22
111 40 121 11 5 19 16 19 23 0 13 32 95 51 129 11 19 3 41 -11 32 -5 -3 -26 1
-47 10 l-38 15 24 -20z"/>
<path d="M660 1330 c-49 -17 -51 -18 -15 -13 42 6 111 31 85 31 -8 0 -40 -8
-70 -18z"/>
<path d="M1208 1343 c6 -2 18 -2 25 0 6 3 1 5 -13 5 -14 0 -19 -2 -12 -5z"/>
<path d="M1270 1327 c14 -6 44 -19 68 -30 23 -11 42 -23 42 -28 0 -4 -9 -32
-21 -61 -36 -92 -39 -98 -34 -98 4 0 30 55 55 118 7 17 18 32 24 32 16 1 -33
39 -79 60 -22 11 -49 19 -60 19 -17 0 -17 -2 5 -12z"/>
<path d="M1015 1310 l-30 -8 33 -1 c17 0 32 4 32 9 0 6 -1 9 -2 9 -2 -1 -16
-5 -33 -9z"/>
<path d="M548 1293 c7 -3 16 -2 19 1 4 3 -2 6 -13 5 -11 0 -14 -3 -6 -6z"/>
<path d="M5526 1283 c-6 -14 -5 -15 5 -6 7 7 10 15 7 18 -3 3 -9 -2 -12 -12z"/>
<path d="M6064 1285 c11 -39 16 -151 6 -130 -15 30 -5 -43 20 -142 41 -171
158 -468 177 -450 2 2 -15 42 -37 88 -50 105 -111 281 -101 292 8 8 -7 103
-30 197 -6 25 -13 68 -16 95 -3 28 -9 55 -15 60 -7 7 -8 4 -4 -10z"/>
<path d="M6184 1267 c4 -20 17 -59 30 -85 13 -26 34 -71 47 -101 l23 -53 9 32
c5 21 4 37 -4 46 -7 8 -22 35 -34 60 -12 24 -25 41 -30 37 -4 -5 -5 -3 -1 4 3
6 -3 29 -15 50 -29 52 -33 54 -25 10z"/>
<path d="M6254 1254 c3 -9 6 -18 6 -20 0 -2 4 -4 9 -4 5 0 7 9 4 20 -3 11 -10
20 -15 20 -6 0 -7 -7 -4 -16z"/>
<path d="M1420 1256 c0 -3 27 -19 61 -37 55 -30 59 -34 43 -46 -17 -12 -17
-13 2 -13 10 0 25 4 32 8 17 11 -6 31 -75 66 -53 26 -63 30 -63 22z"/>
<path d="M5542 1220 c0 -14 2 -19 5 -12 2 6 2 18 0 25 -3 6 -5 1 -5 -13z"/>
<path d="M10 1209 c-6 -11 -10 -25 -7 -32 2 -6 9 3 15 21 12 36 8 42 -8 11z"/>
<path d="M6288 1188 c9 -35 32 -76 32 -57 0 15 -28 79 -35 79 -2 0 -1 -10 3
-22z"/>
<path d="M5551 1140 c0 -8 4 -22 9 -30 12 -18 12 -2 0 25 -6 13 -9 15 -9 5z"/>
<path d="M1390 1099 l-45 -41 48 33 c49 34 65 49 50 49 -4 0 -28 -19 -53 -41z"/>
<path d="M6305 1057 c-9 -32 -5 -40 11 -23 6 6 8 21 4 31 -7 18 -8 17 -15 -8z"/>
<path d="M5577 1024 c3 -22 9 -43 13 -47 4 -5 4 10 0 33 -10 53 -21 65 -13 14z"/>
<path d="M6320 1026 c0 -2 7 -16 14 -32 8 -15 13 -31 10 -36 -3 -4 4 -20 15
-34 12 -15 21 -33 21 -40 0 -8 5 -14 10 -14 18 0 10 57 -13 99 -13 23 -27 38
-30 34 -4 -3 -7 1 -7 10 0 10 -4 17 -10 17 -5 0 -10 -2 -10 -4z"/>
<path d="M1269 994 c-21 -24 -22 -26 -3 -16 25 13 50 42 37 42 -5 0 -20 -12
-34 -26z"/>
<path d="M6290 1003 c0 -6 9 -21 20 -34 15 -18 19 -20 20 -8 0 9 -9 24 -20 34
-11 10 -20 13 -20 8z"/>
<path d="M1180 920 c0 -5 4 -10 9 -10 6 0 13 5 16 10 3 6 -1 10 -9 10 -9 0
-16 -4 -16 -10z"/>
<path d="M5620 904 c0 -17 73 -107 144 -177 88 -87 81 -86 127 -18 13 21 18
22 37 12 26 -14 29 -48 7 -77 -23 -31 -18 -51 21 -74 28 -18 38 -20 47 -10 9
10 9 14 0 17 -7 3 -13 9 -13 14 0 6 5 7 11 3 7 -4 19 3 28 15 25 33 54 18 48
-23 -5 -29 -1 -34 66 -83 40 -29 99 -78 132 -109 33 -30 72 -64 87 -75 15 -11
29 -32 31 -47 4 -24 4 -24 6 6 1 33 -24 73 -89 141 -14 14 -36 48 -50 74 -14
26 -34 56 -45 67 -42 39 -263 185 -314 208 -105 46 -201 95 -201 102 0 5 -13
11 -30 15 -16 4 -30 11 -30 16 0 5 -4 9 -10 9 -5 0 -10 -3 -10 -6z"/>
<path d="M1092 828 c-17 -17 -15 -26 7 -38 14 -7 22 -7 27 2 4 6 3 8 -3 5 -12
-8 -26 20 -17 34 8 13 0 11 -14 -3z"/>
<path d="M3090 809 c30 -26 168 -94 176 -86 3 3 -18 18 -48 33 -29 14 -65 35
-80 46 -16 11 -28 17 -28 13 0 -3 -10 -1 -22 5 -21 10 -21 9 2 -11z"/>
<path d="M5112 610 c0 -30 5 -73 13 -95 18 -54 18 -14 0 80 l-13 70 0 -55z"/>
<path d="M810 590 c-6 -11 -8 -20 -6 -20 3 0 10 9 16 20 6 11 8 20 6 20 -3 0
-10 -9 -16 -20z"/>
<path d="M730 552 c0 -6 6 -12 13 -15 6 -2 9 -8 5 -12 -4 -4 -14 -2 -22 5 -12
10 -21 8 -45 -9 -17 -12 -43 -26 -60 -32 -25 -9 -48 -45 -36 -57 2 -3 32 19
67 48 54 45 63 50 74 36 16 -23 27 -20 53 15 23 30 23 31 1 19 -16 -9 -25 -9
-36 1 -9 7 -14 8 -14 1z"/>
<path d="M5853 499 c-58 -93 -218 -316 -279 -387 -63 -74 -72 -112 -25 -112
23 0 41 13 88 68 106 120 285 355 326 428 4 7 -11 23 -33 38 l-40 26 -37 -61z"/>
<path d="M6050 525 c0 -14 77 -61 86 -52 5 5 -70 67 -80 67 -3 0 -6 -7 -6 -15z"/>
<path d="M5976 395 c-67 -105 -170 -250 -226 -315 -73 -86 -76 -81 49 -79 108
1 112 2 130 28 27 38 71 128 71 145 0 21 73 112 141 176 33 31 59 59 59 63 0
4 -9 7 -20 7 -11 0 -48 11 -82 25 -34 14 -64 25 -68 25 -4 0 -28 -34 -54 -75z"/>
<path d="M6140 322 c0 -5 20 -17 43 -26 73 -28 91 -55 95 -144 2 -42 9 -81 14
-87 17 -16 1 154 -17 181 -26 40 -135 101 -135 76z"/>
<path d="M2151 192 l-23 -18 23 -87 c22 -83 24 -87 51 -87 15 0 28 2 28 4 0 7
-52 201 -55 204 -1 1 -12 -6 -24 -16z"/>
<path d="M3230 126 c63 -8 148 -21 188 -30 40 -9 85 -15 100 -15 19 1 14 4
-18 11 -25 5 -74 16 -110 25 -36 8 -112 17 -170 18 l-105 4 115 -13z"/>
<path d="M2948 113 c7 -3 16 -2 19 1 4 3 -2 6 -13 5 -11 0 -14 -3 -6 -6z"/>
<path d="M467 63 c-3 -16 -9 -36 -12 -45 -5 -12 -2 -18 7 -18 9 0 14 14 16 45
2 51 -3 58 -11 18z"/>
<path d="M4635 35 c7 -33 12 -41 21 -33 3 4 -2 19 -11 35 l-16 28 6 -30z"/>
<path d="M2060 25 c0 -16 6 -25 16 -25 11 0 14 5 10 16 -3 9 -6 20 -6 25 0 5
-4 9 -10 9 -5 0 -10 -11 -10 -25z"/>
<path d="M3710 21 c19 -11 44 -20 55 -20 15 1 13 4 -10 14 -16 7 -41 15 -55
19 -19 5 -16 2 10 -13z"/>
</g>
</svg>
